<?xml version="1.0" standalone="no"?>
<!DOCTYPE svg PUBLIC "-//W3C//DTD SVG 20010904//EN"
 "http://www.w3.org/TR/2001/REC-SVG-20010904/DTD/svg10.dtd">
<svg version="1.0" xmlns="http://www.w3.org/2000/svg"
 width="280.000000pt" height="180.000000pt" viewBox="0 0 280.000000 180.000000"
 preserveAspectRatio="xMidYMid meet">

<g transform="translate(0.000000,180.000000) scale(0.100000,-0.100000)"
fill="#000000" stroke="none">
<path d="M1333 1634 c-18 -9 -33 -23 -33 -30 0 -8 -11 -20 -25 -26 -14 -6 -25
-18 -25 -25 0 -8 -5 -11 -11 -8 -12 8 -49 -23 -49 -42 0 -22 27 -15 49 13 11
14 24 23 29 20 5 -3 20 1 33 8 15 7 33 10 44 5 29 -11 84 -11 106 1 14 8 25 7
40 -4 23 -16 49 -11 49 8 0 7 -11 18 -25 24 -14 6 -25 18 -25 26 0 18 -59 46
-97 46 -15 0 -43 -8 -60 -16z m121 -27 c22 -36 -56 -63 -105 -37 -23 13 -24
24 -3 45 22 22 93 17 108 -8z m-154 -47 c0 -5 -7 -10 -15 -10 -8 0 -15 5 -15
10 0 6 7 10 15 10 8 0 15 -4 15 -10z m220 0 c0 -5 -4 -10 -9 -10 -6 0 -13 5
-16 10 -3 6 1 10 9 10 9 0 16 -4 16 -10z m-291 -46 c-14 -18 -24 -11 -15 11 3
9 11 13 16 10 8 -5 7 -11 -1 -21z"/>
<path d="M1545 1539 c-8 -13 23 -49 42 -49 8 0 12 -4 9 -9 -3 -5 3 -19 13 -32
44 -57 44 -225 0 -265 -10 -9 -19 -26 -19 -36 0 -12 -4 -16 -11 -12 -8 4 -9
-1 -5 -17 l6 -24 -11 23 c-15 27 -20 27 -52 2 -14 -11 -31 -20 -37 -20 -7 0
-10 -6 -7 -14 3 -8 0 -17 -8 -19 -16 -7 -25 1 -25 22 0 12 -11 16 -45 17 -37
1 -45 -2 -45 -18 0 -10 -7 -18 -16 -18 -8 0 -13 4 -9 9 3 6 -5 15 -17 22 -13
6 -33 21 -45 32 l-22 20 -7 -27 c-3 -14 -10 -26 -16 -26 -5 0 -6 9 -3 20 4 11
2 20 -4 20 -6 0 -11 6 -11 14 0 8 -8 22 -17 31 -9 10 -18 28 -19 42 -2 13 -7
30 -11 36 -20 27 0 150 29 181 22 24 22 30 4 46 -12 9 -17 7 -28 -9 -7 -12
-19 -21 -26 -21 -9 0 -4 11 12 31 32 38 34 54 3 34 -29 -18 -51 -62 -35 -67 6
-2 2 -10 -8 -18 -16 -14 -17 -12 -11 30 5 41 4 43 -9 26 -8 -11 -14 -40 -14
-64 l0 -45 23 19 c12 10 26 25 30 32 5 7 13 10 18 6 6 -4 4 -13 -7 -25 -10
-11 -15 -28 -12 -44 3 -14 1 -28 -3 -31 -12 -7 -11 -51 0 -58 5 -3 7 -15 4
-25 -3 -11 2 -32 10 -48 8 -15 20 -40 27 -55 8 -16 18 -28 24 -28 6 0 18 -15
27 -33 9 -17 22 -31 28 -30 6 2 27 -8 47 -22 20 -14 44 -25 53 -25 9 0 24 -7
34 -14 15 -12 25 -10 72 9 30 12 63 30 74 39 10 9 25 14 33 11 9 -4 18 6 28
29 7 19 21 37 31 39 10 3 21 18 25 33 4 16 13 34 19 41 29 29 28 200 -1 216
-8 5 -12 12 -9 17 8 12 -17 50 -32 50 -7 0 -13 7 -13 16 0 16 -26 43 -42 44
-4 0 -10 -5 -13 -11z m39 -30 c-8 -13 -24 -1 -24 18 0 13 3 13 15 3 8 -7 12
-16 9 -21z m-408 -56 c-10 -10 -19 5 -10 18 6 11 8 11 12 0 2 -7 1 -15 -2 -18z
m454 6 c0 -5 -4 -9 -10 -9 -5 0 -10 7 -10 16 0 8 5 12 10 9 6 -3 10 -10 10
-16z m-480 -63 c0 -8 -4 -18 -10 -21 -5 -3 -10 3 -10 14 0 12 5 21 10 21 6 0
10 -6 10 -14z m510 -7 c0 -11 -4 -17 -10 -14 -5 3 -10 13 -10 21 0 8 5 14 10
14 6 0 10 -9 10 -21z m-520 -74 c0 -8 -4 -15 -10 -15 -5 0 -10 7 -10 15 0 8 5
15 10 15 6 0 10 -7 10 -15z m530 0 c0 -8 -4 -15 -10 -15 -5 0 -10 7 -10 15 0
8 5 15 10 15 6 0 10 -7 10 -15z m-520 -81 c0 -8 -4 -12 -10 -9 -5 3 -10 10
-10 16 0 5 5 9 10 9 6 0 10 -7 10 -16z m510 1 c0 -8 -4 -15 -10 -15 -5 0 -10
7 -10 15 0 8 5 15 10 15 6 0 10 -7 10 -15z m-472 -74 c3 -8 -1 -12 -9 -9 -7 2
-15 10 -17 17 -3 8 1 12 9 9 7 -2 15 -10 17 -17z m440 7 c-2 -6 -10 -14 -16
-16 -7 -2 -10 2 -6 12 7 18 28 22 22 4z"/>
<path d="M1620 1533 c0 -15 30 -52 50 -63 17 -9 19 -8 13 7 -11 33 -63 78 -63
56z"/>
<path d="M1253 1488 c-37 -41 -56 -88 -45 -112 6 -11 13 -28 15 -36 2 -8 5 9
5 39 1 40 7 63 27 92 29 44 28 50 -2 17z"/>
<path d="M1521 1495 c33 -40 62 -111 66 -159 2 -28 6 -52 9 -55 2 -3 3 22 1
55 -4 68 -26 121 -65 155 -19 17 -22 18 -11 4z"/>
<path d="M1698 1475 c4 -36 -5 -44 -26 -23 -7 7 -12 8 -12 2 0 -14 57 -64 64
-57 11 11 6 54 -9 83 -9 17 -17 30 -18 30 -2 0 -1 -16 1 -35z"/>
<path d="M1356 1465 c4 -8 12 -15 18 -15 7 0 13 7 13 15 0 8 -8 15 -18 15 -12
0 -16 -5 -13 -15z"/>
<path d="M1458 1473 c19 -7 4 -23 -16 -16 -13 5 -14 3 -6 -6 9 -10 17 -10 34
-1 18 10 20 14 9 21 -8 5 -18 8 -24 8 -5 0 -4 -3 3 -6z"/>
<path d="M1320 1466 c0 -2 8 -10 18 -17 15 -13 16 -12 3 4 -13 16 -21 21 -21
13z"/>
<path d="M1405 1460 c-3 -5 -1 -10 4 -10 6 0 11 5 11 10 0 6 -2 10 -4 10 -3 0
-8 -4 -11 -10z"/>
<path d="M1036 1413 c-7 -32 8 -103 22 -103 10 0 52 64 52 80 0 9 -8 6 -24 -9
l-24 -23 -9 43 -9 44 -8 -32z"/>
<path d="M1740 1418 c0 -14 -3 -34 -6 -43 -6 -14 -9 -13 -30 6 -32 30 -30 13
5 -38 l28 -42 12 25 c13 30 14 84 1 104 -8 12 -10 9 -10 -12z"/>
<path d="M1393 1395 c0 -22 2 -30 4 -17 2 12 2 30 0 40 -3 9 -5 -1 -4 -23z"/>
<path d="M1443 1388 c1 -20 4 -35 8 -32 4 2 10 0 14 -6 3 -5 -3 -10 -14 -10
-14 0 -21 8 -24 28 -4 26 -4 26 -6 -4 -1 -36 19 -50 50 -33 20 10 20 11 1 28
-11 9 -22 28 -25 41 -3 16 -4 12 -4 -12z"/>
<path d="M1500 1413 c0 -5 7 -17 15 -27 8 -11 16 -31 16 -45 1 -18 3 -20 6 -8
6 21 -15 87 -28 87 -5 0 -9 -3 -9 -7z"/>
<path d="M1274 1387 l-19 -22 23 19 c12 11 22 14 22 8 0 -12 54 -11 66 1 3 3
-7 4 -23 2 -15 -2 -33 1 -39 6 -7 6 -18 1 -30 -14z"/>
<path d="M1480 1379 c16 -13 26 -17 28 -9 5 15 0 20 -29 25 l-24 4 25 -20z"/>
<path d="M1193 1330 c0 -25 2 -35 4 -22 2 12 2 32 0 45 -2 12 -4 2 -4 -23z"/>
<path d="M1345 1349 c-13 -5 -15 -8 -5 -9 13 -1 13 -2 -1 -13 -24 -19 -29 -43
-13 -66 19 -26 48 -27 73 -2 11 11 22 17 25 13 3 -3 17 5 30 17 16 15 26 19
31 12 3 -6 11 -8 18 -4 7 4 4 9 -9 13 -10 4 -25 3 -33 -3 -17 -15 -43 -18 -56
-7 -5 4 -21 10 -35 13 -25 4 -25 4 3 6 15 0 27 5 27 11 0 5 -7 6 -17 3 -10 -4
-14 -2 -9 5 9 15 -5 21 -29 11z m35 -69 c20 -20 20 -20 -5 -26 -30 -7 -45 1
-45 27 0 25 25 24 50 -1z m20 10 c0 -5 -4 -10 -10 -10 -5 0 -10 5 -10 10 0 6
5 10 10 10 6 0 10 -4 10 -10z"/>
<path d="M1547 1299 c-11 -22 -35 -51 -55 -64 -20 -14 -33 -25 -28 -25 29 0
113 95 104 119 -2 5 -11 -9 -21 -30z"/>
<path d="M1756 1302 c-21 -46 -25 -46 -43 1 l-11 32 -1 -31 c-1 -17 4 -45 10
-63 11 -31 12 -31 30 -15 11 9 19 13 19 8 -1 -10 -46 -64 -55 -64 -3 0 -5 16
-5 35 0 19 -5 35 -11 35 -6 0 -9 -22 -7 -60 1 -33 5 -60 8 -60 31 0 85 79 77
112 -3 11 -1 32 5 48 17 51 5 68 -16 22z"/>
<path d="M1020 1306 c0 -26 36 -96 50 -96 7 0 30 83 30 107 0 23 -13 8 -26
-30 l-11 -32 -21 40 c-21 40 -21 40 -22 11z"/>
<path d="M1230 1318 c0 -12 23 -58 29 -57 3 0 15 4 26 9 16 7 17 9 3 9 -9 1
-19 7 -21 14 -4 8 -6 7 -7 -3 0 -10 -6 -6 -15 10 -8 14 -14 22 -15 18z"/>
<path d="M1491 1274 c-19 -13 -28 -24 -20 -24 17 0 29 9 48 33 17 22 14 21
-28 -9z"/>
<path d="M1200 1270 c0 -41 107 -156 127 -136 3 3 1 6 -5 6 -21 0 -85 65 -103
105 -10 22 -19 33 -19 25z"/>
<path d="M1576 1255 c-9 -26 -7 -32 5 -12 6 10 9 21 6 23 -2 3 -7 -2 -11 -11z"/>
<path d="M940 1213 c0 -21 5 -45 10 -53 8 -13 10 -13 10 2 0 9 8 19 18 21 12
3 10 5 -7 6 -20 1 -23 5 -19 31 3 17 1 30 -4 30 -4 0 -8 -17 -8 -37z"/>
<path d="M1095 1211 l-8 -45 -34 39 c-35 41 -42 35 -19 -19 12 -30 49 -66 67
-66 11 0 18 79 9 108 -7 25 -8 25 -15 -17z"/>
<path d="M1271 1247 c2 -1 13 -9 24 -17 19 -14 19 -14 6 3 -7 9 -18 17 -24 17
-6 0 -8 -1 -6 -3z"/>
<path d="M1519 1213 c-27 -29 -28 -32 -7 -17 22 16 54 54 45 54 -2 0 -19 -16
-38 -37z"/>
<path d="M1260 1216 c14 -15 39 -34 55 -42 17 -8 22 -9 11 -2 -11 7 -35 26
-55 43 l-36 29 25 -28z"/>
<path d="M1846 1214 c-3 -9 -3 -21 1 -27 5 -8 2 -8 -8 0 -13 10 -16 10 -16 -2
0 -8 9 -15 20 -15 14 0 18 5 14 20 -3 13 0 20 9 20 8 0 14 5 14 10 0 16 -27
11 -34 -6z"/>
<path d="M1348 1203 c7 -3 16 -2 19 1 4 3 -2 6 -13 5 -11 0 -14 -3 -6 -6z"/>
<path d="M1428 1203 c7 -3 16 -2 19 1 4 3 -2 6 -13 5 -11 0 -14 -3 -6 -6z"/>
<path d="M1524 1179 c-3 -6 -20 -19 -38 -30 -17 -10 -26 -19 -21 -19 11 0 85
48 85 55 0 9 -19 5 -26 -6z"/>
<path d="M1126 1140 c4 -19 11 -43 16 -52 12 -25 3 -22 -48 12 -49 33 -56 26
-19 -19 22 -26 90 -60 100 -49 7 7 -26 113 -40 127 -14 14 -15 12 -9 -19z"/>
<path d="M1650 1150 c-18 -33 -38 -120 -28 -120 23 0 77 31 96 55 34 43 26 48
-20 15 -22 -17 -42 -29 -44 -27 -2 1 2 22 7 46 11 49 6 63 -11 31z"/>
<path d="M1388 1153 c7 -3 16 -2 19 1 4 3 -2 6 -13 5 -11 0 -14 -3 -6 -6z"/>
<path d="M1833 1133 c0 -14 -5 -28 -10 -32 -5 -3 -8 -16 -7 -29 1 -16 -3 -21
-12 -18 -17 7 -19 -20 -2 -30 6 -4 14 -2 16 4 2 7 9 9 14 6 7 -4 8 -2 4 5 -4
7 -4 20 0 29 10 22 13 81 5 86 -3 2 -7 -7 -8 -21z"/>
<path d="M940 1120 c-13 -8 -12 -10 3 -10 9 0 17 -6 17 -13 0 -7 9 -30 19 -50
16 -32 17 -39 5 -44 -8 -3 -14 -9 -14 -15 0 -5 17 3 38 19 20 15 39 29 41 30
3 2 -2 9 -9 16 -8 6 -11 8 -7 3 8 -10 -10 -36 -25 -36 -6 0 -5 7 2 15 11 13
10 14 -5 9 -12 -5 -16 -4 -12 3 4 6 1 13 -5 16 -10 3 -10 7 1 21 8 9 11 19 7
23 -3 3 -6 1 -6 -5 0 -7 -4 -12 -10 -12 -5 0 -10 9 -10 20 0 22 -7 25 -30 10z"/>
<path d="M1348 1123 c6 -2 18 -2 25 0 6 3 1 5 -13 5 -14 0 -19 -2 -12 -5z"/>
<path d="M1428 1123 c7 -3 16 -2 19 1 4 3 -2 6 -13 5 -11 0 -14 -3 -6 -6z"/>
<path d="M1180 1075 c6 -15 15 -35 20 -46 13 -23 -6 -25 -62 -5 -44 16 -48 9
-12 -17 29 -22 86 -33 107 -21 13 8 12 14 -5 52 -24 50 -65 81 -48 37z"/>
<path d="M1596 1081 c-9 -10 -25 -35 -35 -54 -20 -40 -15 -47 37 -47 26 0 99
37 90 45 -2 2 -21 0 -43 -5 -62 -15 -64 -13 -42 30 22 46 19 60 -7 31z"/>
<path d="M1746 1033 c-3 -4 4 -17 16 -30 19 -21 20 -23 4 -23 -12 0 -16 -5
-13 -14 3 -8 1 -16 -4 -18 -6 -2 0 -12 13 -23 13 -11 18 -13 11 -6 -9 11 -8
19 4 37 12 19 13 27 3 39 -17 21 -1 19 23 -2 11 -10 17 -13 13 -6 -11 19 -63
53 -70 46z"/>
<path d="M1060 994 c-23 -27 -51 -38 -62 -23 -7 11 -8 9 -6 -6 2 -12 11 -19
22 -18 10 0 32 -14 48 -33 28 -32 31 -33 44 -17 7 10 14 13 14 7 0 -6 -9 -23
-21 -38 -11 -14 -16 -26 -11 -26 6 0 13 7 16 17 6 15 8 14 20 -2 9 -13 15 -15
20 -7 9 15 -2 34 -15 27 -14 -9 -11 3 8 33 17 26 17 26 0 13 -17 -13 -24 -4
-9 15 4 5 -3 -2 -15 -16 -20 -22 -28 -21 -24 3 1 5 -3 6 -9 2 -5 -3 -10 3 -10
14 0 13 -7 21 -17 21 -14 0 -12 4 7 25 13 14 21 25 18 25 -3 0 -11 -7 -18 -16z"/>
<path d="M1237 971 c-37 -9 -65 -20 -61 -24 13 -12 100 -8 137 8 58 24 77 19
34 -10 -20 -14 -37 -31 -37 -36 0 -6 16 3 35 20 45 39 61 39 108 0 20 -17 37
-26 37 -21 0 5 -17 21 -37 35 -42 30 -26 36 30 12 39 -16 114 -20 135 -7 13 9
-105 37 -143 35 -11 0 -36 -2 -55 -3 -19 -2 -53 -1 -75 2 -23 4 -69 -1 -108
-11z"/>
<path d="M1645 927 c-11 -7 -21 -13 -23 -14 -2 -1 1 -11 8 -22 6 -12 15 -19
20 -16 6 3 7 -1 4 -9 -3 -9 -12 -12 -21 -9 -10 4 -14 2 -9 -5 3 -6 2 -13 -3
-16 -5 -3 -14 8 -21 24 -7 17 -17 33 -22 36 -5 4 -3 -8 6 -24 20 -39 20 -53 1
-46 -22 9 -18 -13 6 -37 19 -19 20 -19 15 -2 -4 13 2 23 22 36 57 35 56 32 37
61 -14 21 -15 29 -5 41 15 18 12 18 -15 2z m3 -42 c-3 -3 -9 2 -12 12 -6 14
-5 15 5 6 7 -7 10 -15 7 -18z"/>
<path d="M1724 915 c-5 -11 -10 -13 -19 -5 -9 8 -14 6 -19 -6 -11 -28 8 -36
32 -14 12 12 22 25 22 30 0 15 -10 12 -16 -5z"/>
<path d="M1176 873 c-19 -40 -12 -54 32 -68 16 -5 22 -2 22 10 0 9 -4 14 -10
10 -5 -3 -18 0 -29 7 -18 11 -18 14 -5 41 9 16 14 31 12 33 -3 2 -12 -13 -22
-33z"/>
<path d="M1292 840 c0 -14 2 -19 5 -12 2 6 2 18 0 25 -3 6 -5 1 -5 -13z"/>
<path d="M1452 825 c0 -16 2 -22 5 -12 2 9 2 23 0 30 -3 6 -5 -1 -5 -18z"/>
<path d="M1387 822 c-22 -24 -21 -30 6 -35 12 -3 3 -4 -21 -4 -24 1 -46 5 -48
9 -9 13 -24 9 -24 -7 0 -8 4 -15 9 -15 5 0 7 -10 5 -22 -4 -21 -4 -21 4 -3 8
18 17 20 76 17 43 -3 66 0 66 7 0 6 -9 11 -20 11 -11 0 -20 5 -20 10 0 6 -10
10 -22 10 -20 0 -21 1 -3 20 10 11 16 20 13 20 -3 0 -12 -8 -21 -18z"/>
<path d="M1472 815 c0 -16 2 -22 5 -12 2 9 2 23 0 30 -3 6 -5 -1 -5 -18z"/>
<path d="M1246 812 c-3 -5 -1 -22 4 -38 4 -16 9 -21 9 -11 1 9 8 17 16 17 8 0
15 8 15 17 0 9 -3 13 -7 10 -3 -4 -12 -2 -19 4 -7 5 -15 6 -18 1z"/>
<path d="M1530 793 c0 -15 5 -35 11 -43 9 -12 10 -12 5 4 -4 10 -2 24 3 30 6
7 4 16 -5 24 -12 11 -14 8 -14 -15z"/>
<path d="M1485 769 c-4 -17 -4 -33 -1 -36 3 -4 6 3 6 15 0 12 5 22 10 22 6 0
10 -7 10 -17 0 -9 3 -14 6 -10 9 9 -4 57 -15 57 -5 0 -12 -14 -16 -31z"/>
<path d="M260 503 c-18 -65 -35 -124 -38 -130 -3 -9 6 -13 27 -13 27 0 32 4
38 30 5 26 10 30 38 30 28 0 35 -5 44 -30 8 -25 16 -30 41 -30 27 0 30 3 25
23 -3 12 -19 69 -34 127 l-28 105 -39 3 -40 3 -34 -118z m80 33 c0 -7 3 -28 6
-45 6 -27 4 -31 -16 -31 -20 0 -22 4 -16 31 3 17 6 38 6 45 0 8 5 14 10 14 6
0 10 -6 10 -14z"/>
<path d="M810 489 l0 -131 33 5 c17 2 40 0 50 -5 42 -22 87 28 87 97 0 65 -39
102 -87 84 -22 -8 -23 -6 -23 36 0 43 -1 45 -30 45 l-30 0 0 -131z m108 -35
c3 -42 -16 -72 -38 -59 -11 7 -14 88 -3 99 18 18 38 -1 41 -40z"/>
<path d="M1140 538 c-12 -46 -29 -102 -36 -126 -18 -55 -19 -52 15 -52 23 0
31 6 40 30 8 25 16 30 41 30 26 0 31 -4 37 -30 5 -26 10 -30 40 -30 28 0 33 3
29 18 -2 9 -14 53 -26 97 -40 151 -37 145 -79 145 l-38 0 -23 -82z m75 -40 c7
-35 5 -38 -15 -38 -20 0 -22 4 -16 31 3 17 6 41 6 53 1 30 16 2 25 -46z"/>
<path d="M1830 575 c0 -42 -1 -44 -22 -36 -29 11 -63 -2 -77 -28 -16 -28 -13
-113 4 -135 9 -12 26 -18 47 -18 18 1 50 1 71 1 l37 1 0 130 0 130 -30 0 c-29
0 -30 -2 -30 -45z m-2 -126 c2 -36 -1 -48 -13 -53 -26 -10 -35 2 -35 48 0 47
6 58 30 54 10 -2 16 -17 18 -49z"/>
<path d="M660 543 c-20 -7 -50 -34 -50 -45 0 -12 54 -10 67 3 13 13 36 3 31
-13 -2 -6 -24 -18 -48 -27 -33 -12 -47 -24 -55 -45 -8 -24 -6 -31 15 -48 17
-14 32 -18 50 -13 14 4 42 6 63 6 l37 -1 0 73 c0 43 -5 80 -12 89 -14 17 -74
30 -98 21z m50 -123 c0 -25 -27 -37 -43 -21 -9 10 -8 16 7 27 27 19 36 18 36
-6z"/>
<path d="M1385 540 c-61 -10 -82 -116 -34 -165 28 -29 95 -27 120 4 10 13 19
27 19 32 0 16 -43 10 -63 -8 -18 -17 -20 -17 -34 2 -9 13 -13 32 -9 54 7 47
21 59 44 38 19 -17 62 -23 62 -9 0 4 -7 17 -15 29 -16 23 -46 31 -90 23z"/>
<path d="M1576 541 c-16 -3 -35 -16 -44 -28 -14 -22 -13 -23 12 -23 15 0 37 5
48 11 16 8 22 8 29 -2 11 -19 4 -26 -34 -33 -36 -7 -77 -39 -77 -59 0 -28 27
-50 61 -49 19 1 51 1 72 1 l37 1 0 79 c0 51 -4 82 -12 88 -19 15 -59 21 -92
14z m50 -118 c-4 -26 -34 -41 -46 -23 -7 11 -5 19 7 28 24 17 42 15 39 -5z"/>
<path d="M1973 540 c-37 -15 -56 -55 -50 -106 6 -60 26 -79 83 -79 37 0 50 5
66 25 l20 25 -26 3 c-15 2 -34 -2 -42 -9 -11 -9 -17 -9 -29 1 -32 26 -17 40
41 40 l57 0 -7 32 c-11 55 -64 87 -113 68z m55 -53 c3 -12 -4 -17 -22 -17 -28
0 -33 9 -14 28 15 15 32 10 36 -11z"/>
<path d="M2225 542 c-11 -2 -26 -9 -32 -14 -9 -7 -13 -7 -13 1 0 6 -13 11 -30
11 l-30 0 0 -90 0 -90 30 0 c29 0 29 0 32 68 3 59 5 67 23 67 18 0 20 -8 23
-67 3 -67 3 -68 30 -68 27 0 28 1 25 58 -4 63 6 88 31 79 12 -5 16 -21 16 -72
l0 -65 30 0 30 0 0 73 c0 45 -5 80 -13 91 -15 20 -62 25 -79 8 -8 -8 -17 -7
-32 2 -11 7 -30 11 -41 8z"/>
<path d="M460 450 l0 -90 30 0 c30 0 30 1 30 53 0 58 12 77 47 77 18 0 23 6
23 25 0 29 -29 34 -54 9 -15 -14 -16 -14 -16 0 0 11 -9 16 -30 16 l-30 0 0
-90z"/>
<path d="M2435 446 c35 -97 34 -116 -7 -116 -24 0 -24 -40 0 -41 65 -4 72 4
117 141 l34 105 -26 3 c-32 4 -32 4 -47 -60 l-12 -53 -14 58 c-13 55 -14 57
-46 57 l-33 0 34 -94z"/>
<path d="M222 260 c0 -25 2 -37 5 -27 2 9 10 17 16 17 9 0 9 2 1 8 -7 4 -14
16 -17 27 -2 11 -5 0 -5 -25z"/>
<path d="M393 283 c-4 -9 -2 -18 3 -20 24 -8 36 -22 29 -32 -5 -9 -10 -9 -21
0 -9 7 -14 8 -14 1 0 -13 21 -21 38 -14 19 7 14 30 -8 42 -24 13 -17 32 7 23
11 -4 14 -3 9 5 -11 18 -36 15 -43 -5z"/>
<path d="M808 288 c5 -7 12 -26 15 -43 4 -28 4 -28 6 6 1 26 -4 39 -15 43 -13
5 -14 3 -6 -6z"/>
<path d="M1958 293 c6 -2 13 -21 13 -41 2 -34 2 -35 6 -7 3 17 9 35 13 40 6 7
-1 11 -18 12 -15 1 -21 -1 -14 -4z"/>
<path d="M953 253 c0 -21 2 -28 4 -15 2 12 12 22 21 23 14 0 14 2 2 6 -8 3
-18 10 -21 15 -3 5 -6 -8 -6 -29z"/>
<path d="M1123 255 c0 -22 2 -30 4 -17 2 12 2 30 0 40 -3 9 -5 -1 -4 -23z"/>
<path d="M1470 280 c0 -5 -7 -10 -15 -10 -10 0 -15 -9 -14 -27 2 -24 2 -25 6
-5 2 12 8 22 13 22 5 0 11 -10 13 -22 3 -14 5 -9 6 15 0 20 -1 37 -4 37 -3 0
-5 -4 -5 -10z"/>
<path d="M1530 253 c0 -43 5 -41 13 5 4 18 2 32 -3 32 -6 0 -10 -16 -10 -37z"/>
<path d="M1570 275 c0 -9 6 -12 15 -9 8 4 12 10 9 15 -8 14 -24 10 -24 -6z"/>
<path d="M1730 258 c0 -21 2 -38 4 -38 9 0 12 50 5 62 -6 8 -9 -1 -9 -24z"/>
<path d="M2350 261 c0 -42 15 -46 17 -5 1 19 -3 34 -8 34 -5 0 -9 -13 -9 -29z"/>
<path d="M277 263 c-10 -10 -8 -43 2 -43 5 0 7 10 3 22 -4 17 -2 20 11 15 10
-4 17 -2 17 3 0 11 -23 13 -33 3z"/>
<path d="M330 245 c0 -14 2 -25 4 -25 2 0 6 11 8 25 3 14 1 25 -3 25 -5 0 -9
-11 -9 -25z"/>
<path d="M453 254 c-3 -8 -1 -20 5 -26 8 -8 9 -5 6 10 -4 14 0 22 13 25 17 4
17 5 0 6 -10 0 -20 -6 -24 -15z"/>
<path d="M502 245 c0 -16 2 -22 5 -12 2 9 2 23 0 30 -3 6 -5 -1 -5 -18z"/>
<path d="M528 258 c-7 -17 1 -38 13 -38 6 0 7 5 4 10 -3 6 1 10 10 10 20 0 14
24 -7 28 -9 2 -18 -3 -20 -10z"/>
<path d="M581 243 c2 -24 2 -25 6 -5 2 12 8 22 13 22 5 0 11 -10 13 -22 4 -20
4 -19 6 5 1 21 -4 27 -19 27 -15 0 -20 -6 -19 -27z"/>
<path d="M648 263 c7 -3 16 -2 19 1 4 3 -2 6 -13 5 -11 0 -14 -3 -6 -6z"/>
<path d="M691 243 c0 -15 3 -22 6 -15 2 6 11 12 20 12 20 0 11 24 -10 28 -13
3 -17 -4 -16 -25z"/>
<path d="M857 263 c-10 -10 -8 -43 2 -43 5 0 7 9 4 20 -3 12 0 20 6 20 7 0 9
-4 6 -10 -3 -5 -1 -10 4 -10 6 0 11 7 11 15 0 15 -21 21 -33 8z"/>
<path d="M907 263 c-10 -10 -8 -43 2 -43 5 0 7 9 4 19 -3 13 1 21 14 24 13 3
14 5 2 6 -9 0 -19 -2 -22 -6z"/>
<path d="M1011 243 c2 -24 2 -25 6 -5 2 12 8 22 13 22 5 0 11 -10 13 -22 4
-20 4 -19 6 5 1 21 -4 27 -19 27 -15 0 -20 -6 -19 -27z"/>
<path d="M1063 254 c-3 -8 -1 -20 5 -26 8 -8 9 -5 5 11 -4 15 -1 21 12 21 13
0 16 -6 12 -21 -4 -16 -3 -19 5 -11 14 14 3 42 -17 42 -9 0 -18 -7 -22 -16z"/>
<path d="M1143 254 c-3 -8 -2 -19 3 -24 5 -5 9 1 9 16 0 28 -3 30 -12 8z"/>
<path d="M1175 245 c0 -13 3 -21 8 -18 4 2 7 10 7 18 0 8 -3 16 -7 18 -5 3 -8
-5 -8 -18z"/>
<path d="M1201 235 c0 -31 2 -37 10 -25 8 11 12 12 16 3 7 -19 40 -16 47 4 4
9 3 19 -2 22 -5 3 -12 13 -15 21 -4 8 -4 0 -1 -17 3 -18 2 -33 -3 -33 -15 1
-41 26 -46 45 -2 11 -5 2 -6 -20z"/>
<path d="M1226 255 c4 -8 8 -15 10 -15 2 0 4 7 4 15 0 8 -4 15 -10 15 -5 0 -7
-7 -4 -15z"/>
<path d="M1354 262 c4 -7 1 -12 -8 -12 -9 0 -16 -8 -15 -17 0 -11 3 -13 6 -5
2 6 9 12 14 12 6 0 7 -4 4 -10 -3 -5 -1 -10 4 -10 15 0 14 37 -1 46 -7 4 -8 3
-4 -4z"/>
<path d="M1380 245 c0 -14 2 -25 4 -25 2 0 6 11 8 25 3 14 1 25 -3 25 -5 0 -9
-11 -9 -25z"/>
<path d="M1624 261 c18 -7 18 -8 3 -14 -9 -3 -17 -12 -16 -19 0 -10 2 -10 6 0
2 6 9 12 14 12 6 0 7 -4 4 -10 -3 -5 -1 -10 4 -10 6 0 11 11 11 25 0 19 -5 25
-22 24 -21 0 -21 -1 -4 -8z"/>
<path d="M1670 245 c0 -14 2 -25 4 -25 2 0 6 11 8 25 3 14 1 25 -3 25 -5 0 -9
-11 -9 -25z"/>
<path d="M1762 245 c0 -16 2 -22 5 -12 2 9 2 23 0 30 -3 6 -5 -1 -5 -18z"/>
<path d="M1785 259 c-4 -6 -5 -12 -2 -15 2 -3 7 2 10 11 7 17 1 20 -8 4z"/>
<path d="M1819 243 c5 -26 6 -26 9 -5 2 12 7 22 12 22 5 0 11 -10 13 -22 4
-20 4 -19 6 5 1 22 -3 27 -23 27 -20 0 -22 -4 -17 -27z"/>
<path d="M1873 254 c-3 -8 0 -21 7 -27 10 -9 11 -9 6 1 -4 7 -1 12 8 12 9 0
16 8 15 18 0 10 -3 12 -6 5 -2 -7 -9 -13 -14 -13 -6 0 -7 5 -4 10 3 6 4 10 0
10 -3 0 -8 -7 -12 -16z"/>
<path d="M2010 259 c0 -5 5 -7 10 -4 6 3 10 8 10 11 0 2 -4 4 -10 4 -5 0 -10
-5 -10 -11z"/>
<path d="M2058 261 c11 -7 11 -9 -2 -14 -9 -4 -16 -12 -15 -19 0 -10 2 -10 6
0 2 6 9 12 14 12 6 0 7 -4 4 -10 -3 -5 -1 -10 4 -10 6 0 11 11 11 25 0 17 -5
25 -17 25 -14 0 -15 -2 -5 -9z"/>
<path d="M2101 243 c2 -24 2 -25 6 -5 2 12 8 22 13 22 5 0 11 -10 13 -22 4
-20 4 -19 6 5 1 21 -4 27 -19 27 -15 0 -20 -6 -19 -27z"/>
<path d="M2156 262 c-3 -5 4 -16 15 -25 10 -9 19 -12 19 -7 0 6 -8 14 -17 17
-15 6 -15 7 3 14 16 6 16 8 2 8 -9 1 -19 -3 -22 -7z"/>
<path d="M2200 233 c0 -25 3 -33 9 -24 5 7 6 22 4 32 -6 22 7 25 26 7 10 -11
11 -10 6 5 -4 9 -16 17 -26 17 -15 0 -19 -7 -19 -37z"/>
<path d="M2260 261 c0 -6 7 -8 17 -4 13 5 15 2 11 -15 -4 -12 -2 -22 4 -22 17
0 4 45 -14 48 -10 2 -18 -1 -18 -7z"/>
<path d="M2311 243 c0 -16 3 -22 6 -13 3 8 10 21 16 28 7 8 5 12 -7 12 -11 0
-16 -8 -15 -27z"/>
<path d="M1550 246 c0 -8 5 -18 10 -21 6 -3 10 1 10 9 0 8 -4 18 -10 21 -5 3
-10 -1 -10 -9z"/>
<path d="M1587 240 c-3 -11 -1 -20 4 -20 5 0 9 9 9 20 0 11 -2 20 -4 20 -2 0
-6 -9 -9 -20z"/>
<path d="M1702 240 c0 -14 2 -19 5 -12 2 6 2 18 0 25 -3 6 -5 1 -5 -13z"/>
</g>
</svg>
