<?xml version="1.0" encoding="UTF-8"?>
<svg xmlns="http://www.w3.org/2000/svg" xmlns:xlink="http://www.w3.org/1999/xlink" width="800px" height="515px" viewBox="0 0 801 515" version="1.1">
<g id="surface1">
<path style=" stroke:none;fill-rule:nonzero;fill:rgb(0%,0%,0%);fill-opacity:1;" d="M 381.332031 47.496094 C 376.183594 50.070312 371.894531 54.074219 371.894531 56.078125 C 371.894531 58.367188 368.746094 61.800781 364.742188 63.515625 C 360.734375 65.234375 357.589844 68.667969 357.589844 70.667969 C 357.589844 72.957031 356.160156 73.816406 354.441406 72.957031 C 351.007812 70.667969 340.425781 79.539062 340.425781 84.976562 C 340.425781 91.269531 348.148438 89.265625 354.441406 81.253906 C 357.589844 77.25 361.308594 74.675781 362.738281 75.535156 C 364.167969 76.390625 368.460938 75.246094 372.179688 73.246094 C 376.46875 71.242188 381.621094 70.382812 384.765625 71.8125 C 393.0625 74.960938 408.796875 74.960938 415.089844 71.527344 C 419.09375 69.238281 422.242188 69.523438 426.53125 72.671875 C 433.113281 77.25 440.550781 75.820312 440.550781 70.382812 C 440.550781 68.378906 437.402344 65.234375 433.398438 63.515625 C 429.394531 61.800781 426.246094 58.367188 426.246094 56.078125 C 426.246094 50.929688 409.367188 42.917969 398.496094 42.917969 C 394.207031 42.917969 386.195312 45.207031 381.332031 47.496094 Z M 415.949219 55.21875 C 422.242188 65.519531 399.929688 73.246094 385.910156 65.804688 C 379.332031 62.085938 379.042969 58.9375 385.050781 52.929688 C 391.347656 46.636719 411.65625 48.066406 415.949219 55.21875 Z M 371.894531 68.667969 C 371.894531 70.097656 369.890625 71.527344 367.601562 71.527344 C 365.3125 71.527344 363.3125 70.097656 363.3125 68.667969 C 363.3125 66.949219 365.3125 65.804688 367.601562 65.804688 C 369.890625 65.804688 371.894531 66.949219 371.894531 68.667969 Z M 434.828125 68.667969 C 434.828125 70.097656 433.683594 71.527344 432.253906 71.527344 C 430.539062 71.527344 428.535156 70.097656 427.675781 68.667969 C 426.820312 66.949219 427.960938 65.804688 430.25 65.804688 C 432.824219 65.804688 434.828125 66.949219 434.828125 68.667969 Z M 351.582031 81.828125 C 347.578125 86.976562 344.714844 84.976562 347.289062 78.679688 C 348.148438 76.105469 350.4375 74.960938 351.867188 75.820312 C 354.15625 77.25 353.871094 78.964844 351.582031 81.828125 Z M 351.582031 81.828125 "/>
<path style=" stroke:none;fill-rule:nonzero;fill:rgb(0%,0%,0%);fill-opacity:1;" d="M 441.980469 74.675781 C 439.691406 78.394531 448.558594 88.695312 453.996094 88.695312 C 456.285156 88.695312 457.429688 89.839844 456.570312 91.269531 C 455.710938 92.699219 457.429688 96.707031 460.289062 100.425781 C 472.875 116.734375 472.875 164.800781 460.289062 176.246094 C 457.429688 178.820312 454.855469 183.683594 454.855469 186.542969 C 454.855469 189.976562 453.710938 191.121094 451.707031 189.976562 C 449.417969 188.832031 449.132812 190.265625 450.277344 194.839844 L 451.992188 201.707031 L 448.847656 195.128906 C 444.554688 187.402344 443.125 187.402344 433.96875 194.554688 C 429.964844 197.703125 425.101562 200.277344 423.386719 200.277344 C 421.382812 200.277344 420.523438 201.996094 421.382812 204.285156 C 422.242188 206.570312 421.382812 209.148438 419.09375 209.71875 C 414.515625 211.722656 411.941406 209.433594 411.941406 203.425781 C 411.941406 199.992188 408.796875 198.847656 399.070312 198.5625 C 388.484375 198.273438 386.195312 199.132812 386.195312 203.710938 C 386.195312 206.570312 384.195312 208.859375 381.621094 208.859375 C 379.332031 208.859375 377.898438 207.714844 379.042969 206.285156 C 379.902344 204.570312 377.613281 201.996094 374.179688 199.992188 C 370.460938 198.273438 364.742188 193.984375 361.308594 190.835938 L 355.015625 185.113281 L 353.011719 192.839844 C 352.152344 196.84375 350.152344 200.277344 348.433594 200.277344 C 347.003906 200.277344 346.71875 197.703125 347.578125 194.554688 C 348.722656 191.410156 348.148438 188.832031 346.433594 188.832031 C 344.714844 188.832031 343.285156 187.117188 343.285156 184.828125 C 343.285156 182.539062 340.996094 178.535156 338.421875 175.957031 C 335.847656 173.097656 333.273438 167.945312 332.988281 163.941406 C 332.414062 160.222656 330.984375 155.359375 329.839844 153.640625 C 324.117188 145.917969 329.839844 110.726562 338.136719 101.855469 C 344.429688 94.988281 344.429688 93.273438 339.28125 88.695312 C 335.847656 86.121094 334.417969 86.691406 331.269531 91.269531 C 329.269531 94.703125 325.835938 97.277344 323.832031 97.277344 C 321.257812 97.277344 322.6875 94.128906 327.265625 88.410156 C 336.421875 77.535156 336.992188 72.957031 328.125 78.679688 C 319.828125 83.832031 313.535156 96.417969 318.113281 97.851562 C 319.828125 98.421875 318.683594 100.710938 315.824219 103 C 311.246094 107.003906 310.960938 106.433594 312.675781 94.417969 C 314.105469 82.6875 313.820312 82.113281 310.101562 86.976562 C 307.8125 90.125 306.097656 98.421875 306.097656 105.289062 L 306.097656 118.164062 L 312.675781 112.726562 C 316.109375 109.867188 320.113281 105.574219 321.257812 103.570312 C 322.6875 101.570312 324.976562 100.710938 326.40625 101.855469 C 328.125 103 327.550781 105.574219 324.40625 109.007812 C 321.542969 112.15625 320.113281 117.019531 320.972656 121.597656 C 321.832031 125.601562 321.257812 129.609375 320.113281 130.464844 C 316.679688 132.46875 316.96875 145.058594 320.113281 147.0625 C 321.542969 147.917969 322.117188 151.351562 321.257812 154.214844 C 320.398438 157.359375 321.832031 163.371094 324.117188 167.945312 C 326.40625 172.238281 329.839844 179.390625 331.84375 183.683594 C 334.132812 188.261719 336.992188 191.695312 338.707031 191.695312 C 340.425781 191.695312 343.859375 195.984375 346.433594 201.136719 C 349.007812 206 352.726562 210.003906 354.441406 209.71875 C 356.160156 209.148438 362.167969 212.007812 367.886719 216.015625 C 373.609375 220.019531 380.476562 223.167969 383.050781 223.167969 C 385.625 223.167969 389.914062 225.167969 392.777344 227.171875 C 397.066406 230.605469 399.929688 230.035156 413.375 224.597656 C 421.957031 221.164062 431.394531 216.015625 434.542969 213.4375 C 437.402344 210.863281 441.695312 209.433594 443.984375 210.292969 C 446.558594 211.4375 449.132812 208.574219 451.992188 201.996094 C 453.996094 196.558594 458 191.410156 460.859375 190.835938 C 463.722656 189.976562 466.867188 185.6875 468.011719 181.394531 C 469.15625 176.816406 471.730469 171.667969 473.449219 169.664062 C 481.746094 161.367188 481.457031 112.441406 473.164062 107.863281 C 470.875 106.433594 469.730469 104.429688 470.585938 103 C 472.875 99.566406 465.722656 88.695312 461.433594 88.695312 C 459.429688 88.695312 457.714844 86.691406 457.714844 84.117188 C 457.714844 79.539062 450.277344 71.8125 445.699219 71.527344 C 444.554688 71.527344 442.839844 72.957031 441.980469 74.675781 Z M 453.136719 83.257812 C 450.847656 86.976562 446.269531 83.542969 446.269531 78.109375 C 446.269531 74.390625 447.128906 74.390625 450.5625 77.25 C 452.851562 79.253906 453.996094 81.828125 453.136719 83.257812 Z M 336.421875 99.28125 C 333.558594 102.140625 330.984375 97.851562 333.558594 94.128906 C 335.277344 90.984375 335.847656 90.984375 336.992188 94.128906 C 337.5625 96.132812 337.277344 98.421875 336.421875 99.28125 Z M 466.296875 97.5625 C 466.296875 98.996094 465.152344 100.140625 463.4375 100.140625 C 462.003906 100.140625 460.574219 98.136719 460.574219 95.5625 C 460.574219 93.273438 462.003906 92.128906 463.4375 92.984375 C 465.152344 93.84375 466.296875 95.847656 466.296875 97.5625 Z M 328.980469 115.589844 C 328.980469 117.878906 327.835938 120.738281 326.121094 121.597656 C 324.691406 122.457031 323.261719 120.738281 323.261719 117.589844 C 323.261719 114.160156 324.691406 111.582031 326.121094 111.582031 C 327.835938 111.582031 328.980469 113.300781 328.980469 115.589844 Z M 474.878906 117.589844 C 474.878906 120.738281 473.734375 122.457031 472.019531 121.597656 C 470.585938 120.738281 469.15625 117.878906 469.15625 115.589844 C 469.15625 113.300781 470.585938 111.582031 472.019531 111.582031 C 473.734375 111.582031 474.878906 114.160156 474.878906 117.589844 Z M 326.121094 138.765625 C 326.121094 141.054688 324.976562 143.054688 323.261719 143.054688 C 321.832031 143.054688 320.398438 141.054688 320.398438 138.765625 C 320.398438 136.476562 321.832031 134.472656 323.261719 134.472656 C 324.976562 134.472656 326.121094 136.476562 326.121094 138.765625 Z M 477.738281 138.765625 C 477.738281 141.054688 476.59375 143.054688 474.878906 143.054688 C 473.449219 143.054688 472.019531 141.054688 472.019531 138.765625 C 472.019531 136.476562 473.449219 134.472656 474.878906 134.472656 C 476.59375 134.472656 477.738281 136.476562 477.738281 138.765625 Z M 328.980469 161.9375 C 328.980469 164.226562 327.835938 165.371094 326.121094 164.515625 C 324.691406 163.65625 323.261719 161.652344 323.261719 159.9375 C 323.261719 158.503906 324.691406 157.359375 326.121094 157.359375 C 327.835938 157.359375 328.980469 159.363281 328.980469 161.9375 Z M 474.878906 161.652344 C 474.878906 163.941406 473.734375 165.945312 472.019531 165.945312 C 470.585938 165.945312 469.15625 163.941406 469.15625 161.652344 C 469.15625 159.363281 470.585938 157.359375 472.019531 157.359375 C 473.734375 157.359375 474.878906 159.363281 474.878906 161.652344 Z M 339.851562 182.824219 C 340.710938 185.113281 339.566406 186.257812 337.277344 185.398438 C 335.277344 184.828125 332.988281 182.539062 332.414062 180.535156 C 331.558594 178.246094 332.699219 177.101562 334.988281 177.960938 C 336.992188 178.535156 339.28125 180.820312 339.851562 182.824219 Z M 465.722656 180.820312 C 465.152344 182.539062 462.863281 184.828125 461.148438 185.398438 C 459.144531 185.972656 458.285156 184.828125 459.429688 181.964844 C 461.433594 176.816406 467.441406 175.671875 465.722656 180.820312 Z M 465.722656 180.820312 "/>
<path style=" stroke:none;fill-rule:nonzero;fill:rgb(0%,0%,0%);fill-opacity:1;" d="M 463.4375 76.390625 C 463.4375 80.683594 472.019531 91.269531 477.738281 94.417969 C 482.601562 96.992188 483.175781 96.707031 481.457031 92.414062 C 478.3125 82.972656 463.4375 70.097656 463.4375 76.390625 Z M 463.4375 76.390625 "/>
<path style=" stroke:none;fill-rule:nonzero;fill:rgb(0%,0%,0%);fill-opacity:1;" d="M 358.449219 89.265625 C 347.863281 100.996094 342.425781 114.445312 345.574219 121.3125 C 347.289062 124.457031 349.292969 129.320312 349.867188 131.609375 C 350.4375 133.898438 351.296875 129.035156 351.296875 120.453125 C 351.582031 109.007812 353.296875 102.429688 359.019531 94.128906 C 367.316406 81.542969 367.03125 79.824219 358.449219 89.265625 Z M 358.449219 89.265625 "/>
<path style=" stroke:none;fill-rule:nonzero;fill:rgb(0%,0%,0%);fill-opacity:1;" d="M 435.113281 87.265625 C 444.554688 98.707031 452.851562 119.023438 453.996094 132.753906 C 454.566406 140.765625 455.710938 147.632812 456.570312 148.492188 C 457.140625 149.351562 457.429688 142.195312 456.855469 132.753906 C 455.710938 113.300781 449.417969 98.136719 438.261719 88.410156 C 432.824219 83.542969 431.96875 83.257812 435.113281 87.265625 Z M 435.113281 87.265625 "/>
<path style=" stroke:none;fill-rule:nonzero;fill:rgb(0%,0%,0%);fill-opacity:1;" d="M 485.75 92.984375 C 486.894531 103.285156 484.320312 105.574219 478.3125 99.566406 C 476.308594 97.5625 474.878906 97.277344 474.878906 98.996094 C 474.878906 103 491.183594 117.304688 493.1875 115.304688 C 496.332031 112.15625 494.902344 99.851562 490.613281 91.554688 C 488.039062 86.691406 485.75 82.972656 485.464844 82.972656 C 484.890625 82.972656 485.175781 87.550781 485.75 92.984375 Z M 485.75 92.984375 "/>
<path style=" stroke:none;fill-rule:nonzero;fill:rgb(0%,0%,0%);fill-opacity:1;" d="M 387.914062 95.847656 C 389.058594 98.136719 391.347656 100.140625 393.0625 100.140625 C 395.066406 100.140625 396.78125 98.136719 396.78125 95.847656 C 396.78125 93.558594 394.492188 91.554688 391.632812 91.554688 C 388.199219 91.554688 387.054688 92.984375 387.914062 95.847656 Z M 387.914062 95.847656 "/>
<path style=" stroke:none;fill-rule:nonzero;fill:rgb(0%,0%,0%);fill-opacity:1;" d="M 417.09375 93.558594 C 422.527344 95.5625 418.238281 100.140625 412.515625 98.136719 C 408.796875 96.707031 408.511719 97.277344 410.796875 99.851562 C 413.375 102.714844 415.660156 102.714844 420.523438 100.140625 C 425.675781 97.277344 426.246094 96.132812 423.101562 94.128906 C 420.8125 92.699219 417.949219 91.839844 416.234375 91.839844 C 414.804688 91.839844 415.089844 92.699219 417.09375 93.558594 Z M 417.09375 93.558594 "/>
<path style=" stroke:none;fill-rule:nonzero;fill:rgb(0%,0%,0%);fill-opacity:1;" d="M 377.613281 95.5625 C 377.613281 96.132812 379.902344 98.421875 382.761719 100.425781 C 387.054688 104.144531 387.339844 103.859375 383.621094 99.28125 C 379.902344 94.703125 377.613281 93.273438 377.613281 95.5625 Z M 377.613281 95.5625 "/>
<path style=" stroke:none;fill-rule:nonzero;fill:rgb(0%,0%,0%);fill-opacity:1;" d="M 401.929688 97.277344 C 401.070312 98.707031 401.644531 100.140625 403.074219 100.140625 C 404.792969 100.140625 406.222656 98.707031 406.222656 97.277344 C 406.222656 95.5625 405.648438 94.417969 405.078125 94.417969 C 404.21875 94.417969 402.789062 95.5625 401.929688 97.277344 Z M 401.929688 97.277344 "/>
<path style=" stroke:none;fill-rule:nonzero;fill:rgb(0%,0%,0%);fill-opacity:1;" d="M 296.371094 110.726562 C 294.367188 119.878906 298.660156 140.195312 302.664062 140.195312 C 305.523438 140.195312 317.539062 121.882812 317.539062 117.304688 C 317.539062 114.730469 315.25 115.589844 310.671875 119.878906 L 303.808594 126.460938 L 301.234375 114.160156 L 298.660156 101.570312 Z M 296.371094 110.726562 "/>
<path style=" stroke:none;fill-rule:nonzero;fill:rgb(0%,0%,0%);fill-opacity:1;" d="M 497.765625 109.292969 C 497.765625 113.300781 496.90625 119.023438 496.046875 121.597656 C 494.332031 125.601562 493.472656 125.316406 487.464844 119.878906 C 478.3125 111.296875 478.882812 116.160156 488.894531 130.753906 L 496.90625 142.769531 L 500.339844 135.617188 C 504.058594 127.035156 504.34375 111.582031 500.625 105.859375 C 498.335938 102.429688 497.765625 103.285156 497.765625 109.292969 Z M 497.765625 109.292969 "/>
<path style=" stroke:none;fill-rule:nonzero;fill:rgb(0%,0%,0%);fill-opacity:1;" d="M 398.496094 115.875 C 398.496094 122.167969 399.070312 124.457031 399.640625 120.738281 C 400.214844 117.304688 400.214844 112.15625 399.640625 109.292969 C 398.785156 106.71875 398.210938 109.582031 398.496094 115.875 Z M 398.496094 115.875 "/>
<path style=" stroke:none;fill-rule:nonzero;fill:rgb(0%,0%,0%);fill-opacity:1;" d="M 412.800781 117.878906 C 413.085938 123.601562 413.945312 127.890625 415.089844 127.035156 C 416.234375 126.460938 417.949219 127.035156 419.09375 128.75 C 419.953125 130.179688 418.238281 131.609375 415.089844 131.609375 C 411.085938 131.609375 409.082031 129.320312 408.222656 123.601562 C 407.078125 116.160156 407.078125 116.160156 406.507812 124.746094 C 406.222656 135.042969 411.941406 139.050781 420.8125 134.1875 C 426.53125 131.324219 426.53125 131.039062 421.097656 126.175781 C 417.949219 123.601562 414.804688 118.164062 413.945312 114.445312 C 413.085938 109.867188 412.800781 111.011719 412.800781 117.878906 Z M 412.800781 117.878906 "/>
<path style=" stroke:none;fill-rule:nonzero;fill:rgb(0%,0%,0%);fill-opacity:1;" d="M 429.105469 110.726562 C 429.105469 112.15625 431.109375 115.589844 433.398438 118.449219 C 435.6875 121.597656 437.976562 127.320312 437.976562 131.324219 C 438.261719 136.476562 438.832031 137.046875 439.691406 133.613281 C 441.410156 127.605469 435.402344 108.722656 431.683594 108.722656 C 430.25 108.722656 429.105469 109.582031 429.105469 110.726562 Z M 429.105469 110.726562 "/>
<path style=" stroke:none;fill-rule:nonzero;fill:rgb(0%,0%,0%);fill-opacity:1;" d="M 364.453125 118.164062 L 359.019531 124.457031 L 365.597656 119.023438 C 369.03125 115.875 371.894531 115.015625 371.894531 116.734375 C 371.894531 120.167969 387.339844 119.878906 390.773438 116.445312 C 391.632812 115.589844 388.769531 115.304688 384.195312 115.875 C 379.902344 116.445312 374.753906 115.589844 373.039062 114.160156 C 371.035156 112.441406 367.886719 113.871094 364.453125 118.164062 Z M 364.453125 118.164062 "/>
<path style=" stroke:none;fill-rule:nonzero;fill:rgb(0%,0%,0%);fill-opacity:1;" d="M 423.386719 120.453125 C 427.960938 124.171875 430.824219 125.316406 431.394531 123.027344 C 432.824219 118.734375 431.394531 117.304688 423.101562 115.875 L 416.234375 114.730469 Z M 423.386719 120.453125 "/>
<path style=" stroke:none;fill-rule:nonzero;fill:rgb(0%,0%,0%);fill-opacity:1;" d="M 341.285156 134.472656 C 341.285156 141.625 341.855469 144.484375 342.425781 140.765625 C 343 137.332031 343 131.609375 342.425781 127.890625 C 341.855469 124.457031 341.285156 127.320312 341.285156 134.472656 Z M 341.285156 134.472656 "/>
<path style=" stroke:none;fill-rule:nonzero;fill:rgb(0%,0%,0%);fill-opacity:1;" d="M 384.765625 129.035156 C 381.046875 130.464844 380.476562 131.324219 383.335938 131.609375 C 387.054688 131.898438 387.054688 132.183594 383.050781 135.332031 C 376.183594 140.765625 374.753906 147.632812 379.332031 154.214844 C 384.765625 161.652344 393.0625 161.9375 400.214844 154.785156 C 403.359375 151.640625 406.507812 149.921875 407.367188 151.066406 C 408.222656 151.925781 412.230469 149.636719 415.949219 146.203125 C 420.523438 141.910156 423.386719 140.765625 424.816406 142.769531 C 425.675781 144.484375 427.960938 145.058594 429.964844 143.914062 C 431.96875 142.769531 431.109375 141.339844 427.390625 140.195312 C 424.53125 139.050781 420.238281 139.335938 417.949219 141.054688 C 413.085938 145.34375 405.648438 146.203125 401.929688 143.054688 C 400.5 141.910156 395.921875 140.195312 391.917969 139.335938 C 384.765625 138.191406 384.765625 138.191406 392.777344 137.621094 C 397.066406 137.621094 400.5 136.1875 400.5 134.472656 C 400.5 133.042969 398.496094 132.753906 395.636719 133.613281 C 392.777344 134.757812 391.632812 134.1875 393.0625 132.183594 C 395.636719 127.890625 391.632812 126.175781 384.765625 129.035156 Z M 394.777344 148.777344 C 400.5 154.5 400.5 154.5 393.347656 156.214844 C 384.765625 158.21875 380.476562 155.929688 380.476562 148.492188 C 380.476562 141.339844 387.625 141.625 394.777344 148.777344 Z M 400.5 145.917969 C 400.5 147.347656 399.355469 148.777344 397.640625 148.777344 C 396.207031 148.777344 394.777344 147.347656 394.777344 145.917969 C 394.777344 144.199219 396.207031 143.054688 397.640625 143.054688 C 399.355469 143.054688 400.5 144.199219 400.5 145.917969 Z M 400.5 145.917969 "/>
<path style=" stroke:none;fill-rule:nonzero;fill:rgb(0%,0%,0%);fill-opacity:1;" d="M 442.550781 143.339844 C 439.40625 149.636719 432.539062 157.933594 426.820312 161.652344 C 421.097656 165.660156 417.378906 168.804688 418.808594 168.804688 C 427.105469 168.804688 451.132812 141.625 448.558594 134.757812 C 447.988281 133.328125 445.414062 137.332031 442.550781 143.339844 Z M 442.550781 143.339844 "/>
<path style=" stroke:none;fill-rule:nonzero;fill:rgb(0%,0%,0%);fill-opacity:1;" d="M 502.339844 142.484375 C 496.332031 155.644531 495.191406 155.644531 490.039062 142.195312 L 486.894531 133.042969 L 486.609375 141.910156 C 486.320312 146.773438 487.75 154.785156 489.46875 159.9375 C 492.613281 168.804688 492.902344 168.804688 498.050781 164.226562 C 501.195312 161.652344 503.484375 160.507812 503.484375 161.9375 C 503.199219 164.800781 490.328125 180.25 487.75 180.25 C 486.894531 180.25 486.320312 175.671875 486.320312 170.234375 C 486.320312 164.800781 484.890625 160.222656 483.175781 160.222656 C 481.457031 160.222656 480.601562 166.515625 481.171875 177.390625 C 481.457031 186.832031 482.601562 194.554688 483.460938 194.554688 C 492.328125 194.554688 507.777344 171.953125 505.488281 162.511719 C 504.628906 159.363281 505.203125 153.355469 506.917969 148.777344 C 511.78125 134.1875 508.347656 129.320312 502.339844 142.484375 Z M 502.339844 142.484375 "/>
<path style=" stroke:none;fill-rule:nonzero;fill:rgb(0%,0%,0%);fill-opacity:1;" d="M 291.792969 141.339844 C 291.792969 148.777344 302.089844 168.804688 306.097656 168.804688 C 308.097656 168.804688 314.679688 145.058594 314.679688 138.191406 C 314.679688 131.609375 310.960938 135.902344 307.242188 146.773438 L 304.09375 155.929688 L 298.085938 144.484375 C 292.078125 133.042969 292.078125 133.042969 291.792969 141.339844 Z M 291.792969 141.339844 "/>
<path style=" stroke:none;fill-rule:nonzero;fill:rgb(0%,0%,0%);fill-opacity:1;" d="M 351.867188 137.90625 C 351.867188 141.339844 358.449219 154.5 360.164062 154.214844 C 361.023438 154.214844 364.453125 153.070312 367.601562 151.640625 C 372.179688 149.636719 372.464844 149.0625 368.460938 149.0625 C 365.886719 148.777344 363.023438 147.0625 362.453125 145.058594 C 361.308594 142.769531 360.734375 143.054688 360.449219 145.917969 C 360.449219 148.777344 358.734375 147.632812 356.160156 143.054688 C 353.871094 139.050781 352.152344 136.761719 351.867188 137.90625 Z M 351.867188 137.90625 "/>
<path style=" stroke:none;fill-rule:nonzero;fill:rgb(0%,0%,0%);fill-opacity:1;" d="M 426.53125 150.496094 C 421.097656 154.214844 418.523438 157.359375 420.8125 157.359375 C 425.675781 157.359375 429.105469 154.785156 434.542969 147.917969 C 439.40625 141.625 438.546875 141.910156 426.53125 150.496094 Z M 426.53125 150.496094 "/>
<path style=" stroke:none;fill-rule:nonzero;fill:rgb(0%,0%,0%);fill-opacity:1;" d="M 343.285156 151.640625 C 343.285156 163.371094 373.894531 196.273438 379.617188 190.550781 C 380.476562 189.691406 379.902344 188.832031 378.1875 188.832031 C 372.179688 188.832031 353.871094 170.234375 348.722656 158.792969 C 345.859375 152.496094 343.285156 149.351562 343.285156 151.640625 Z M 343.285156 151.640625 "/>
<path style=" stroke:none;fill-rule:nonzero;fill:rgb(0%,0%,0%);fill-opacity:1;" d="M 450.847656 155.929688 C 448.273438 163.371094 448.847656 165.085938 452.277344 159.363281 C 453.996094 156.503906 454.855469 153.355469 453.996094 152.785156 C 453.421875 151.925781 451.992188 153.355469 450.847656 155.929688 Z M 450.847656 155.929688 "/>
<path style=" stroke:none;fill-rule:nonzero;fill:rgb(0%,0%,0%);fill-opacity:1;" d="M 268.90625 167.945312 C 268.90625 173.957031 270.335938 180.820312 271.769531 183.109375 C 274.054688 186.832031 274.628906 186.832031 274.628906 182.539062 C 274.628906 179.964844 276.917969 177.101562 279.777344 176.53125 C 283.210938 175.671875 282.636719 175.101562 277.773438 174.8125 C 272.054688 174.527344 271.195312 173.382812 272.339844 165.945312 C 273.199219 161.082031 272.625 157.359375 271.195312 157.359375 C 270.050781 157.359375 268.90625 162.226562 268.90625 167.945312 Z M 268.90625 167.945312 "/>
<path style=" stroke:none;fill-rule:nonzero;fill:rgb(0%,0%,0%);fill-opacity:1;" d="M 313.25 168.519531 L 310.960938 181.394531 L 301.234375 170.234375 C 291.222656 158.503906 289.21875 160.222656 295.796875 175.671875 C 299.230469 184.253906 309.816406 194.554688 314.964844 194.554688 C 318.113281 194.554688 320.113281 171.953125 317.539062 163.65625 C 315.535156 156.503906 315.25 156.503906 313.25 168.519531 Z M 313.25 168.519531 "/>
<path style=" stroke:none;fill-rule:nonzero;fill:rgb(0%,0%,0%);fill-opacity:1;" d="M 363.597656 158.21875 C 364.167969 158.503906 367.316406 160.792969 370.460938 163.082031 C 375.898438 167.089844 375.898438 167.089844 372.179688 162.226562 C 370.175781 159.648438 367.03125 157.359375 365.3125 157.359375 C 363.597656 157.359375 363.023438 157.648438 363.597656 158.21875 Z M 363.597656 158.21875 "/>
<path style=" stroke:none;fill-rule:nonzero;fill:rgb(0%,0%,0%);fill-opacity:1;" d="M 434.542969 167.945312 C 426.820312 176.246094 426.53125 177.101562 432.539062 172.8125 C 438.832031 168.234375 447.988281 157.359375 445.414062 157.359375 C 444.839844 157.359375 439.976562 161.9375 434.542969 167.945312 Z M 434.542969 167.945312 "/>
<path style=" stroke:none;fill-rule:nonzero;fill:rgb(0%,0%,0%);fill-opacity:1;" d="M 360.449219 167.089844 C 364.453125 171.378906 371.605469 176.816406 376.183594 179.105469 C 381.046875 181.394531 382.476562 181.679688 379.332031 179.679688 C 376.183594 177.675781 369.316406 172.238281 363.597656 167.375 L 353.296875 159.078125 Z M 360.449219 167.089844 "/>
<path style=" stroke:none;fill-rule:nonzero;fill:rgb(0%,0%,0%);fill-opacity:1;" d="M 528.085938 167.660156 C 527.230469 170.234375 527.230469 173.667969 528.375 175.386719 C 529.804688 177.675781 528.945312 177.675781 526.085938 175.386719 C 522.367188 172.523438 521.507812 172.523438 521.507812 175.957031 C 521.507812 178.246094 524.082031 180.25 527.230469 180.25 C 531.234375 180.25 532.378906 178.820312 531.234375 174.527344 C 530.375 170.808594 531.234375 168.804688 533.808594 168.804688 C 536.097656 168.804688 537.8125 167.375 537.8125 165.945312 C 537.8125 161.367188 530.089844 162.796875 528.085938 167.660156 Z M 528.085938 167.660156 "/>
<path style=" stroke:none;fill-rule:nonzero;fill:rgb(0%,0%,0%);fill-opacity:1;" d="M 385.625 170.808594 C 387.625 171.667969 390.203125 171.378906 391.058594 170.523438 C 392.203125 169.664062 390.488281 168.804688 387.339844 169.089844 C 384.195312 169.089844 383.335938 169.949219 385.625 170.808594 Z M 385.625 170.808594 "/>
<path style=" stroke:none;fill-rule:nonzero;fill:rgb(0%,0%,0%);fill-opacity:1;" d="M 408.511719 170.808594 C 410.511719 171.667969 413.085938 171.378906 413.945312 170.523438 C 415.089844 169.664062 413.375 168.804688 410.226562 169.089844 C 407.078125 169.089844 406.222656 169.949219 408.511719 170.808594 Z M 408.511719 170.808594 "/>
<path style=" stroke:none;fill-rule:nonzero;fill:rgb(0%,0%,0%);fill-opacity:1;" d="M 435.972656 177.675781 C 435.113281 179.390625 430.25 183.109375 425.101562 186.257812 C 420.238281 189.121094 417.664062 191.695312 419.09375 191.695312 C 422.242188 191.695312 443.410156 177.960938 443.410156 175.957031 C 443.410156 173.382812 437.976562 174.527344 435.972656 177.675781 Z M 435.972656 177.675781 "/>
<path style=" stroke:none;fill-rule:nonzero;fill:rgb(0%,0%,0%);fill-opacity:1;" d="M 322.117188 188.832031 C 323.261719 194.269531 325.261719 201.136719 326.695312 203.710938 C 330.125 210.863281 327.550781 210.003906 312.960938 200.277344 C 298.945312 190.835938 296.941406 192.839844 307.527344 205.714844 C 313.820312 213.152344 333.273438 222.878906 336.132812 219.734375 C 338.136719 217.730469 328.695312 187.402344 324.691406 183.398438 C 320.6875 179.390625 320.398438 179.964844 322.117188 188.832031 Z M 322.117188 188.832031 "/>
<path style=" stroke:none;fill-rule:nonzero;fill:rgb(0%,0%,0%);fill-opacity:1;" d="M 472.019531 185.972656 C 466.867188 195.414062 461.148438 220.304688 464.007812 220.304688 C 470.585938 220.304688 486.035156 211.4375 491.472656 204.570312 C 501.195312 192.265625 498.910156 190.835938 485.75 200.277344 C 479.457031 205.140625 473.734375 208.574219 473.164062 208.003906 C 472.589844 207.714844 473.734375 201.707031 475.164062 194.839844 C 478.3125 180.820312 476.882812 176.816406 472.019531 185.972656 Z M 472.019531 185.972656 "/>
<path style=" stroke:none;fill-rule:nonzero;fill:rgb(0%,0%,0%);fill-opacity:1;" d="M 397.066406 185.113281 C 399.070312 185.972656 401.644531 185.6875 402.503906 184.828125 C 403.648438 183.96875 401.929688 183.109375 398.785156 183.398438 C 395.636719 183.398438 394.777344 184.253906 397.066406 185.113281 Z M 397.066406 185.113281 "/>
<path style=" stroke:none;fill-rule:nonzero;fill:rgb(0%,0%,0%);fill-opacity:1;" d="M 524.367188 190.835938 C 524.367188 194.839844 522.9375 198.847656 521.507812 199.992188 C 520.078125 200.851562 519.21875 204.570312 519.503906 208.289062 C 519.792969 212.867188 518.648438 214.296875 516.074219 213.4375 C 511.210938 211.4375 510.636719 219.160156 515.5 222.023438 C 517.21875 223.167969 519.503906 222.59375 520.078125 220.878906 C 520.648438 218.875 522.652344 218.304688 524.082031 219.160156 C 526.085938 220.304688 526.371094 219.734375 525.226562 217.730469 C 524.082031 215.726562 524.082031 212.007812 525.226562 209.433594 C 528.085938 203.140625 528.945312 186.257812 526.65625 184.828125 C 525.800781 184.253906 524.65625 186.832031 524.367188 190.835938 Z M 524.367188 190.835938 "/>
<path style=" stroke:none;fill-rule:nonzero;fill:rgb(0%,0%,0%);fill-opacity:1;" d="M 268.90625 194.554688 C 265.1875 196.84375 265.472656 197.417969 269.765625 197.417969 C 272.339844 197.417969 274.628906 199.132812 274.628906 201.136719 C 274.628906 203.140625 277.203125 209.71875 280.0625 215.441406 C 284.640625 224.597656 284.925781 226.601562 281.496094 228.03125 C 279.207031 228.890625 277.488281 230.605469 277.488281 232.320312 C 277.488281 233.753906 282.351562 231.464844 288.359375 226.886719 C 294.082031 222.59375 299.515625 218.589844 300.089844 218.304688 C 300.945312 217.730469 299.515625 215.726562 297.515625 213.726562 C 295.226562 212.007812 294.367188 211.4375 295.511719 212.867188 C 297.800781 215.726562 292.652344 223.167969 288.359375 223.167969 C 286.644531 223.167969 286.929688 221.164062 288.933594 218.875 C 292.078125 215.15625 291.792969 214.871094 287.5 216.300781 C 284.070312 217.730469 282.925781 217.445312 284.070312 215.441406 C 285.214844 213.726562 284.355469 211.722656 282.636719 210.863281 C 279.777344 210.003906 279.777344 208.859375 282.925781 204.855469 C 285.214844 202.28125 286.070312 199.417969 284.925781 198.273438 C 284.070312 197.417969 283.210938 197.988281 283.210938 199.707031 C 283.210938 201.707031 282.066406 203.140625 280.351562 203.140625 C 278.917969 203.140625 277.488281 200.5625 277.488281 197.417969 C 277.488281 191.121094 275.488281 190.265625 268.90625 194.554688 Z M 268.90625 194.554688 "/>
<path style=" stroke:none;fill-rule:nonzero;fill:rgb(0%,0%,0%);fill-opacity:1;" d="M 385.625 193.695312 C 387.339844 194.269531 390.773438 194.269531 392.777344 193.695312 C 394.492188 192.839844 393.0625 192.265625 389.058594 192.265625 C 385.050781 192.265625 383.621094 192.839844 385.625 193.695312 Z M 385.625 193.695312 "/>
<path style=" stroke:none;fill-rule:nonzero;fill:rgb(0%,0%,0%);fill-opacity:1;" d="M 408.511719 193.695312 C 410.511719 194.554688 413.085938 194.269531 413.945312 193.410156 C 415.089844 192.554688 413.375 191.695312 410.226562 191.980469 C 407.078125 191.980469 406.222656 192.839844 408.511719 193.695312 Z M 408.511719 193.695312 "/>
<path style=" stroke:none;fill-rule:nonzero;fill:rgb(0%,0%,0%);fill-opacity:1;" d="M 337.5625 207.429688 C 339.28125 211.722656 341.855469 217.445312 343.285156 220.589844 C 347.003906 227.171875 341.570312 227.746094 325.550781 222.023438 C 312.960938 217.445312 311.816406 219.445312 322.117188 226.886719 C 330.414062 233.179688 346.71875 236.328125 352.726562 232.894531 C 356.445312 230.605469 356.160156 228.890625 351.296875 218.015625 C 344.429688 203.710938 332.699219 194.839844 337.5625 207.429688 Z M 337.5625 207.429688 "/>
<path style=" stroke:none;fill-rule:nonzero;fill:rgb(0%,0%,0%);fill-opacity:1;" d="M 456.570312 205.714844 C 453.996094 208.574219 449.417969 215.726562 446.558594 221.164062 C 440.835938 232.609375 442.265625 234.609375 457.140625 234.609375 C 464.578125 234.609375 485.464844 224.023438 482.886719 221.734375 C 482.316406 221.164062 476.882812 221.734375 470.585938 223.167969 C 452.851562 227.457031 452.277344 226.886719 458.574219 214.582031 C 464.867188 201.421875 464.007812 197.417969 456.570312 205.714844 Z M 456.570312 205.714844 "/>
<path style=" stroke:none;fill-rule:nonzero;fill:rgb(0%,0%,0%);fill-opacity:1;" d="M 499.480469 219.445312 C 498.621094 220.589844 500.625 224.3125 504.058594 228.03125 C 509.492188 234.039062 509.777344 234.609375 505.203125 234.609375 C 501.769531 234.609375 500.625 236.042969 501.484375 238.617188 C 502.339844 240.90625 501.769531 243.195312 500.339844 243.765625 C 498.621094 244.339844 500.339844 247.199219 504.058594 250.347656 C 507.777344 253.496094 509.207031 254.066406 507.203125 252.0625 C 504.628906 248.917969 504.917969 246.628906 508.347656 241.476562 C 511.78125 236.042969 512.066406 233.753906 509.207031 230.320312 C 504.34375 224.3125 508.921875 224.882812 515.785156 230.890625 C 518.933594 233.753906 520.648438 234.609375 519.503906 232.609375 C 516.359375 227.171875 501.484375 217.445312 499.480469 219.445312 Z M 499.480469 219.445312 "/>
<path style=" stroke:none;fill-rule:nonzero;fill:rgb(0%,0%,0%);fill-opacity:1;" d="M 303.234375 230.605469 C 296.65625 238.332031 288.644531 241.476562 285.5 237.1875 C 283.496094 234.039062 283.210938 234.609375 283.78125 238.902344 C 284.355469 242.335938 286.929688 244.339844 290.078125 244.054688 C 292.9375 244.054688 299.230469 248.058594 303.808594 253.496094 C 311.816406 262.648438 312.675781 262.9375 316.394531 258.359375 C 318.398438 255.496094 320.398438 254.640625 320.398438 256.355469 C 320.398438 258.070312 317.824219 262.9375 314.390625 267.226562 C 311.246094 271.234375 309.816406 274.667969 311.246094 274.667969 C 312.960938 274.667969 314.964844 272.664062 315.824219 269.804688 C 317.539062 265.511719 318.113281 265.796875 321.542969 270.375 C 324.117188 274.09375 325.835938 274.667969 327.265625 272.378906 C 329.839844 268.085938 326.695312 262.648438 322.976562 264.652344 C 318.96875 267.226562 319.828125 263.792969 325.261719 255.210938 C 330.125 247.773438 330.125 247.773438 325.261719 251.492188 C 320.398438 255.210938 318.398438 252.636719 322.6875 247.199219 C 323.832031 245.769531 321.832031 247.773438 318.398438 251.777344 C 312.675781 258.070312 310.386719 257.785156 311.53125 250.917969 C 311.816406 249.488281 310.671875 249.203125 308.957031 250.347656 C 307.527344 251.207031 306.097656 249.488281 306.097656 246.339844 C 306.097656 242.621094 304.09375 240.332031 301.234375 240.332031 C 297.226562 240.332031 297.800781 239.1875 303.234375 233.179688 C 306.953125 229.175781 309.242188 226.027344 308.386719 226.027344 C 307.527344 226.027344 305.238281 228.03125 303.234375 230.605469 Z M 303.234375 230.605469 "/>
<path style=" stroke:none;fill-rule:nonzero;fill:rgb(0%,0%,0%);fill-opacity:1;" d="M 353.871094 237.1875 C 343.285156 239.761719 335.277344 242.910156 336.421875 244.054688 C 340.140625 247.484375 365.027344 246.339844 375.613281 241.765625 C 392.203125 234.898438 397.640625 236.328125 385.339844 244.625 C 379.617188 248.628906 374.753906 253.496094 374.753906 254.925781 C 374.753906 256.640625 379.332031 254.066406 384.765625 249.203125 C 397.640625 238.042969 402.214844 238.042969 415.660156 249.203125 C 421.382812 254.066406 426.246094 256.640625 426.246094 255.210938 C 426.246094 253.78125 421.382812 249.203125 415.660156 245.195312 C 403.648438 236.613281 408.222656 234.898438 424.242188 241.765625 C 435.402344 246.339844 456.855469 247.484375 462.863281 243.765625 C 466.582031 241.191406 432.824219 233.179688 421.957031 233.753906 C 418.808594 233.753906 411.65625 234.324219 406.222656 234.609375 C 400.785156 235.183594 391.058594 234.898438 384.765625 234.039062 C 378.1875 232.894531 365.027344 234.324219 353.871094 237.1875 Z M 353.871094 237.1875 "/>
<path style=" stroke:none;fill-rule:nonzero;fill:rgb(0%,0%,0%);fill-opacity:1;" d="M 470.585938 249.773438 C 467.441406 251.777344 464.578125 253.496094 464.007812 253.78125 C 463.4375 254.066406 464.292969 256.929688 466.296875 260.074219 C 468.011719 263.507812 470.585938 265.511719 472.019531 264.652344 C 473.734375 263.792969 474.019531 264.9375 473.164062 267.226562 C 472.304688 269.804688 469.730469 270.660156 467.15625 269.804688 C 464.292969 268.660156 463.148438 269.230469 464.578125 271.234375 C 465.4375 272.949219 465.152344 274.953125 463.722656 275.8125 C 462.292969 276.667969 459.714844 273.523438 457.714844 268.945312 C 455.710938 264.082031 452.851562 259.503906 451.421875 258.644531 C 449.992188 257.5 450.5625 260.933594 453.136719 265.511719 C 458.859375 276.667969 458.859375 280.675781 453.421875 278.671875 C 447.128906 276.097656 448.273438 282.390625 455.140625 289.257812 C 460.574219 294.695312 460.859375 294.695312 459.429688 289.832031 C 458.285156 286.109375 460.003906 283.25 465.722656 279.53125 C 482.03125 269.515625 481.746094 270.375 476.308594 262.078125 C 472.304688 256.070312 472.019531 253.78125 474.878906 250.347656 C 479.167969 245.195312 478.3125 245.195312 470.585938 249.773438 Z M 471.445312 261.792969 C 470.585938 262.648438 468.871094 261.21875 468.011719 258.359375 C 466.296875 254.351562 466.582031 254.066406 469.441406 256.640625 C 471.445312 258.644531 472.304688 260.933594 471.445312 261.792969 Z M 471.445312 261.792969 "/>
<path style=" stroke:none;fill-rule:nonzero;fill:rgb(0%,0%,0%);fill-opacity:1;" d="M 493.1875 253.207031 C 491.757812 256.355469 490.328125 256.929688 487.75 254.640625 C 485.175781 252.351562 483.746094 252.921875 482.316406 256.355469 C 479.167969 264.367188 484.605469 266.65625 491.472656 260.359375 C 494.902344 256.929688 497.765625 253.207031 497.765625 251.777344 C 497.765625 247.484375 494.902344 248.34375 493.1875 253.207031 Z M 493.1875 253.207031 "/>
<path style=" stroke:none;fill-rule:nonzero;fill:rgb(0%,0%,0%);fill-opacity:1;" d="M 336.421875 265.226562 C 330.984375 276.667969 332.988281 280.675781 345.574219 284.679688 C 350.152344 286.109375 351.867188 285.253906 351.867188 281.820312 C 351.867188 279.246094 350.722656 277.8125 349.007812 278.957031 C 347.578125 279.816406 343.859375 278.957031 340.710938 276.957031 C 335.5625 273.808594 335.5625 272.949219 339.28125 265.226562 C 341.855469 260.648438 343.285156 256.355469 342.714844 255.785156 C 341.855469 255.210938 339.28125 259.503906 336.421875 265.226562 Z M 336.421875 265.226562 "/>
<path style=" stroke:none;fill-rule:nonzero;fill:rgb(0%,0%,0%);fill-opacity:1;" d="M 369.605469 274.667969 C 369.605469 278.671875 370.175781 280.101562 371.035156 278.101562 C 371.605469 276.382812 371.605469 272.949219 371.035156 270.945312 C 370.175781 269.230469 369.605469 270.660156 369.605469 274.667969 Z M 369.605469 274.667969 "/>
<path style=" stroke:none;fill-rule:nonzero;fill:rgb(0%,0%,0%);fill-opacity:1;" d="M 415.375 278.957031 C 415.375 283.535156 415.949219 285.253906 416.804688 282.390625 C 417.378906 279.816406 417.378906 275.8125 416.804688 273.808594 C 415.949219 272.089844 415.375 274.09375 415.375 278.957031 Z M 415.375 278.957031 "/>
<path style=" stroke:none;fill-rule:nonzero;fill:rgb(0%,0%,0%);fill-opacity:1;" d="M 396.78125 279.816406 C 390.488281 286.683594 390.773438 288.398438 398.496094 289.832031 C 401.929688 290.6875 399.355469 290.976562 392.488281 290.976562 C 385.625 290.6875 379.332031 289.542969 378.757812 288.398438 C 376.183594 284.679688 371.894531 285.824219 371.894531 290.402344 C 371.894531 292.691406 373.039062 294.695312 374.46875 294.695312 C 375.898438 294.695312 376.46875 297.554688 375.898438 300.988281 C 374.753906 306.996094 374.753906 306.996094 377.042969 301.847656 C 379.332031 296.695312 381.90625 296.125 398.785156 296.984375 C 411.085938 297.839844 417.664062 296.984375 417.664062 294.980469 C 417.664062 293.265625 415.089844 291.832031 411.941406 291.832031 C 408.796875 291.832031 406.222656 290.402344 406.222656 288.972656 C 406.222656 287.253906 403.359375 286.109375 399.929688 286.109375 C 394.207031 286.109375 393.921875 285.824219 399.070312 280.390625 C 401.929688 277.242188 403.648438 274.667969 402.789062 274.667969 C 401.929688 274.667969 399.355469 276.957031 396.78125 279.816406 Z M 396.78125 279.816406 "/>
<path style=" stroke:none;fill-rule:nonzero;fill:rgb(0%,0%,0%);fill-opacity:1;" d="M 421.097656 281.820312 C 421.097656 286.398438 421.667969 288.113281 422.527344 285.253906 C 423.101562 282.679688 423.101562 278.671875 422.527344 276.667969 C 421.667969 274.953125 421.097656 276.957031 421.097656 281.820312 Z M 421.097656 281.820312 "/>
<path style=" stroke:none;fill-rule:nonzero;fill:rgb(0%,0%,0%);fill-opacity:1;" d="M 356.445312 282.679688 C 355.585938 284.109375 356.160156 288.972656 357.589844 293.550781 C 358.734375 298.128906 360.164062 299.558594 360.164062 296.695312 C 360.449219 294.121094 362.453125 291.832031 364.742188 291.832031 C 367.03125 291.832031 369.03125 289.542969 369.03125 286.96875 C 369.03125 284.394531 368.175781 283.25 367.03125 284.109375 C 366.171875 285.253906 363.597656 284.679688 361.59375 282.964844 C 359.589844 281.535156 357.304688 281.246094 356.445312 282.679688 Z M 356.445312 282.679688 "/>
<path style=" stroke:none;fill-rule:nonzero;fill:rgb(0%,0%,0%);fill-opacity:1;" d="M 437.6875 288.113281 C 437.6875 292.40625 439.121094 298.128906 440.835938 300.417969 C 443.410156 303.851562 443.695312 303.851562 442.265625 299.273438 C 441.121094 296.410156 441.695312 292.40625 443.125 290.6875 C 444.839844 288.6875 444.269531 286.109375 441.695312 283.820312 C 438.261719 280.675781 437.6875 281.535156 437.6875 288.113281 Z M 437.6875 288.113281 "/>
<path style=" stroke:none;fill-rule:nonzero;fill:rgb(0%,0%,0%);fill-opacity:1;" d="M 424.816406 294.980469 C 423.671875 299.84375 423.671875 304.421875 424.53125 305.28125 C 425.386719 306.425781 426.246094 304.421875 426.246094 300.988281 C 426.246094 297.554688 427.675781 294.695312 429.105469 294.695312 C 430.824219 294.695312 431.96875 296.695312 431.96875 299.558594 C 431.96875 302.132812 432.824219 303.5625 433.683594 302.417969 C 436.257812 299.84375 432.539062 286.109375 429.394531 286.109375 C 427.960938 286.109375 425.960938 290.117188 424.816406 294.980469 Z M 424.816406 294.980469 "/>
<path style=" stroke:none;fill-rule:nonzero;fill:rgb(0%,0%,0%);fill-opacity:1;" d="M 74.378906 371.085938 C 69.230469 389.683594 64.367188 406.5625 63.507812 408.28125 C 62.648438 410.855469 65.222656 412 71.230469 412 C 78.957031 412 80.386719 410.855469 82.101562 403.417969 C 83.53125 395.976562 84.964844 394.832031 92.972656 394.832031 C 100.984375 394.832031 102.984375 396.265625 105.558594 403.417969 C 107.847656 410.570312 110.136719 412 117.289062 412 C 125.011719 412 125.871094 411.140625 124.441406 405.417969 C 123.582031 401.984375 119.003906 385.679688 114.714844 369.082031 L 106.703125 339.042969 L 95.546875 338.183594 L 84.105469 337.324219 Z M 97.265625 361.644531 C 97.265625 363.648438 98.121094 369.65625 98.980469 374.519531 C 100.695312 382.246094 100.125 383.390625 94.402344 383.390625 C 88.683594 383.390625 88.109375 382.246094 89.828125 374.519531 C 90.683594 369.65625 91.542969 363.648438 91.542969 361.644531 C 91.542969 359.355469 92.972656 357.640625 94.402344 357.640625 C 96.121094 357.640625 97.265625 359.355469 97.265625 361.644531 Z M 97.265625 361.644531 "/>
<path style=" stroke:none;fill-rule:nonzero;fill:rgb(0%,0%,0%);fill-opacity:1;" d="M 231.71875 375.089844 L 231.71875 412.570312 L 241.160156 411.140625 C 246.019531 410.570312 252.601562 411.140625 255.460938 412.570312 C 267.476562 418.867188 280.351562 404.5625 280.351562 384.820312 C 280.351562 366.222656 269.191406 355.636719 255.460938 360.785156 C 249.167969 363.074219 248.882812 362.503906 248.882812 350.484375 C 248.882812 338.183594 248.597656 337.609375 240.300781 337.609375 L 231.71875 337.609375 Z M 262.613281 385.105469 C 263.472656 397.121094 258.035156 405.707031 251.742188 401.984375 C 248.597656 399.984375 247.738281 376.808594 250.882812 373.660156 C 256.035156 368.511719 261.753906 373.945312 262.613281 385.105469 Z M 262.613281 385.105469 "/>
<path style=" stroke:none;fill-rule:nonzero;fill:rgb(0%,0%,0%);fill-opacity:1;" d="M 326.121094 361.070312 C 322.6875 374.234375 317.824219 390.253906 315.824219 397.121094 C 310.671875 412.859375 310.386719 412 320.113281 412 C 326.695312 412 328.980469 410.285156 331.558594 403.417969 C 333.84375 396.265625 336.132812 394.832031 343.285156 394.832031 C 350.722656 394.832031 352.152344 395.976562 353.871094 403.417969 C 355.300781 410.855469 356.730469 412 365.3125 412 C 373.324219 412 374.753906 411.140625 373.609375 406.851562 C 373.039062 404.273438 369.605469 391.6875 366.171875 379.097656 C 354.730469 335.894531 355.585938 337.609375 343.570312 337.609375 L 332.699219 337.609375 Z M 347.578125 372.515625 C 349.578125 382.53125 349.007812 383.390625 343.285156 383.390625 C 337.5625 383.390625 336.992188 382.246094 338.707031 374.519531 C 339.566406 369.65625 340.425781 362.789062 340.425781 359.355469 C 340.710938 350.773438 345.003906 358.785156 347.578125 372.515625 Z M 347.578125 372.515625 "/>
<path style=" stroke:none;fill-rule:nonzero;fill:rgb(0%,0%,0%);fill-opacity:1;" d="M 523.511719 350.484375 C 523.511719 362.503906 523.226562 363.074219 517.21875 360.785156 C 508.921875 357.640625 499.195312 361.359375 495.191406 368.796875 C 490.613281 376.808594 491.472656 401.128906 496.332031 407.421875 C 498.910156 410.855469 503.773438 412.570312 509.777344 412.570312 C 514.929688 412.285156 524.082031 412.285156 530.089844 412.285156 L 540.675781 412 L 540.675781 337.609375 L 532.09375 337.609375 C 523.796875 337.609375 523.511719 338.183594 523.511719 350.484375 Z M 522.9375 386.535156 C 523.511719 396.835938 522.652344 400.269531 519.21875 401.699219 C 511.78125 404.5625 509.207031 401.128906 509.207031 387.964844 C 509.207031 374.519531 510.921875 371.371094 517.789062 372.515625 C 520.648438 373.089844 522.367188 377.378906 522.9375 386.535156 Z M 522.9375 386.535156 "/>
<path style=" stroke:none;fill-rule:nonzero;fill:rgb(0%,0%,0%);fill-opacity:1;" d="M 188.808594 359.640625 C 183.085938 361.644531 174.503906 369.371094 174.503906 372.515625 C 174.503906 375.949219 189.953125 375.378906 193.671875 371.660156 C 197.390625 367.9375 203.96875 370.800781 202.539062 375.378906 C 201.964844 377.09375 195.671875 380.527344 188.808594 383.101562 C 179.367188 386.535156 175.363281 389.96875 173.074219 395.976562 C 170.785156 402.84375 171.355469 404.847656 177.363281 409.710938 C 182.226562 413.714844 186.519531 414.859375 191.667969 413.429688 C 195.671875 412.285156 203.683594 411.714844 209.691406 411.714844 L 220.273438 412 L 220.273438 391.113281 C 220.273438 378.8125 218.84375 368.226562 216.84375 365.648438 C 212.835938 360.785156 195.671875 357.066406 188.808594 359.640625 Z M 203.109375 394.832031 C 203.109375 401.984375 195.386719 405.417969 190.808594 400.839844 C 188.234375 397.980469 188.519531 396.265625 192.8125 393.117188 C 200.535156 387.679688 203.109375 387.964844 203.109375 394.832031 Z M 203.109375 394.832031 "/>
<path style=" stroke:none;fill-rule:nonzero;fill:rgb(0%,0%,0%);fill-opacity:1;" d="M 396.207031 360.5 C 378.757812 363.359375 372.75 393.6875 386.484375 407.707031 C 394.492188 416.003906 413.660156 415.433594 420.8125 406.5625 C 423.671875 402.84375 426.246094 398.839844 426.246094 397.410156 C 426.246094 392.832031 413.945312 394.546875 408.222656 399.695312 C 403.074219 404.5625 402.503906 404.5625 398.496094 399.125 C 395.921875 395.40625 394.777344 389.96875 395.921875 383.675781 C 397.925781 370.226562 401.929688 366.792969 408.511719 372.804688 C 413.945312 377.667969 426.246094 379.382812 426.246094 375.378906 C 426.246094 374.234375 424.242188 370.515625 421.957031 367.082031 C 417.378906 360.5 408.796875 358.210938 396.207031 360.5 Z M 396.207031 360.5 "/>
<path style=" stroke:none;fill-rule:nonzero;fill:rgb(0%,0%,0%);fill-opacity:1;" d="M 450.847656 360.214844 C 446.269531 361.070312 440.835938 364.792969 438.261719 368.226562 C 434.257812 374.519531 434.542969 374.804688 441.695312 374.804688 C 445.984375 374.804688 452.277344 373.375 455.425781 371.660156 C 460.003906 369.371094 461.71875 369.371094 463.722656 372.230469 C 466.867188 377.667969 464.867188 379.667969 453.996094 381.671875 C 443.695312 383.675781 431.96875 392.832031 431.96875 398.554688 C 431.96875 406.5625 439.691406 412.859375 449.417969 412.570312 C 454.855469 412.285156 464.007812 412.285156 470.015625 412.285156 L 480.601562 412 L 480.601562 389.398438 C 480.601562 374.804688 479.457031 365.9375 477.167969 364.21875 C 471.730469 359.929688 460.289062 358.210938 450.847656 360.214844 Z M 465.152344 393.976562 C 464.007812 401.414062 455.425781 405.707031 451.992188 400.554688 C 449.992188 397.410156 450.5625 395.121094 453.996094 392.542969 C 460.859375 387.679688 466.011719 388.253906 465.152344 393.976562 Z M 465.152344 393.976562 "/>
<path style=" stroke:none;fill-rule:nonzero;fill:rgb(0%,0%,0%);fill-opacity:1;" d="M 564.417969 360.5 C 553.835938 364.792969 548.398438 376.234375 550.117188 390.828125 C 551.832031 407.996094 557.554688 413.429688 573.859375 413.429688 C 584.445312 413.429688 588.164062 412 592.738281 406.277344 L 598.460938 399.125 L 591.023438 398.265625 C 586.734375 397.695312 581.296875 398.839844 579.007812 400.839844 C 575.863281 403.417969 574.144531 403.417969 570.710938 400.554688 C 561.558594 393.117188 565.847656 389.109375 582.441406 389.109375 L 598.746094 389.109375 L 596.746094 379.957031 C 593.597656 364.21875 578.4375 355.0625 564.417969 360.5 Z M 580.152344 375.664062 C 581.011719 379.097656 579.007812 380.527344 573.859375 380.527344 C 565.847656 380.527344 564.417969 377.953125 569.855469 372.515625 C 574.144531 368.226562 579.007812 369.65625 580.152344 375.664062 Z M 580.152344 375.664062 "/>
<path style=" stroke:none;fill-rule:nonzero;fill:rgb(0%,0%,0%);fill-opacity:1;" d="M 636.507812 359.929688 C 633.363281 360.5 629.070312 362.503906 627.355469 363.933594 C 624.78125 365.9375 623.636719 365.9375 623.636719 363.648438 C 623.636719 361.929688 619.917969 360.5 615.054688 360.5 L 606.472656 360.5 L 606.472656 412 L 615.054688 412 C 623.351562 412 623.351562 412 624.207031 392.542969 C 625.066406 375.664062 625.636719 373.375 630.789062 373.375 C 635.9375 373.375 636.507812 375.664062 637.367188 392.542969 C 638.226562 411.714844 638.226562 412 645.949219 412 C 653.671875 412 653.960938 411.714844 653.101562 395.40625 C 651.957031 377.378906 654.816406 370.226562 661.96875 372.804688 C 665.402344 374.234375 666.546875 378.8125 666.546875 393.402344 L 666.546875 412 L 683.710938 412 L 683.710938 391.113281 C 683.710938 378.238281 682.28125 368.226562 679.992188 365.078125 C 675.699219 359.355469 662.253906 357.925781 657.390625 362.789062 C 655.105469 365.078125 652.527344 364.792969 648.238281 362.214844 C 645.089844 360.214844 639.65625 359.070312 636.507812 359.929688 Z M 636.507812 359.929688 "/>
<path style=" stroke:none;fill-rule:nonzero;fill:rgb(0%,0%,0%);fill-opacity:1;" d="M 131.59375 386.25 L 131.59375 412 L 140.175781 412 C 148.757812 412 148.757812 411.714844 148.757812 396.835938 C 148.757812 380.242188 152.191406 374.804688 162.203125 374.804688 C 167.351562 374.804688 168.78125 373.089844 168.78125 367.652344 C 168.78125 359.355469 160.484375 357.925781 153.335938 365.078125 C 149.042969 369.082031 148.757812 369.082031 148.757812 365.078125 C 148.757812 361.929688 146.183594 360.5 140.175781 360.5 L 131.59375 360.5 Z M 131.59375 386.25 "/>
<path style=" stroke:none;fill-rule:nonzero;fill:rgb(0%,0%,0%);fill-opacity:1;" d="M 696.582031 387.394531 C 706.597656 415.148438 706.308594 420.582031 694.582031 420.582031 C 687.714844 420.582031 687.714844 432.027344 694.582031 432.3125 C 713.175781 433.457031 715.179688 431.167969 728.050781 391.972656 L 737.777344 361.929688 L 730.339844 361.070312 C 721.1875 359.929688 721.1875 359.929688 716.894531 378.238281 L 713.460938 393.402344 L 709.457031 376.808594 C 705.738281 361.070312 705.453125 360.5 696.296875 360.5 L 686.859375 360.5 Z M 696.582031 387.394531 "/>
<path style=" stroke:none;fill-rule:nonzero;fill:rgb(0%,0%,0%);fill-opacity:1;" d="M 63.507812 440.609375 C 63.507812 447.765625 64.078125 451.195312 64.9375 448.335938 C 65.511719 445.761719 67.800781 443.472656 69.515625 443.472656 C 72.089844 443.472656 72.089844 442.898438 69.800781 441.183594 C 67.800781 440.039062 65.796875 436.605469 64.9375 433.457031 C 64.367188 430.3125 63.507812 433.457031 63.507812 440.609375 Z M 63.507812 440.609375 "/>
<path style=" stroke:none;fill-rule:nonzero;fill:rgb(0%,0%,0%);fill-opacity:1;" d="M 112.425781 434.03125 C 111.28125 436.605469 111.855469 439.179688 113.285156 439.753906 C 120.148438 442.042969 123.582031 446.046875 121.582031 448.910156 C 120.148438 451.484375 118.71875 451.484375 115.574219 448.910156 C 113 446.90625 111.566406 446.621094 111.566406 448.621094 C 111.566406 452.339844 117.574219 454.628906 122.4375 452.628906 C 127.875 450.625 126.445312 444.042969 120.148438 440.609375 C 113.285156 436.890625 115.285156 431.457031 122.152344 434.03125 C 125.300781 435.175781 126.15625 434.890625 124.726562 432.601562 C 121.582031 427.449219 114.429688 428.308594 112.425781 434.03125 Z M 112.425781 434.03125 "/>
<path style=" stroke:none;fill-rule:nonzero;fill:rgb(0%,0%,0%);fill-opacity:1;" d="M 231.144531 432.601562 C 232.574219 434.601562 234.578125 440.039062 235.4375 444.902344 C 236.582031 452.914062 236.582031 452.914062 237.152344 443.1875 C 237.4375 435.746094 236.007812 432.027344 232.863281 430.882812 C 229.144531 429.453125 228.855469 430.023438 231.144531 432.601562 Z M 231.144531 432.601562 "/>
<path style=" stroke:none;fill-rule:nonzero;fill:rgb(0%,0%,0%);fill-opacity:1;" d="M 560.128906 431.167969 C 561.84375 431.742188 563.847656 437.179688 563.847656 442.898438 C 564.417969 452.628906 564.417969 452.914062 565.5625 444.902344 C 566.421875 440.039062 568.136719 434.890625 569.28125 433.457031 C 571 431.457031 568.996094 430.3125 564.132812 430.023438 C 559.839844 429.738281 558.125 430.3125 560.128906 431.167969 Z M 560.128906 431.167969 "/>
<path style=" stroke:none;fill-rule:nonzero;fill:rgb(0%,0%,0%);fill-opacity:1;" d="M 272.625 442.613281 C 272.625 448.621094 273.199219 450.625 273.769531 446.90625 C 274.34375 443.472656 277.203125 440.609375 279.777344 440.324219 C 283.78125 440.324219 283.78125 439.753906 280.351562 438.609375 C 278.0625 437.75 275.199219 435.746094 274.34375 434.316406 C 273.484375 432.886719 272.625 436.605469 272.625 442.613281 Z M 272.625 442.613281 "/>
<path style=" stroke:none;fill-rule:nonzero;fill:rgb(0%,0%,0%);fill-opacity:1;" d="M 321.257812 442.042969 C 321.257812 448.335938 321.832031 450.625 322.402344 446.90625 C 322.976562 443.472656 322.976562 438.320312 322.402344 435.460938 C 321.542969 432.886719 320.972656 435.746094 321.257812 442.042969 Z M 321.257812 442.042969 "/>
<path style=" stroke:none;fill-rule:nonzero;fill:rgb(0%,0%,0%);fill-opacity:1;" d="M 420.523438 434.890625 C 420.523438 436.320312 418.523438 437.75 416.234375 437.75 C 413.375 437.75 411.941406 440.324219 412.230469 445.476562 C 412.800781 452.339844 412.800781 452.628906 413.945312 446.90625 C 414.515625 443.472656 416.234375 440.609375 417.664062 440.609375 C 419.09375 440.609375 420.8125 443.472656 421.382812 446.90625 C 422.242188 450.910156 422.8125 449.480469 423.101562 442.613281 C 423.101562 436.890625 422.8125 432.027344 421.957031 432.027344 C 421.097656 432.027344 420.523438 433.171875 420.523438 434.890625 Z M 420.523438 434.890625 "/>
<path style=" stroke:none;fill-rule:nonzero;fill:rgb(0%,0%,0%);fill-opacity:1;" d="M 437.6875 442.613281 C 437.6875 454.917969 439.121094 454.34375 441.410156 441.183594 C 442.550781 436.035156 441.980469 432.027344 440.550781 432.027344 C 438.832031 432.027344 437.6875 436.605469 437.6875 442.613281 Z M 437.6875 442.613281 "/>
<path style=" stroke:none;fill-rule:nonzero;fill:rgb(0%,0%,0%);fill-opacity:1;" d="M 449.132812 436.320312 C 449.132812 438.894531 450.847656 439.753906 453.421875 438.894531 C 455.710938 437.75 456.855469 436.035156 455.996094 434.601562 C 453.710938 430.597656 449.132812 431.742188 449.132812 436.320312 Z M 449.132812 436.320312 "/>
<path style=" stroke:none;fill-rule:nonzero;fill:rgb(0%,0%,0%);fill-opacity:1;" d="M 494.902344 441.183594 C 494.902344 447.191406 495.476562 452.054688 496.046875 452.054688 C 498.621094 452.054688 499.480469 437.75 497.476562 434.316406 C 495.761719 432.027344 494.902344 434.601562 494.902344 441.183594 Z M 494.902344 441.183594 "/>
<path style=" stroke:none;fill-rule:nonzero;fill:rgb(0%,0%,0%);fill-opacity:1;" d="M 672.269531 440.324219 C 672.269531 452.339844 676.558594 453.484375 677.132812 441.753906 C 677.417969 436.320312 676.273438 432.027344 674.84375 432.027344 C 673.414062 432.027344 672.269531 435.746094 672.269531 440.324219 Z M 672.269531 440.324219 "/>
<path style=" stroke:none;fill-rule:nonzero;fill:rgb(0%,0%,0%);fill-opacity:1;" d="M 79.242188 439.753906 C 76.382812 442.613281 76.953125 452.054688 79.8125 452.054688 C 81.246094 452.054688 81.816406 449.195312 80.671875 445.761719 C 79.527344 440.898438 80.101562 440.039062 83.820312 441.46875 C 86.679688 442.613281 88.683594 442.042969 88.683594 440.609375 C 88.683594 437.464844 82.101562 436.890625 79.242188 439.753906 Z M 79.242188 439.753906 "/>
<path style=" stroke:none;fill-rule:nonzero;fill:rgb(0%,0%,0%);fill-opacity:1;" d="M 94.402344 444.902344 C 94.402344 448.910156 94.976562 452.054688 95.546875 452.054688 C 96.121094 452.054688 97.265625 448.910156 97.835938 444.902344 C 98.695312 440.898438 98.121094 437.75 96.976562 437.75 C 95.546875 437.75 94.402344 440.898438 94.402344 444.902344 Z M 94.402344 444.902344 "/>
<path style=" stroke:none;fill-rule:nonzero;fill:rgb(0%,0%,0%);fill-opacity:1;" d="M 129.589844 442.328125 C 128.730469 444.617188 129.304688 448.050781 131.019531 449.765625 C 133.308594 452.054688 133.59375 451.195312 132.738281 446.90625 C 131.59375 442.898438 132.738281 440.609375 136.457031 439.753906 C 141.320312 438.609375 141.320312 438.320312 136.457031 438.035156 C 133.59375 438.035156 130.734375 439.753906 129.589844 442.328125 Z M 129.589844 442.328125 "/>
<path style=" stroke:none;fill-rule:nonzero;fill:rgb(0%,0%,0%);fill-opacity:1;" d="M 143.609375 444.902344 C 143.609375 449.480469 144.179688 451.195312 145.039062 448.335938 C 145.609375 445.761719 145.609375 441.753906 145.039062 439.753906 C 144.179688 438.035156 143.609375 440.039062 143.609375 444.902344 Z M 143.609375 444.902344 "/>
<path style=" stroke:none;fill-rule:nonzero;fill:rgb(0%,0%,0%);fill-opacity:1;" d="M 151.046875 441.183594 C 149.042969 446.046875 151.332031 452.054688 154.765625 452.054688 C 156.480469 452.054688 156.765625 450.625 155.910156 449.195312 C 155.050781 447.476562 156.195312 446.332031 158.769531 446.332031 C 164.492188 446.332031 162.773438 439.464844 156.765625 438.320312 C 154.191406 437.75 151.617188 439.179688 151.046875 441.183594 Z M 151.046875 441.183594 "/>
<path style=" stroke:none;fill-rule:nonzero;fill:rgb(0%,0%,0%);fill-opacity:1;" d="M 166.207031 445.476562 C 166.78125 452.339844 166.78125 452.628906 167.925781 446.90625 C 168.496094 443.472656 170.210938 440.609375 171.644531 440.609375 C 173.074219 440.609375 174.789062 443.472656 175.363281 446.90625 C 176.507812 452.628906 176.507812 452.339844 177.078125 445.476562 C 177.363281 439.464844 175.933594 437.75 171.644531 437.75 C 167.351562 437.75 165.921875 439.464844 166.207031 445.476562 Z M 166.207031 445.476562 "/>
<path style=" stroke:none;fill-rule:nonzero;fill:rgb(0%,0%,0%);fill-opacity:1;" d="M 185.375 439.753906 C 187.375 440.609375 189.953125 440.324219 190.808594 439.464844 C 191.953125 438.609375 190.238281 437.75 187.089844 438.035156 C 183.945312 438.035156 183.085938 438.894531 185.375 439.753906 Z M 185.375 439.753906 "/>
<path style=" stroke:none;fill-rule:nonzero;fill:rgb(0%,0%,0%);fill-opacity:1;" d="M 197.675781 445.476562 C 197.675781 449.765625 198.535156 451.769531 199.390625 449.765625 C 199.964844 448.050781 202.539062 446.332031 205.113281 446.332031 C 210.835938 446.332031 208.261719 439.464844 202.253906 438.320312 C 198.535156 437.464844 197.390625 439.464844 197.675781 445.476562 Z M 197.675781 445.476562 "/>
<path style=" stroke:none;fill-rule:nonzero;fill:rgb(0%,0%,0%);fill-opacity:1;" d="M 245.164062 439.753906 C 242.300781 442.613281 242.875 452.054688 245.734375 452.054688 C 247.164062 452.054688 247.738281 449.480469 246.878906 446.332031 C 246.019531 442.898438 246.878906 440.609375 248.597656 440.609375 C 250.597656 440.609375 251.171875 441.753906 250.3125 443.472656 C 249.453125 444.902344 250.027344 446.332031 251.457031 446.332031 C 253.171875 446.332031 254.605469 444.332031 254.605469 442.042969 C 254.605469 437.75 248.597656 436.035156 245.164062 439.753906 Z M 245.164062 439.753906 "/>
<path style=" stroke:none;fill-rule:nonzero;fill:rgb(0%,0%,0%);fill-opacity:1;" d="M 259.464844 439.753906 C 256.605469 442.613281 257.179688 452.054688 260.039062 452.054688 C 261.46875 452.054688 262.042969 449.480469 261.183594 446.621094 C 260.324219 442.898438 261.46875 440.609375 265.1875 439.753906 C 268.90625 438.894531 269.191406 438.320312 265.761719 438.035156 C 263.1875 438.035156 260.324219 438.609375 259.464844 439.753906 Z M 259.464844 439.753906 "/>
<path style=" stroke:none;fill-rule:nonzero;fill:rgb(0%,0%,0%);fill-opacity:1;" d="M 289.21875 445.476562 C 289.789062 452.339844 289.789062 452.628906 290.933594 446.90625 C 291.507812 443.472656 293.222656 440.609375 294.652344 440.609375 C 296.082031 440.609375 297.800781 443.472656 298.371094 446.90625 C 299.515625 452.628906 299.515625 452.339844 300.089844 445.476562 C 300.375 439.464844 298.945312 437.75 294.652344 437.75 C 290.363281 437.75 288.933594 439.464844 289.21875 445.476562 Z M 289.21875 445.476562 "/>
<path style=" stroke:none;fill-rule:nonzero;fill:rgb(0%,0%,0%);fill-opacity:1;" d="M 304.09375 442.328125 C 303.234375 444.617188 303.808594 448.050781 305.523438 449.765625 C 307.8125 452.054688 308.097656 451.195312 306.953125 446.621094 C 305.808594 442.328125 306.667969 440.609375 310.386719 440.609375 C 314.105469 440.609375 314.964844 442.328125 313.820312 446.621094 C 312.675781 451.195312 312.960938 452.054688 315.25 449.765625 C 319.253906 445.761719 316.109375 437.75 310.386719 437.75 C 307.8125 437.75 305.238281 439.753906 304.09375 442.328125 Z M 304.09375 442.328125 "/>
<path style=" stroke:none;fill-rule:nonzero;fill:rgb(0%,0%,0%);fill-opacity:1;" d="M 326.980469 442.328125 C 326.121094 444.617188 326.40625 447.765625 327.835938 449.195312 C 329.269531 450.625 330.414062 448.910156 330.414062 444.617188 C 330.414062 436.605469 329.554688 436.035156 326.980469 442.328125 Z M 326.980469 442.328125 "/>
<path style=" stroke:none;fill-rule:nonzero;fill:rgb(0%,0%,0%);fill-opacity:1;" d="M 336.132812 444.902344 C 336.132812 448.621094 336.992188 450.910156 338.421875 450.054688 C 339.566406 449.480469 340.425781 447.191406 340.425781 444.902344 C 340.425781 442.613281 339.566406 440.324219 338.421875 439.753906 C 336.992188 438.894531 336.132812 441.183594 336.132812 444.902344 Z M 336.132812 444.902344 "/>
<path style=" stroke:none;fill-rule:nonzero;fill:rgb(0%,0%,0%);fill-opacity:1;" d="M 343.570312 447.765625 C 343.570312 456.632812 344.144531 458.351562 346.433594 454.917969 C 348.722656 451.769531 349.867188 451.484375 351.007812 454.058594 C 353.011719 459.496094 362.453125 458.636719 364.453125 452.914062 C 365.597656 450.339844 365.3125 447.476562 363.882812 446.621094 C 362.453125 445.761719 360.449219 442.898438 359.589844 440.609375 C 358.449219 438.320312 358.449219 440.609375 359.304688 445.476562 C 360.164062 450.625 359.878906 454.917969 358.449219 454.917969 C 354.15625 454.628906 346.71875 447.476562 345.289062 442.042969 C 344.714844 438.894531 343.859375 441.46875 343.570312 447.765625 Z M 343.570312 447.765625 "/>
<path style=" stroke:none;fill-rule:nonzero;fill:rgb(0%,0%,0%);fill-opacity:1;" d="M 350.722656 442.042969 C 351.867188 444.332031 353.011719 446.332031 353.585938 446.332031 C 354.15625 446.332031 354.730469 444.332031 354.730469 442.042969 C 354.730469 439.753906 353.585938 437.75 351.867188 437.75 C 350.4375 437.75 349.867188 439.753906 350.722656 442.042969 Z M 350.722656 442.042969 "/>
<path style=" stroke:none;fill-rule:nonzero;fill:rgb(0%,0%,0%);fill-opacity:1;" d="M 387.339844 440.039062 C 388.484375 442.042969 387.625 443.472656 385.050781 443.472656 C 382.476562 443.472656 380.476562 445.761719 380.761719 448.335938 C 380.761719 451.484375 381.621094 452.054688 382.476562 449.765625 C 383.050781 448.050781 385.050781 446.332031 386.484375 446.332031 C 388.199219 446.332031 388.484375 447.476562 387.625 449.195312 C 386.769531 450.625 387.339844 452.054688 388.769531 452.054688 C 393.0625 452.054688 392.777344 441.46875 388.484375 438.894531 C 386.484375 437.75 386.195312 438.035156 387.339844 440.039062 Z M 387.339844 440.039062 "/>
<path style=" stroke:none;fill-rule:nonzero;fill:rgb(0%,0%,0%);fill-opacity:1;" d="M 394.777344 444.902344 C 394.777344 448.910156 395.351562 452.054688 395.921875 452.054688 C 396.496094 452.054688 397.640625 448.910156 398.210938 444.902344 C 399.070312 440.898438 398.496094 437.75 397.351562 437.75 C 395.921875 437.75 394.777344 440.898438 394.777344 444.902344 Z M 394.777344 444.902344 "/>
<path style=" stroke:none;fill-rule:nonzero;fill:rgb(0%,0%,0%);fill-opacity:1;" d="M 464.578125 440.324219 C 469.730469 442.328125 469.730469 442.613281 465.4375 444.332031 C 462.863281 445.1875 460.574219 447.765625 460.859375 449.765625 C 460.859375 452.628906 461.433594 452.628906 462.578125 449.765625 C 463.148438 448.050781 465.152344 446.332031 466.582031 446.332031 C 468.300781 446.332031 468.585938 447.476562 467.726562 449.195312 C 466.867188 450.625 467.441406 452.054688 468.871094 452.054688 C 470.585938 452.054688 472.019531 448.910156 472.019531 444.902344 C 472.019531 439.464844 470.585938 437.75 465.722656 438.035156 C 459.714844 438.035156 459.714844 438.320312 464.578125 440.324219 Z M 464.578125 440.324219 "/>
<path style=" stroke:none;fill-rule:nonzero;fill:rgb(0%,0%,0%);fill-opacity:1;" d="M 477.738281 444.902344 C 477.738281 448.910156 478.3125 452.054688 478.882812 452.054688 C 479.457031 452.054688 480.601562 448.910156 481.171875 444.902344 C 482.03125 440.898438 481.457031 437.75 480.3125 437.75 C 478.882812 437.75 477.738281 440.898438 477.738281 444.902344 Z M 477.738281 444.902344 "/>
<path style=" stroke:none;fill-rule:nonzero;fill:rgb(0%,0%,0%);fill-opacity:1;" d="M 504.058594 444.902344 C 504.058594 449.480469 504.628906 451.195312 505.488281 448.335938 C 506.058594 445.761719 506.058594 441.753906 505.488281 439.753906 C 504.628906 438.035156 504.058594 440.039062 504.058594 444.902344 Z M 504.058594 444.902344 "/>
<path style=" stroke:none;fill-rule:nonzero;fill:rgb(0%,0%,0%);fill-opacity:1;" d="M 510.636719 440.898438 C 509.492188 442.613281 509.207031 444.332031 510.066406 445.1875 C 510.636719 446.046875 512.066406 444.617188 512.925781 442.042969 C 514.929688 437.179688 513.210938 436.320312 510.636719 440.898438 Z M 510.636719 440.898438 "/>
<path style=" stroke:none;fill-rule:nonzero;fill:rgb(0%,0%,0%);fill-opacity:1;" d="M 520.363281 445.476562 C 521.792969 452.914062 522.082031 452.914062 522.9375 446.90625 C 523.511719 443.472656 524.941406 440.609375 526.371094 440.609375 C 527.800781 440.609375 529.519531 443.472656 530.089844 446.90625 C 531.234375 452.628906 531.234375 452.339844 531.808594 445.476562 C 532.09375 439.179688 530.949219 437.75 525.226562 437.75 C 519.503906 437.75 518.933594 438.894531 520.363281 445.476562 Z M 520.363281 445.476562 "/>
<path style=" stroke:none;fill-rule:nonzero;fill:rgb(0%,0%,0%);fill-opacity:1;" d="M 535.8125 442.328125 C 534.953125 444.617188 535.8125 448.335938 537.8125 450.054688 C 540.675781 452.628906 540.960938 452.628906 539.53125 449.765625 C 538.386719 447.765625 539.246094 446.332031 541.820312 446.332031 C 544.394531 446.332031 546.394531 444.042969 546.109375 441.183594 C 546.109375 438.320312 545.253906 437.75 544.394531 439.753906 C 543.820312 441.753906 541.820312 443.472656 540.390625 443.472656 C 538.671875 443.472656 538.386719 442.042969 539.246094 440.609375 C 540.101562 438.894531 540.390625 437.75 539.246094 437.75 C 538.386719 437.75 536.957031 439.753906 535.8125 442.328125 Z M 535.8125 442.328125 "/>
<path style=" stroke:none;fill-rule:nonzero;fill:rgb(0%,0%,0%);fill-opacity:1;" d="M 575.003906 440.898438 C 575.003906 442.328125 576.433594 442.898438 577.863281 442.042969 C 579.582031 441.183594 580.726562 439.753906 580.726562 438.894531 C 580.726562 438.320312 579.582031 437.75 577.863281 437.75 C 576.433594 437.75 575.003906 439.179688 575.003906 440.898438 Z M 575.003906 440.898438 "/>
<path style=" stroke:none;fill-rule:nonzero;fill:rgb(0%,0%,0%);fill-opacity:1;" d="M 588.734375 440.324219 C 591.882812 442.328125 591.882812 442.898438 588.164062 444.332031 C 585.589844 445.476562 583.585938 447.765625 583.871094 449.765625 C 583.871094 452.628906 584.445312 452.628906 585.589844 449.765625 C 586.160156 448.050781 588.164062 446.332031 589.59375 446.332031 C 591.308594 446.332031 591.597656 447.476562 590.738281 449.195312 C 589.878906 450.625 590.453125 452.054688 591.882812 452.054688 C 593.597656 452.054688 595.027344 448.910156 595.027344 444.902344 C 595.027344 440.039062 593.597656 437.75 590.164062 437.75 C 586.160156 437.75 585.875 438.320312 588.734375 440.324219 Z M 588.734375 440.324219 "/>
<path style=" stroke:none;fill-rule:nonzero;fill:rgb(0%,0%,0%);fill-opacity:1;" d="M 601.035156 445.476562 C 601.609375 452.339844 601.609375 452.628906 602.753906 446.90625 C 603.324219 443.472656 605.042969 440.609375 606.472656 440.609375 C 607.902344 440.609375 609.617188 443.472656 610.191406 446.90625 C 611.335938 452.628906 611.335938 452.339844 611.90625 445.476562 C 612.191406 439.464844 610.761719 437.75 606.472656 437.75 C 602.179688 437.75 600.75 439.464844 601.035156 445.476562 Z M 601.035156 445.476562 "/>
<path style=" stroke:none;fill-rule:nonzero;fill:rgb(0%,0%,0%);fill-opacity:1;" d="M 616.769531 440.039062 C 615.910156 441.46875 617.914062 444.617188 621.0625 447.191406 C 623.921875 449.765625 626.496094 450.625 626.496094 449.195312 C 626.496094 447.476562 624.207031 445.1875 621.632812 444.332031 C 617.34375 442.613281 617.34375 442.328125 622.492188 440.324219 C 627.070312 438.609375 627.070312 438.035156 623.0625 438.035156 C 620.488281 437.75 617.628906 438.894531 616.769531 440.039062 Z M 616.769531 440.039062 "/>
<path style=" stroke:none;fill-rule:nonzero;fill:rgb(0%,0%,0%);fill-opacity:1;" d="M 629.355469 448.335938 C 629.355469 455.488281 630.214844 457.777344 631.933594 455.203125 C 633.363281 453.199219 633.648438 448.910156 633.074219 446.046875 C 631.359375 439.753906 635.078125 438.894531 640.515625 444.042969 C 643.375 447.191406 643.660156 446.90625 642.230469 442.613281 C 641.085938 440.039062 637.652344 437.75 634.792969 437.75 C 630.5 437.75 629.355469 439.753906 629.355469 448.335938 Z M 629.355469 448.335938 "/>
<path style=" stroke:none;fill-rule:nonzero;fill:rgb(0%,0%,0%);fill-opacity:1;" d="M 646.519531 440.324219 C 646.519531 442.042969 648.523438 442.613281 651.382812 441.46875 C 655.105469 440.039062 655.675781 440.898438 654.53125 445.761719 C 653.386719 449.195312 653.960938 452.054688 655.675781 452.054688 C 660.539062 452.054688 656.820312 439.179688 651.671875 438.320312 C 648.808594 437.75 646.519531 438.609375 646.519531 440.324219 Z M 646.519531 440.324219 "/>
<path style=" stroke:none;fill-rule:nonzero;fill:rgb(0%,0%,0%);fill-opacity:1;" d="M 661.109375 445.476562 C 661.109375 450.054688 661.96875 451.769531 662.828125 449.195312 C 663.6875 446.90625 665.6875 443.1875 667.40625 441.183594 C 669.40625 438.894531 668.835938 437.75 665.402344 437.75 C 662.253906 437.75 660.824219 440.039062 661.109375 445.476562 Z M 661.109375 445.476562 "/>
<path style=" stroke:none;fill-rule:nonzero;fill:rgb(0%,0%,0%);fill-opacity:1;" d="M 443.410156 444.617188 C 443.410156 446.90625 444.839844 449.765625 446.269531 450.625 C 447.988281 451.484375 449.132812 450.339844 449.132812 448.050781 C 449.132812 445.761719 447.988281 442.898438 446.269531 442.042969 C 444.839844 441.183594 443.410156 442.328125 443.410156 444.617188 Z M 443.410156 444.617188 "/>
<path style=" stroke:none;fill-rule:nonzero;fill:rgb(0%,0%,0%);fill-opacity:1;" d="M 453.996094 446.332031 C 453.136719 449.480469 453.710938 452.054688 455.140625 452.054688 C 456.570312 452.054688 457.714844 449.480469 457.714844 446.332031 C 457.714844 443.1875 457.140625 440.609375 456.570312 440.609375 C 455.996094 440.609375 454.855469 443.1875 453.996094 446.332031 Z M 453.996094 446.332031 "/>
<path style=" stroke:none;fill-rule:nonzero;fill:rgb(0%,0%,0%);fill-opacity:1;" d="M 486.894531 446.332031 C 486.894531 450.339844 487.464844 451.769531 488.324219 449.765625 C 488.894531 448.050781 488.894531 444.617188 488.324219 442.613281 C 487.464844 440.898438 486.894531 442.328125 486.894531 446.332031 Z M 486.894531 446.332031 "/>
</g>
</svg>
