<?xml version="1.0" encoding="UTF-8"?>
<svg version="1.1" xmlns="http://www.w3.org/2000/svg" width="420" height="120">
<path d="M0 0 C138.6 0 277.2 0 420 0 C420 39.6 420 79.2 420 120 C281.4 120 142.8 120 0 120 C0 80.4 0 40.8 0 0 Z " fill="#FDFEFD" transform="translate(0,0)"/>
<path d="M0 0 C11.13207547 1.13207547 11.13207547 1.13207547 15 5 C15.4140625 7.1640625 15.4140625 7.1640625 15.625 9.625 C15.69976562 10.44226562 15.77453125 11.25953125 15.8515625 12.1015625 C15.92503906 13.04128906 15.92503906 13.04128906 16 14 C33.15556011 16.24444522 33.15556011 16.24444522 48.8359375 11.10546875 C51.31731695 8.86612191 53.43124664 6.43868808 55.53125 3.84375 C56.3459375 2.9053125 57.160625 1.966875 58 1 C59.32 1 60.64 1 62 1 C62.4560284 6.70035501 61.60412752 9.54784247 58 14 C57.34 14.33 56.68 14.66 56 15 C57.21558594 15.06058594 58.43117187 15.12117188 59.68359375 15.18359375 C61.26824228 15.26798332 62.85287702 15.3526321 64.4375 15.4375 C65.64116211 15.49647461 65.64116211 15.49647461 66.86914062 15.55664062 C72.88671875 15.88671875 72.88671875 15.88671875 74 17 C74.1875 19.4375 74.1875 19.4375 74 22 C73.34 22.66 72.68 23.32 72 24 C72.29868656 26.00546689 72.63371323 28.00577205 73 30 C72.505 31.485 72.505 31.485 72 33 C72.020625 33.845625 72.04125 34.69125 72.0625 35.5625 C72 38 72 38 70 40 C70.33 40.33 70.66 40.66 71 41 C71.125 43.5 71.125 43.5 71 46 C70 47 70 47 67.375 47.0625 C65.14582616 47.021219 62.91665929 46.97955961 60.6875 46.9375 C58.00713659 46.98292989 55.60673684 47.14936681 52.97265625 47.49609375 C46.47941328 48.27759848 39.96723836 48.10592026 33.4375 48.0625 C31.49520508 48.05573242 31.49520508 48.05573242 29.51367188 48.04882812 C26.342399 48.03712601 23.17122454 48.02073113 20 48 C19.34 51.3 18.68 54.6 18 58 C19.55952393 58.01981934 21.11904785 58.03963867 22.72583008 58.06005859 C28.50138745 58.13602123 34.27668981 58.22475308 40.05200195 58.31738281 C42.55357841 58.35571119 45.05521072 58.39055718 47.55688477 58.421875 C51.14880357 58.46744146 54.74033662 58.52545024 58.33203125 58.5859375 C60.01496025 58.60326431 60.01496025 58.60326431 61.73188782 58.62094116 C63.29316658 58.6507457 63.29316658 58.6507457 64.88598633 58.68115234 C66.2616552 58.70113785 66.2616552 58.70113785 67.66511536 58.7215271 C70 59 70 59 73 61 C73.375 64 73.375 64 73 67 C70 69 70 69 67.9375 68.75 C66 68 66 68 64 66 C64 65.01 64 64.02 64 63 C50.47 63 36.94 63 23 63 C22.67 64.65 22.34 66.3 22 68 C19.6875 68.625 19.6875 68.625 17 69 C14 67 14 67 13.34765625 64.75 C12.69348816 58.44131047 13.15160562 54.29209751 16.1875 48.6796875 C18.75298358 40.21852532 14.43319967 28.67638182 12.72851562 20.2421875 C12.3969043 18.56769531 12.3969043 18.56769531 12.05859375 16.859375 C11.85548584 15.85358398 11.65237793 14.84779297 11.44311523 13.81152344 C11.02380885 11.15106486 10.91667542 8.68729468 11 6 C9.9275 5.855625 8.855 5.71125 7.75 5.5625 C5.08337051 5.16250558 2.58600271 4.72408076 0 4 C0 2.68 0 1.36 0 0 Z " fill="#21B250" transform="translate(55,25)"/>
<path d="M0 0 C4.021875 -0.0928125 4.021875 -0.0928125 8.125 -0.1875 C8.95789551 -0.21481201 9.79079102 -0.24212402 10.64892578 -0.27026367 C15.5213819 -0.32432457 18.76336416 0.34083495 23 3 C25 5 25 5 25.25 7.875 C25.01152253 10.85596832 24.54507335 12.4892558 23 15 C23.495 15.53625 23.99 16.0725 24.5 16.625 C26.4674199 19.74008151 26.5923739 21.37170989 26 25 C24.14453125 27.671875 24.14453125 27.671875 21 30 C17.37081674 30.61107016 13.85437153 30.47134248 10.1875 30.3125 C6.825625 30.209375 3.46375 30.10625 0 30 C0 20.1 0 10.2 0 0 Z " fill="#135272" transform="translate(141,41)"/>
<path d="M0 0 C1.27423828 -0.00193359 1.27423828 -0.00193359 2.57421875 -0.00390625 C3.91419922 0.00189453 3.91419922 0.00189453 5.28125 0.0078125 C6.17457031 0.00394531 7.06789063 0.00007813 7.98828125 -0.00390625 C8.83777344 -0.00261719 9.68726562 -0.00132813 10.5625 0 C11.34689453 0.00112793 12.13128906 0.00225586 12.93945312 0.00341797 C14.78125 0.1328125 14.78125 0.1328125 15.78125 1.1328125 C15.96875 3.5703125 15.96875 3.5703125 15.78125 6.1328125 C15.12125 6.7928125 14.46125 7.4528125 13.78125 8.1328125 C14.07993656 10.13827939 14.41496323 12.13858455 14.78125 14.1328125 C14.45125 15.1228125 14.12125 16.1128125 13.78125 17.1328125 C13.801875 17.9784375 13.8225 18.8240625 13.84375 19.6953125 C13.78125 22.1328125 13.78125 22.1328125 11.78125 24.1328125 C12.11125 24.4628125 12.44125 24.7928125 12.78125 25.1328125 C12.90625 27.6328125 12.90625 27.6328125 12.78125 30.1328125 C11.78125 31.1328125 11.78125 31.1328125 8.62109375 31.23046875 C7.33332031 31.21886719 6.04554687 31.20726563 4.71875 31.1953125 C3.42839844 31.18628906 2.13804688 31.17726563 0.80859375 31.16796875 C-0.19042969 31.15636719 -1.18945312 31.14476563 -2.21875 31.1328125 C-2.363125 29.9984375 -2.5075 28.8640625 -2.65625 27.6953125 C-2.83046478 24.32504049 -2.83046478 24.32504049 -4.21875 23.1328125 C-4.45067865 21.61811802 -4.63090238 20.09526688 -4.78125 18.5703125 C-4.86503906 17.74402344 -4.94882813 16.91773437 -5.03515625 16.06640625 C-5.09574219 15.42832031 -5.15632813 14.79023437 -5.21875 14.1328125 C-6.311875 14.6278125 -7.405 15.1228125 -8.53125 15.6328125 C-12.21875 17.1328125 -12.21875 17.1328125 -15.21875 17.1328125 C-15.21875 16.4728125 -15.21875 15.8128125 -15.21875 15.1328125 C-14.105 14.6790625 -12.99125 14.2253125 -11.84375 13.7578125 C-8.25675992 12.40815264 -8.25675992 12.40815264 -6.21875 10.1328125 C-5.7956811 7.96282056 -5.7956811 7.96282056 -5.65625 5.5703125 C-5.2683493 0.62259945 -5.0215676 0.00722082 0 0 Z " fill="#DAF1E1" transform="translate(113.21875,40.8671875)"/>
<path d="M0 0 C5.53846154 3.07692308 5.53846154 3.07692308 7 6 C7.07194869 8.88370333 7.09291708 11.74239664 7.0625 14.625 C7.05798828 15.42679688 7.05347656 16.22859375 7.04882812 17.0546875 C7.03703168 19.03649006 7.01909605 21.01825433 7 23 C5.35 23 3.7 23 2 23 C2 22.34 2 21.68 2 21 C1.01 21.66 0.02 22.32 -1 23 C-3.375 23.30078125 -3.375 23.30078125 -6 23.3125 C-7.299375 23.33763672 -7.299375 23.33763672 -8.625 23.36328125 C-11 23 -11 23 -12.79296875 21.703125 C-14.77897071 18.90086981 -14.30089257 16.3098183 -14 13 C-11.33684806 10.33684806 -9.34655932 10.05573507 -5.640625 9.90234375 C-4.85171875 9.91394531 -4.0628125 9.92554688 -3.25 9.9375 C-2.45078125 9.94652344 -1.6515625 9.95554687 -0.828125 9.96484375 C-0.22484375 9.97644531 0.3784375 9.98804688 1 10 C1 8.68 1 7.36 1 6 C-3.29 6 -7.58 6 -12 6 C-12.33 4.68 -12.66 3.36 -13 2 C-8.49115945 0.24045247 -4.83732548 -0.51828487 0 0 Z " fill="#1B5877" transform="translate(323,48)"/>
<path d="M0 0 C3.02089981 1.7475743 5.41608883 3.83217766 7 7 C7 8.98 7 10.96 7 13 C1.06 13 -4.88 13 -11 13 C-6.80615949 18.22037712 -6.80615949 18.22037712 -2.9375 18.375 C-0.53714681 18.06857193 1.69034231 17.7106639 4 17 C4.33 18.32 4.66 19.64 5 21 C0.66702119 23.46616254 -3.11120355 23.5684647 -8 23 C-11.66195861 21.40784408 -14.20204902 19.59590196 -16 16 C-16.70522322 11.41604905 -16.64997503 8.09102952 -14.25 4.0625 C-9.95165931 0.12235437 -5.87793091 -1.13948373 0 0 Z " fill="#185775" transform="translate(249,48)"/>
<path d="M0 0 C3.14194806 1.65989709 5.31255973 3.03133416 7.375 5.9375 C8 8 8 8 8 13 C2.06 13 -3.88 13 -10 13 C-8.68 14.65 -7.36 16.3 -6 18 C-2.11636736 18.4161035 1.27712932 18.19131862 5 17 C5.33 18.32 5.66 19.64 6 21 C1.66266785 23.46864029 -2.10737509 23.56015741 -7 23 C-11.18531174 21.27128428 -13.23950002 19.16960522 -15 15 C-15.7161519 10.69435505 -15.54369221 7.89320863 -13.25 4.125 C-8.9815747 0.09370944 -5.92884333 -0.61332862 0 0 Z " fill="#145574" transform="translate(186,48)"/>
<path d="M0 0 C2.65036583 1.04348969 3.89113897 2.00829791 6 4 C6 4.66 6 5.32 6 6 C3.6875 7.125 3.6875 7.125 1 8 C0.01 7.34 -0.98 6.68 -2 6 C-6.49454597 5.56504394 -8.93036701 5.48746753 -13 7.4375 C-15.90484841 11.15933703 -15.56192838 14.44035256 -15 19 C-14.74728001 21.18156924 -14.74728001 21.18156924 -14 23 C-8.35590541 24.88136486 -1.73055582 24.52814822 4 23 C4.66 23.99 5.32 24.98 6 26 C3.64677213 28.68940328 1.76489395 29.89837073 -1.79296875 30.37109375 C-7.50284085 30.4916749 -12.22626907 30.46095492 -17 27 C-21.39515116 22.12969737 -22.41289585 19.05877542 -22.34765625 12.609375 C-21.8031365 8.52241781 -19.98826748 5.78167121 -17 3 C-11.59605833 -0.90182907 -6.45457614 -0.8100885 0 0 Z " fill="#1E5A78" transform="translate(300,41)"/>
<path d="M0 0 C1.98 0 3.96 0 6 0 C6 1.65 6 3.3 6 5 C7.98 5 9.96 5 12 5 C12 6.65 12 8.3 12 10 C10.02 10 8.04 10 6 10 C6.33 14.29 6.66 18.58 7 23 C8.65 23 10.3 23 12 23 C12.33 24.65 12.66 26.3 13 28 C11.39815374 28.1352403 9.79303374 28.23210847 8.1875 28.3125 C7.29417969 28.37050781 6.40085937 28.42851563 5.48046875 28.48828125 C3 28 3 28 1.1875 25.90625 C-0.22316165 22.45384122 -0.30013639 19.90450097 -0.1875 16.1875 C-0.16042969 15.02605469 -0.13335937 13.86460938 -0.10546875 12.66796875 C-0.07066406 11.78753906 -0.03585937 10.90710937 0 10 C-1.32 10 -2.64 10 -4 10 C-4 8.35 -4 6.7 -4 5 C-2.68 5 -1.36 5 0 5 C0 3.35 0 1.7 0 0 Z " fill="#2A637F" transform="translate(354,43)"/>
<path d="M0 0 C1.98 0 3.96 0 6 0 C6 1.65 6 3.3 6 5 C7.98 5 9.96 5 12 5 C12 6.65 12 8.3 12 10 C10.02 10 8.04 10 6 10 C6.33 14.29 6.66 18.58 7 23 C8.98 23.66 10.96 24.32 13 25 C12.67 25.99 12.34 26.98 12 28 C4.70072993 28.486618 4.70072993 28.486618 1.75 26.4375 C-0.64897651 23.09606843 -0.40063108 20.81703913 -0.25 16.75 C-0.21390625 15.48671875 -0.1778125 14.2234375 -0.140625 12.921875 C-0.09421875 11.95765625 -0.0478125 10.9934375 0 10 C-0.99 10 -1.98 10 -3 10 C-3 8.68 -3 7.36 -3 6 C-2.01 6 -1.02 6 0 6 C0 4.02 0 2.04 0 0 Z " fill="#27607C" transform="translate(218,43)"/>
<path d="M0 0 C1.65 0 3.3 0 5 0 C5 1.65 5 3.3 5 5 C6.98 5 8.96 5 11 5 C11 6.32 11 7.64 11 9 C9.02 9 7.04 9 5 9 C5 13.29 5 17.58 5 22 C7.31 22.33 9.62 22.66 12 23 C12.33 23.99 12.66 24.98 13 26 C11.42102167 27.57897833 9.80637428 27.24543509 7.625 27.3125 C6.43777344 27.36857422 6.43777344 27.36857422 5.2265625 27.42578125 C3 27 3 27 1.22265625 25.43359375 C-0.45404177 22.09626829 -0.2906461 19.46325963 -0.1875 15.75 C-0.16042969 14.48671875 -0.13335937 13.2234375 -0.10546875 11.921875 C-0.07066406 10.95765625 -0.03585938 9.9934375 0 9 C-1.32 9 -2.64 9 -4 9 C-4 7.35 -4 5.7 -4 4 C-2.68 4 -1.36 4 0 4 C0 2.68 0 1.36 0 0 Z " fill="#175574" transform="translate(200,44)"/>
<path d="M0 0 C1.98 0 3.96 0 6 0 C6 0.66 6 1.32 6 2 C6.5775 1.67 7.155 1.34 7.75 1 C10 0 10 0 14 0 C14 1.65 14 3.3 14 5 C10.535 6.485 10.535 6.485 7 8 C6.67 12.95 6.34 17.9 6 23 C4.02 23 2.04 23 0 23 C0 15.41 0 7.82 0 0 Z " fill="#29627E" transform="translate(260,48)"/>
<path d="M0 0 C1.65 0 3.3 0 5 0 C5 1.32 5 2.64 5 4 C5.89203125 3.98839844 6.7840625 3.97679687 7.703125 3.96484375 C8.87359375 3.95582031 10.0440625 3.94679687 11.25 3.9375 C12.41015625 3.92589844 13.5703125 3.91429687 14.765625 3.90234375 C17.40977128 3.98217908 19.49826091 4.21356222 22 5 C22.33 4.34 22.66 3.68 23 3 C23 3.99 23 4.98 23 6 C17.06 6 11.12 6 5 6 C6.32 7.65 7.64 9.3 9 11 C12.88363264 11.4161035 16.27712932 11.19131862 20 10 C20.33 11.32 20.66 12.64 21 14 C16.66266785 16.46864029 12.89262491 16.56015741 8 16 C3.81468826 14.27128428 1.76049998 12.16960522 0 8 C-0.23272824 5.2780915 -0.13939346 2.74140478 0 0 Z " fill="#0B4F6F" transform="translate(171,55)"/>
<path d="M0 0 C4.33333333 0 8.66666667 0 13 0 C13 1.65 13 3.3 13 5 C12.21625 5.28875 11.4325 5.5775 10.625 5.875 C7.90328368 6.84912254 7.90328368 6.84912254 6 9 C5.69940057 11.36509361 5.50484988 13.74441881 5.375 16.125 C5.26285156 18.04699219 5.26285156 18.04699219 5.1484375 20.0078125 C5.09945313 20.99523437 5.05046875 21.98265625 5 23 C3.35 23 1.7 23 0 23 C0 15.41 0 7.82 0 0 Z " fill="#1B5977" transform="translate(334,48)"/>
<path d="M0 0 C2.10353495 -0.0810206 4.20795952 -0.13919907 6.3125 -0.1875 C7.48425781 -0.22230469 8.65601563 -0.25710937 9.86328125 -0.29296875 C13 0 13 0 14.9296875 1.3828125 C16 3 16 3 15.8125 5.0625 C15 7 15 7 13 9 C9.9609375 9.1953125 9.9609375 9.1953125 6.375 9.125 C5.18648437 9.10695313 3.99796875 9.08890625 2.7734375 9.0703125 C1.85820312 9.04710938 0.94296875 9.02390625 0 9 C0 6.03 0 3.06 0 0 Z " fill="#E9EEF1" transform="translate(146,58)"/>
<path d="M0 0 C1.12535156 0.00580078 1.12535156 0.00580078 2.2734375 0.01171875 C3.02367188 0.00785156 3.77390625 0.00398438 4.546875 0 C10.14682697 0.01010822 10.14682697 0.01010822 11.2734375 1.13671875 C11.3984375 3.63671875 11.3984375 3.63671875 11.2734375 6.13671875 C9.45227747 7.95787878 6.96671986 7.26906955 4.546875 7.2734375 C3.79664062 7.26957031 3.04640625 7.26570313 2.2734375 7.26171875 C1.14808594 7.26751953 1.14808594 7.26751953 0 7.2734375 C-5.59995197 7.26332928 -5.59995197 7.26332928 -6.7265625 6.13671875 C-6.8515625 3.63671875 -6.8515625 3.63671875 -6.7265625 1.13671875 C-4.90540247 -0.68444128 -2.41984486 0.00436795 0 0 Z " fill="#1BB04C" transform="translate(117.7265625,40.86328125)"/>
<path d="M0 0 C1.58206057 0.00667536 3.16410534 0.0186375 4.74609375 0.03515625 C5.55240234 0.03966797 6.35871094 0.04417969 7.18945312 0.04882812 C9.18753131 0.06065107 11.18557158 0.07858711 13.18359375 0.09765625 C13.56578142 1.75380282 13.89754477 3.42222649 14.18359375 5.09765625 C13.18359375 6.09765625 13.18359375 6.09765625 9.3671875 6.1953125 C7.78512693 6.18863714 6.20308216 6.176675 4.62109375 6.16015625 C3.81478516 6.15564453 3.00847656 6.15113281 2.17773438 6.14648438 C0.17965619 6.13466143 -1.81838408 6.11672539 -3.81640625 6.09765625 C-4.19859392 4.44150968 -4.53035727 2.77308601 -4.81640625 1.09765625 C-3.81640625 0.09765625 -3.81640625 0.09765625 0 0 Z " fill="#26B454" transform="translate(113.81640625,49.90234375)"/>
<path d="M0 0 C1.95803507 -0.05389087 3.91648909 -0.09274217 5.875 -0.125 C7.51082031 -0.15980469 7.51082031 -0.15980469 9.1796875 -0.1953125 C12 0 12 0 14 2 C13.75 4.5625 13.75 4.5625 13 7 C10.35541621 8.32229189 8.32238699 8.09677194 5.375 8.0625 C4.37210938 8.05347656 3.36921875 8.04445313 2.3359375 8.03515625 C1.56507813 8.02355469 0.79421875 8.01195312 0 8 C0 5.36 0 2.72 0 0 Z " fill="#F2F5F7" transform="translate(146,46)"/>
<path d="M0 0 C3.26460973 1.80412643 4.88929795 2.83394693 7 6 C7 7.98 7 9.96 7 12 C1.39 12 -4.22 12 -10 12 C-10.33 11.01 -10.66 10.02 -11 9 C-6.71 9 -2.42 9 2 9 C1.0022242 6.00667261 0.2477975 5.05233685 -2 3 C-1.34 2.01 -0.68 1.02 0 0 Z " fill="#0D5171" transform="translate(249,49)"/>
<path d="M0 0 C5.28 0 10.56 0 16 0 C16 1.65 16 3.3 16 5 C15 6 15 6 11.875 6.1328125 C10.59625 6.13023438 9.3175 6.12765625 8 6.125 C6.72125 6.12757812 5.4425 6.13015625 4.125 6.1328125 C1 6 1 6 0 5 C0 3.35 0 1.7 0 0 Z " fill="#23B453" transform="translate(111,58)"/>
<path d="M0 0 C1.32 0 2.64 0 4 0 C5.08209949 3.24629847 4.78140875 3.87436498 4 7 C4.33 7.99 4.66 8.98 5 10 C6.65 10 8.3 10 10 10 C10.33 10.66 10.66 11.32 11 12 C9.39667209 12.08121924 7.79215974 12.13929134 6.1875 12.1875 C5.29417969 12.22230469 4.40085937 12.25710937 3.48046875 12.29296875 C1 12 1 12 -0.8046875 10.7109375 C-2.769481 7.89858602 -2.30077444 5.30851882 -2 2 C-1.34 1.34 -0.68 0.68 0 0 Z " fill="#1B5977" transform="translate(311,59)"/>
<path d="M0 0 C1.65322266 0.01740234 1.65322266 0.01740234 3.33984375 0.03515625 C4.99693359 0.04869141 4.99693359 0.04869141 6.6875 0.0625 C7.54214844 0.07410156 8.39679688 0.08570312 9.27734375 0.09765625 C9.32006475 1.7637753 9.31798207 3.4314851 9.27734375 5.09765625 C8.27734375 6.09765625 8.27734375 6.09765625 5.7734375 6.1953125 C4.25943359 6.17791016 4.25943359 6.17791016 2.71484375 6.16015625 C1.70292969 6.15113281 0.69101563 6.14210938 -0.3515625 6.1328125 C-1.13402344 6.12121094 -1.91648437 6.10960938 -2.72265625 6.09765625 C-3.10484392 4.44150968 -3.43660727 2.77308601 -3.72265625 1.09765625 C-2.72265625 0.09765625 -2.72265625 0.09765625 0 0 Z " fill="#1EB24F" transform="translate(116.72265625,65.90234375)"/>
<path d="M0 0 C11.13207547 1.13207547 11.13207547 1.13207547 15 5 C14.625 7.625 14.625 7.625 14 10 C13.01 10.33 12.02 10.66 11 11 C11 9.35 11 7.7 11 6 C9.9275 5.855625 8.855 5.71125 7.75 5.5625 C5.08337051 5.16250558 2.58600271 4.72408076 0 4 C0 2.68 0 1.36 0 0 Z " fill="#2EB75B" transform="translate(55,25)"/>
<path d="M0 0 C3.10265365 0.36936353 4.42778202 1.11528202 6.625 3.3125 C6.625 4.3025 6.625 5.2925 6.625 6.3125 C2.335 6.3125 -1.955 6.3125 -6.375 6.3125 C-3.44542254 0.45334507 -3.44542254 0.45334507 0 0 Z " fill="#E1E8EC" transform="translate(244.375,51.6875)"/>
<path d="M0 0 C3.40990297 0.487129 4.51618402 1.71945396 6.625 4.375 C6.625 5.035 6.625 5.695 6.625 6.375 C2.335 6.375 -1.955 6.375 -6.375 6.375 C-3.46071429 0.54642857 -3.46071429 0.54642857 0 0 Z " fill="#E4EAED" transform="translate(182.375,51.625)"/>
<path d="M0 0 C2.05078125 0.03255208 4.1015625 0.06510417 6.15234375 0.09765625 C5.40234375 4.84765625 5.40234375 4.84765625 3.15234375 7.09765625 C0.65234375 7.34765625 0.65234375 7.34765625 -1.84765625 7.09765625 C-2.50765625 6.43765625 -3.16765625 5.77765625 -3.84765625 5.09765625 C-3.1001104 0.16385362 -3.1001104 0.16385362 0 0 Z " fill="#E0E7EB" transform="translate(317.84765625,60.90234375)"/>
<path d="M0 0 C3 1 3 1 4.16796875 2.77734375 C4.50441406 3.49019531 4.84085938 4.20304687 5.1875 4.9375 C5.53167969 5.64777344 5.87585938 6.35804687 6.23046875 7.08984375 C7 9 7 9 7 11 C6.34 11 5.68 11 5 11 C4.67 10.34 4.34 9.68 4 9 C0.97065509 8.34227572 0.97065509 8.34227572 -2 8 C-2.33 8.99 -2.66 9.98 -3 11 C-3.75 9.4375 -3.75 9.4375 -4 7 C-2.86915563 4.49713591 -1.47860484 2.32992278 0 0 Z " fill="#68CA88" transform="translate(146,83)"/>
<path d="M0 0 C2.64590014 -0.02684679 5.29153096 -0.04676357 7.9375 -0.0625 C8.69224609 -0.07087891 9.44699219 -0.07925781 10.22460938 -0.08789062 C12.14994313 -0.09652441 14.07535581 -0.05224333 16 0 C17 1 17 1 17.125 3.5 C17 6 17 6 16 7 C13.30345146 7.07319621 10.63308542 7.09242537 7.9375 7.0625 C7.17888672 7.05798828 6.42027344 7.05347656 5.63867188 7.04882812 C3.75908129 7.0370068 1.87953101 7.01907078 0 7 C0 6.67 0 6.34 0 6 C4.95 6 9.9 6 15 6 C15 4.68 15 3.36 15 2 C10.38 2 5.76 2 1 2 C0.67 1.34 0.34 0.68 0 0 Z " fill="#4DC173" transform="translate(112,41)"/>
<path d="M0 0 C2.67576692 1.00617682 3.7785108 1.54214546 5.046875 4.1640625 C5.39492187 5.38222656 5.39492187 5.38222656 5.75 6.625 C5.99234375 7.44226563 6.2346875 8.25953125 6.484375 9.1015625 C6.73960937 10.04128906 6.73960937 10.04128906 7 11 C6.34 11 5.68 11 5 11 C5 10.01 5 9.02 5 8 C2.69 8 0.38 8 -2 8 C-2.33 8.99 -2.66 9.98 -3 11 C-4 8 -4 8 -3.22265625 5.95703125 C-2.83980469 5.24933594 -2.45695313 4.54164062 -2.0625 3.8125 C-1.68222656 3.09707031 -1.30195313 2.38164063 -0.91015625 1.64453125 C-0.60980469 1.10183594 -0.30945313 0.55914062 0 0 Z " fill="#66CA86" transform="translate(204,83)"/>
<path d="M0 0 C3.90432869 1.95216435 6.03839944 3.87386607 9 7 C9 4.69 9 2.38 9 0 C9.33 0 9.66 0 10 0 C10 3.63 10 7.26 10 11 C9.34 11 8.68 11 8 11 C6.7109375 9.46875 6.7109375 9.46875 5.375 7.5 C4.92898437 6.8503125 4.48296875 6.200625 4.0234375 5.53125 C3.51683594 4.77328125 3.51683594 4.77328125 3 4 C2.67 6.31 2.34 8.62 2 11 C1.34 11 0.68 11 0 11 C0 7.37 0 3.74 0 0 Z " fill="#40BC68" transform="translate(171,83)"/>
<path d="M0 0 C1.32 0.33 2.64 0.66 4 1 C3.34 2.98 2.68 4.96 2 7 C1.34 7 0.68 7 0 7 C0 9.64 0 12.28 0 15 C-0.33 15 -0.66 15 -1 15 C-1.22304441 13.25181409 -1.4278645 11.50129677 -1.625 9.75 C-1.74101563 8.77546875 -1.85703125 7.8009375 -1.9765625 6.796875 C-2.00112537 3.86570607 -1.5312717 2.45471036 0 0 Z " fill="#36BA61" transform="translate(70,77)"/>
<path d="M0 0 C0.99 0.33 1.98 0.66 3 1 C3 3.31 3 5.62 3 8 C7.95 8 12.9 8 18 8 C18 8.33 18 8.66 18 9 C12.06 9.33 6.12 9.66 0 10 C0 6.7 0 3.4 0 0 Z " fill="#D0ECD8" transform="translate(109,41)"/>
<path d="M0 0 C0 0.33 0 0.66 0 1 C-1.65 1.33 -3.3 1.66 -5 2 C-5 2.66 -5 3.32 -5 4 C-7.35438733 5.42944945 -8.48032433 6.08661261 -11.25 5.625 C-11.8275 5.41875 -12.405 5.2125 -13 5 C-12.67 3.68 -12.34 2.36 -12 1 C-7.9472484 0.01751476 -4.16138263 -0.08159574 0 0 Z " fill="#205D7A" transform="translate(323,48)"/>
<path d="M0 0 C0.66 0 1.32 0 2 0 C2 3.3 2 6.6 2 10 C3.98 10 5.96 10 8 10 C8 10.66 8 11.32 8 12 C5.36 12 2.72 12 0 12 C0 8.04 0 4.08 0 0 Z " fill="#6ACC8C" transform="translate(230,82)"/>
<path d="M0 0 C0.99 0.33 1.98 0.66 3 1 C2.6875 2.9375 2.6875 2.9375 2 5 C-0.75078884 5.91692961 -2.35948913 6.10886083 -5.1875 6.0625 C-7.0746875 6.0315625 -7.0746875 6.0315625 -9 6 C-8.401875 5.731875 -7.80375 5.46375 -7.1875 5.1875 C-5.01474908 4.00800664 -3.69381635 2.770808 -2 1 C-1.34 0.67 -0.68 0.34 0 0 Z " fill="#105070" transform="translate(251,65)"/>
<path d="M0 0 C2.31 0.33 4.62 0.66 7 1 C7.33 1.99 7.66 2.98 8 4 C6.35 4.66 4.7 5.32 3 6 C1.5 4.6875 1.5 4.6875 0 3 C0 2.01 0 1.02 0 0 Z " fill="#245F7C" transform="translate(298,43)"/>
<path d="M0 0 C1.65 1.32 3.3 2.64 5 4 C6.32 2.68 7.64 1.36 9 0 C8.566875 1.051875 8.566875 1.051875 8.125 2.125 C6.97866412 5.05452503 5.97374346 8.00921653 5 11 C4.731875 10.443125 4.46375 9.88625 4.1875 9.3125 C2.99300335 6.91066602 2.99300335 6.91066602 1.375 4.375 C0 2 0 2 0 0 Z " fill="#3FBC68" transform="translate(254,83)"/>
<path d="M0 0 C1.32 0 2.64 0 4 0 C4 1.65 4 3.3 4 5 C2.35 5 0.7 5 -1 5 C-0.67 3.35 -0.34 1.7 0 0 Z " fill="#205D7B" transform="translate(270,48)"/>
<path d="M0 0 C1.98 0.495 1.98 0.495 4 1 C3.67 2.32 3.34 3.64 3 5 C1.68 5.33 0.36 5.66 -1 6 C-0.67 4.02 -0.34 2.04 0 0 Z " fill="#1F5C79" transform="translate(188,65)"/>
<path d="M0 0 C2.64 0 5.28 0 8 0 C7.01 0.33 6.02 0.66 5 1 C5 1.66 5 2.32 5 3 C5.66 3.33 6.32 3.66 7 4 C4.36 3.67 1.72 3.34 -1 3 C-0.67 2.01 -0.34 1.02 0 0 Z " fill="#044B6C" transform="translate(293,42)"/>
<path d="M0 0 C2.97 0.495 2.97 0.495 6 1 C5.67 1.99 5.34 2.98 5 4 C3.35 4 1.7 4 0 4 C0 2.68 0 1.36 0 0 Z " fill="#1DB24F" transform="translate(55,25)"/>
<path d="M0 0 C0.33 0 0.66 0 1 0 C1 3.63 1 7.26 1 11 C0.34 11 -0.32 11 -1 11 C-1.66 9.35 -2.32 7.7 -3 6 C-2.01 6.33 -1.02 6.66 0 7 C0 4.69 0 2.38 0 0 Z " fill="#28B556" transform="translate(180,83)"/>
</svg>
