<?xml version="1.0" encoding="UTF-8"?>
<svg version="1.1" xmlns="http://www.w3.org/2000/svg" width="259" height="195">
<path d="M0 0 C85.47 0 170.94 0 259 0 C259 64.35 259 128.7 259 195 C173.53 195 88.06 195 0 195 C0 130.65 0 66.3 0 0 Z " fill="#162972" transform="translate(0,0)"/>
<path d="M0 0 C4.95 0 9.9 0 15 0 C15.33 2.64 15.66 5.28 16 8 C17.32 5.36 18.64 2.72 20 0 C30.33333333 0 40.66666667 0 51 0 C52.68650459 -0.00634225 54.37300743 -0.01315374 56.05950928 -0.02018738 C71.0132498 -0.08071603 85.96694089 -0.12611181 100.92077255 -0.15543652 C108.60380766 -0.17090619 116.28675059 -0.1920076 123.96972656 -0.22631836 C130.67334881 -0.25624061 137.37690427 -0.27557913 144.08059144 -0.28226548 C147.62770257 -0.28617168 151.17462234 -0.29533362 154.72167206 -0.31719017 C158.68134623 -0.3413932 162.64083398 -0.34196824 166.60058594 -0.34057617 C167.77276672 -0.351362 168.94494751 -0.36214783 170.15264893 -0.3732605 C176.95085206 -0.3473583 181.9597512 -0.0402488 187 5 C188.36259753 16.31673103 188.36259753 16.31673103 185.984375 21 C183.33042767 23.68592259 180.4951549 24.93544236 176.73828125 25.09765625 C175.93777344 25.08605469 175.13726562 25.07445313 174.3125 25.0625 C172.1778125 25.0315625 172.1778125 25.0315625 170 25 C170 29.62 170 34.24 170 39 C120.17 39 70.34 39 19 39 C17.515 34.545 17.515 34.545 16 30 C15.67 32.97 15.34 35.94 15 39 C10.05 39 5.1 39 0 39 C0 26.13 0 13.26 0 0 Z " fill="#8CBE60" transform="translate(36,78)"/>
<path d="M0 0 C0.33 0 0.66 0 1 0 C1 8.91 1 17.82 1 27 C-2.23957942 22.14063086 -4.46463294 16.80601367 -3.875 10.875 C-2.97294244 6.88017365 -1.76228205 3.67780603 0 0 Z " fill="#0D2072" transform="translate(68,83)"/>
<path d="M0 0 C1.66611905 -0.042721 3.33382885 -0.04063832 5 0 C6 1 6 1 6.0625 3.5625 C6.041875 4.366875 6.02125 5.17125 6 6 C4.02 6 2.04 6 0 6 C0 4.02 0 2.04 0 0 Z " fill="#344E6D" transform="translate(110,94)"/>
<path d="M0 0 C1.67542976 0.28604898 3.34385343 0.61781233 5 1 C4.67 2.65 4.34 4.3 4 6 C2.35 6 0.7 6 -1 6 C-1.042721 4.33388095 -1.04063832 2.66617115 -1 1 C-0.67 0.67 -0.34 0.34 0 0 Z " fill="#324A6D" transform="translate(172,94)"/>
<path d="M0 0 C2 0 4 0 6 0 C6 1.98 6 3.96 6 6 C4 6 2 6 0 6 C0 4.02 0 2.04 0 0 Z " fill="#1D3170" transform="translate(178,94)"/>
<path d="M0 0 C2.475 0.495 2.475 0.495 5 1 C5 2.65 5 4.3 5 6 C3.35 6 1.7 6 0 6 C0 4.02 0 2.04 0 0 Z " fill="#273C6F" transform="translate(118,94)"/>
<path d="M0 0 C1.65 0 3.3 0 5 0 C5.33 1.32 5.66 2.64 6 4 C4.68 4 3.36 4 2 4 C2 4.66 2 5.32 2 6 C1.34 6 0.68 6 0 6 C0 4.02 0 2.04 0 0 Z " fill="#273D6F" transform="translate(156,94)"/>
<path d="M0 0 C4 0 4 0 6 1 C5.67 2.65 5.34 4.3 5 6 C3.35 6 1.7 6 0 6 C0 4.02 0 2.04 0 0 Z " fill="#233770" transform="translate(100,94)"/>
<path d="M0 0 C0.66 0 1.32 0 2 0 C2 0.66 2 1.32 2 2 C2.99 2 3.98 2 5 2 C5.33 1.34 5.66 0.68 6 0 C6 1.98 6 3.96 6 6 C5.67 5.34 5.34 4.68 5 4 C4.01 4 3.02 4 2 4 C2 4.66 2 5.32 2 6 C1.34 6 0.68 6 0 6 C0 4.02 0 2.04 0 0 Z " fill="#1B2C71" transform="translate(163,94)"/>
<path d="M0 0 C0.66 0 1.32 0 2 0 C2 0.66 2 1.32 2 2 C2.99 2 3.98 2 5 2 C5.33 1.34 5.66 0.68 6 0 C6 1.98 6 3.96 6 6 C5.67 5.34 5.34 4.68 5 4 C4.01 4 3.02 4 2 4 C2 4.66 2 5.32 2 6 C1.34 6 0.68 6 0 6 C0 4.02 0 2.04 0 0 Z " fill="#1B2C71" transform="translate(127,94)"/>
<path d="M0 0 C1.65 0 3.3 0 5 0 C5 1.32 5 2.64 5 4 C3.68 4 2.36 4 1 4 C0.67 4.66 0.34 5.32 0 6 C0 4.02 0 2.04 0 0 Z " fill="#1E3170" transform="translate(147,94)"/>
<path d="M0 0 C1.98 0 3.96 0 6 0 C6 0.99 6 1.98 6 3 C4.02 3 2.04 3 0 3 C0 2.01 0 1.02 0 0 Z " fill="#6A9267" transform="translate(209,113)"/>
</svg>
