<?xml version="1.0" encoding="UTF-8"?>
<svg version="1.1" xmlns="http://www.w3.org/2000/svg" width="377" height="134">
<path d="M0 0 C124.41 0 248.82 0 377 0 C377 44.22 377 88.44 377 134 C252.59 134 128.18 134 0 134 C0 89.78 0 45.56 0 0 Z " fill="#FDFDFE" transform="translate(0,0)"/>
<path d="M0 0 C10.89 0 21.78 0 33 0 C33 2.31 33 4.62 33 7 C24.42 7 15.84 7 7 7 C7 10.63 7 14.26 7 18 C7.9075 17.896875 8.815 17.79375 9.75 17.6875 C19.08138981 17.76290517 27.32030556 23.20720039 33.8046875 29.47265625 C39.29090784 35.78864301 42.45856405 42.83038947 44 51 C46.04348237 47.60136617 46.29835885 44.85579897 46.4140625 40.921875 C46.45273438 39.76171875 46.49140625 38.6015625 46.53125 37.40625 C46.57765625 35.59640625 46.57765625 35.59640625 46.625 33.75 C46.66367188 32.52796875 46.70234375 31.3059375 46.7421875 30.046875 C46.83642108 27.0314006 46.92203455 24.01593172 47 21 C49.64 21 52.28 21 55 21 C55.08809201 24.81235104 55.1407549 28.62443553 55.1875 32.4375 C55.21263672 33.50677734 55.23777344 34.57605469 55.26367188 35.67773438 C55.36496321 46.71849002 53.26702644 53.79416586 45.51171875 61.82421875 C38.83141568 67.61104427 31.72073115 68.68216945 23.05078125 68.38671875 C18.68346349 67.83311509 15.58813899 66.493592 12 64 C10.4221875 62.948125 10.4221875 62.948125 8.8125 61.875 C4.06649531 57.71252048 1.27186832 51.09497305 0 45 C-0.08384385 43.47351214 -0.11781972 41.94382176 -0.11352539 40.41503906 C-0.11344986 39.51440735 -0.11337433 38.61377563 -0.11329651 37.68585205 C-0.10813522 36.72217712 -0.10297394 35.7585022 -0.09765625 34.765625 C-0.0962413 33.77246277 -0.09482635 32.77930054 -0.09336853 31.75604248 C-0.08777588 28.58733088 -0.0752247 25.41869021 -0.0625 22.25 C-0.05748405 20.10026144 -0.05292131 17.95052177 -0.04882812 15.80078125 C-0.03866022 10.53380492 -0.01908327 5.26698177 0 0 Z " fill="#073E73" transform="translate(33,33)"/>
<path d="M0 0 C4.61859526 2.34436289 7.273062 5.5498752 8.92578125 10.3515625 C9.714137 16.55986406 8.70840793 21.2781285 4.92578125 26.3515625 C1.36021081 29.71852026 -2.30973996 30.61928683 -7.13671875 30.8515625 C-11.85026277 30.62302703 -14.54345963 29.63598959 -18.07421875 26.3515625 C-21.12718205 22.61836334 -22.90991716 19.54274899 -23.57421875 14.7265625 C-22.54003198 7.74580178 -19.51747291 4.40504964 -14.07421875 0.3515625 C-9.91000545 -1.73054415 -4.37639569 -1.36813877 0 0 Z " fill="#083D72" transform="translate(125.07421875,43.6484375)"/>
<path d="M0 0 C8.28402363 0.77305841 14.1936214 3.07445301 20.12109375 9.1875 C26.70723987 17.293526 27.29791307 23.77165116 27 34 C22.01090582 35.66303139 16.70249709 36.08473932 11.7421875 34.09375 C6.71642355 31.11268849 2.64178791 27.28357581 0 22 C-0.08426094 20.3325394 -0.10725143 18.66174813 -0.09765625 16.9921875 C-0.09443359 16.00605469 -0.09121094 15.01992187 -0.08789062 14.00390625 C-0.07951172 12.97136719 -0.07113281 11.93882813 -0.0625 10.875 C-0.05798828 9.83472656 -0.05347656 8.79445313 -0.04882812 7.72265625 C-0.03701952 5.14838038 -0.02055075 2.57421854 0 0 Z " fill="#FAFCFD" transform="translate(41,59)"/>
<path d="M0 0 C4.06610902 2.10835283 6.29054187 3.77663286 8 8 C8.65528607 11.79376145 8.86351149 15.4527415 6.94921875 18.8828125 C4.64385555 21.69821181 2.73242307 23.78864439 -0.953125 24.23828125 C-6.47526891 24.41671787 -9.72548737 23.857487 -14 20 C-16.32396089 16.09152033 -16.61695986 12.47295896 -16 8 C-11.81936945 1.53669387 -7.87160667 -1.06808046 0 0 Z " fill="#0A3F74" transform="translate(248,50)"/>
<path d="M0 0 C11.00450614 0 18.92099708 3.83759846 26.8046875 11.48046875 C32.85686232 18.4264701 35.85796675 25.92280469 37 35 C35.8803014 36.00593243 34.7540588 37.0045849 33.625 38 C32.99851563 38.556875 32.37203125 39.11375 31.7265625 39.6875 C30 41 30 41 28 41 C27.97421875 40.31035156 27.9484375 39.62070313 27.921875 38.91015625 C27.41450132 30.5038968 25.51956377 22.86876197 19.75 16.4140625 C14.31500685 12.02239393 7.77829697 9.35565939 1 8 C1 14.27 1 20.54 1 27 C0.67 27 0.34 27 0 27 C0 18.09 0 9.18 0 0 Z " fill="#0D7AC9" transform="translate(40,51)"/>
<path d="M0 0 C2.31 0 4.62 0 7 0 C7 3.3 7 6.6 7 10 C8.216875 9.896875 9.43375 9.79375 10.6875 9.6875 C13.95919903 9.41023737 14.98569402 9.99008336 17.75 11.90625 C20.9033907 16.24216221 20.56506816 19.60182458 20.3125 24.8125 C20.28994141 25.69615234 20.26738281 26.57980469 20.24414062 27.49023438 C20.18547428 29.6608891 20.09579979 31.8306669 20 34 C18.02 34 16.04 34 14 34 C13.67 28.06 13.34 22.12 13 16 C11.02 16 9.04 16 7 16 C7 21.94 7 27.88 7 34 C4.69 34 2.38 34 0 34 C0 22.78 0 11.56 0 0 Z " fill="#FF7041" transform="translate(324,40)"/>
<path d="M0 0 C1.04671875 -0.04898438 2.0934375 -0.09796875 3.171875 -0.1484375 C6.25 0.375 6.25 0.375 9.12109375 2.28515625 C12.11368673 6.62853431 11.81155084 10.04938959 11.5625 15.1875 C11.53994141 16.07115234 11.51738281 16.95480469 11.49414062 17.86523438 C11.43547428 20.0358891 11.34579979 22.2056669 11.25 24.375 C8.66554227 24.4831866 6.08562648 24.56237237 3.5 24.625 C2.77039063 24.65851563 2.04078125 24.69203125 1.2890625 24.7265625 C-2.28084849 24.79146997 -4.31841859 24.69257878 -7.234375 22.546875 C-9.29909509 19.5881524 -9.33903864 17.90923186 -8.75 14.375 C-6.8829009 12.07224444 -5.39352259 10.69676129 -2.75 9.375 C-0.4170134 9.33477609 1.91706666 9.33179753 4.25 9.375 C4.25 8.385 4.25 7.395 4.25 6.375 C0.62 6.375 -3.01 6.375 -6.75 6.375 C-6.75 -0.43650519 -6.21112765 0.19693819 0 0 Z " fill="#114477" transform="translate(188.75,49.625)"/>
<path d="M0 0 C3.62416894 1.64734952 6.12851416 3.45402683 8 7 C8 9.31 8 11.62 8 14 C3.05 14 -1.9 14 -7 14 C-3.64830692 18.12784228 -3.64830692 18.12784228 -0.640625 18.390625 C0.14828125 18.34421875 0.9371875 18.2978125 1.75 18.25 C2.94882812 18.19585937 2.94882812 18.19585937 4.171875 18.140625 C5.07679688 18.07101563 5.07679688 18.07101563 6 18 C6 19.65 6 21.3 6 23 C2.03716439 24.98141781 -2.69210238 24.55820645 -7 24 C-10.17852316 22.35551311 -12.37801764 20.24396473 -14 17 C-14.58118751 12.23616799 -14.45088085 8.85511886 -12.1875 4.5625 C-8.33503716 0.04961496 -5.7977893 -0.49980942 0 0 Z " fill="#FF6C3B" transform="translate(291,50)"/>
<path d="M0 0 C2.32083702 1.95820624 3.87347587 3.57694466 4.22705078 6.68041992 C4.21657715 7.41881104 4.20610352 8.15720215 4.1953125 8.91796875 C4.18886719 9.72041016 4.18242187 10.52285156 4.17578125 11.34960938 C4.15902344 12.18298828 4.14226562 13.01636719 4.125 13.875 C4.11597656 14.71998047 4.10695312 15.56496094 4.09765625 16.43554688 C4.07410703 18.51965243 4.03823647 20.60361217 4 22.6875 C1.69 22.6875 -0.62 22.6875 -3 22.6875 C-3.33 17.0775 -3.66 11.4675 -4 5.6875 C-6.97 5.1925 -6.97 5.1925 -10 4.6875 C-10 10.6275 -10 16.5675 -10 22.6875 C-11.98 22.6875 -13.96 22.6875 -16 22.6875 C-16 15.0975 -16 7.5075 -16 -0.3125 C-10.73926821 -2.06607726 -5.10888089 -2.23513539 0 0 Z " fill="#0D4074" transform="translate(154,51.3125)"/>
<path d="M0 0 C8.25 0 16.5 0 25 0 C25 1.98 25 3.96 25 6 C22.03 6 19.06 6 16 6 C16 14.25 16 22.5 16 31 C13.69 31 11.38 31 9 31 C9 22.75 9 14.5 9 6 C6.03 6 3.06 6 0 6 C0 4.02 0 2.04 0 0 Z " fill="#FF6D3D" transform="translate(254,43)"/>
<path d="M0 0 C2.90567066 0.88784381 3.86322363 1.83492507 5.8125 4.1875 C7.39739585 7.94120071 7.06435104 10.09737951 6 14 C3.35465019 17.24268686 1.41931207 18.80645745 -2.75 19.375 C-6.22630637 18.97388773 -8.26944512 18.086378 -10.85546875 15.69140625 C-12.73366826 12.91577353 -12.75643284 10.43842664 -12.515625 7.16015625 C-10.91381784 0.44955504 -6.20363325 -0.78955332 0 0 Z " fill="#F8FAFB" transform="translate(121,49)"/>
<path d="M0 0 C2.31 0 4.62 0 7 0 C7 2.31 7 4.62 7 7 C9.31 7 11.62 7 14 7 C14 8.65 14 10.3 14 12 C11.69 12 9.38 12 7 12 C7.33 15.63 7.66 19.26 8 23 C12.47702364 24.06537205 12.47702364 24.06537205 15 24 C15.042721 25.66611905 15.04063832 27.33382885 15 29 C13.43022426 30.56977574 11.85803613 30.20737081 9.6875 30.25 C6.66473395 30.21636031 5.21517606 30.11296743 2.5 28.6875 C-0.29192719 25.54658191 -0.11884448 22.46160599 -0.09765625 18.45703125 C-0.09443359 17.38388672 -0.09121094 16.31074219 -0.08789062 15.20507812 C-0.07951172 14.08552734 -0.07113281 12.96597656 -0.0625 11.8125 C-0.05798828 10.68134766 -0.05347656 9.55019531 -0.04882812 8.38476562 C-0.03703498 5.58979073 -0.0205765 2.7949218 0 0 Z " fill="#0A3F73" transform="translate(162,44)"/>
<path d="M0 0 C0.79921875 0.01804688 1.5984375 0.03609375 2.421875 0.0546875 C3.02515625 0.07789063 3.6284375 0.10109375 4.25 0.125 C5.375 3.875 5.375 3.875 4.25 6.125 C2.4375 6.50390625 2.4375 6.50390625 0.25 6.6875 C-2.53932058 6.75165408 -2.53932058 6.75165408 -4.75 8.125 C-4.97918242 12.14157143 -4.97918242 12.14157143 -4.75 16.125 C-2.98863645 18.30831689 -2.98863645 18.30831689 -0.8046875 18.3203125 C2.22265625 18.22265625 2.22265625 18.22265625 5.25 18.125 C5.292721 19.79111905 5.29063832 21.45882885 5.25 23.125 C3.53429563 24.84070437 1.40801623 24.49838644 -0.9375 24.625 C-4.08912421 24.5880669 -6.10020404 24.51758506 -8.8125 22.87890625 C-11.83636584 19.73146897 -13.13092154 16.92632707 -13.375 12.5625 C-13.06173764 8.1917442 -11.66885301 5.44924927 -8.75 2.125 C-5.74081825 0.24426141 -3.52089684 -0.10355579 0 0 Z " fill="#FF6C3C" transform="translate(314.75,49.875)"/>
<path d="M0 0 C0.79921875 0.01804688 1.5984375 0.03609375 2.421875 0.0546875 C3.02515625 0.07789063 3.6284375 0.10109375 4.25 0.125 C4.25 2.105 4.25 4.085 4.25 6.125 C2.27 6.125 0.29 6.125 -1.75 6.125 C-1.75 12.065 -1.75 18.005 -1.75 24.125 C-4.06 24.125 -6.37 24.125 -8.75 24.125 C-8.75 16.865 -8.75 9.605 -8.75 2.125 C-5.00631258 0.25315629 -3.9099209 -0.11499767 0 0 Z " fill="#144779" transform="translate(212.75,49.875)"/>
<path d="M0 0 C4.95 0 9.9 0 15 0 C15 4.95 15 9.9 15 15 C12.36 15 9.72 15 7 15 C7 12.36 7 9.72 7 7 C4.69 7 2.38 7 0 7 C0 4.69 0 2.38 0 0 Z " fill="#FF7243" transform="translate(73,33)"/>
<path d="M0 0 C2.31 0 4.62 0 7 0 C7 7.92 7 15.84 7 24 C4.69 24 2.38 24 0 24 C0 16.08 0 8.16 0 0 Z " fill="#315483" transform="translate(221,50)"/>
<path d="M0 0 C1.875 1.0625 1.875 1.0625 3 3 C3.3125 6.5625 3.3125 6.5625 3 10 C1 12 1 12 -2.4375 12.3125 C-6 12 -6 12 -7.9375 10.875 C-9.50422245 8.11019567 -9.38976435 6.11811483 -9 3 C-6.79086995 -0.68188342 -4.01844539 -0.50230567 0 0 Z " fill="#F8F9FA" transform="translate(247,56)"/>
<path d="M0 0 C6.0546875 -0.1953125 6.0546875 -0.1953125 8 0 C8.66 0.66 9.32 1.32 10 2 C9.74057202 4.01056683 9.47688988 6.02109845 9.16015625 8.0234375 C8.95785013 10.52019105 9.56255279 11.97066276 11 14 C9.125 13.8125 9.125 13.8125 7 13 C5.75 10.4375 5.75 10.4375 5 8 C4.01 8 3.02 8 2 8 C2 9.98 2 11.96 2 14 C1.34 14 0.68 14 0 14 C0 9.38 0 4.76 0 0 Z " fill="#07326C" transform="translate(186,87)"/>
<path d="M0 0 C4.22999675 1.05749919 4.54930356 1.20032488 6.75 4.5625 C7.17796875 5.20316406 7.6059375 5.84382813 8.046875 6.50390625 C8.36140625 6.99761719 8.6759375 7.49132812 9 8 C9.33 5.36 9.66 2.72 10 0 C10.66 0 11.32 0 12 0 C12 4.62 12 9.24 12 14 C7.61364256 11.80682128 6.48743095 10.08649371 4 6 C3.67 8.64 3.34 11.28 3 14 C2.01 14 1.02 14 0 14 C0 9.38 0 4.76 0 0 Z " fill="#113B72" transform="translate(124,87)"/>
<path d="M0 0 C2.97 0 5.94 0 9 0 C9 0.66 9 1.32 9 2 C7.02 2 5.04 2 3 2 C3 2.99 3 3.98 3 5 C4.98 5 6.96 5 9 5 C9 5.99 9 6.98 9 8 C7.02 8 5.04 8 3 8 C3 9.32 3 10.64 3 12 C5.31 12 7.62 12 10 12 C10 12.66 10 13.32 10 14 C6.7 14 3.4 14 0 14 C0 9.38 0 4.76 0 0 Z " fill="#1C4679" transform="translate(170,87)"/>
<path d="M0 0 C1.32 0 2.64 0 4 0 C4 6.6 4 13.2 4 20 C2.68 20 1.36 20 0 20 C0 13.4 0 6.8 0 0 Z " fill="#003C71" transform="translate(223,52)"/>
<path d="M0 0 C0.99 0 1.98 0 3 0 C3.33 3.63 3.66 7.26 4 11 C5.32 11 6.64 11 8 11 C8.33 7.37 8.66 3.74 9 0 C9.66 0 10.32 0 11 0 C11.05389087 1.95803507 11.09274217 3.91648909 11.125 5.875 C11.14820312 6.96554688 11.17140625 8.05609375 11.1953125 9.1796875 C11 12 11 12 9 14 C3.79846497 14.55335479 3.79846497 14.55335479 1.3203125 12.8359375 C-0.52582316 10.26882578 -0.29776444 8.43665913 -0.1875 5.3125 C-0.16042969 4.31863281 -0.13335937 3.32476562 -0.10546875 2.30078125 C-0.07066406 1.54152344 -0.03585938 0.78226562 0 0 Z " fill="#154679" transform="translate(106,87)"/>
<path d="M0 0 C0.78375 0.04125 1.5675 0.0825 2.375 0.125 C2.705 1.115 3.035 2.105 3.375 3.125 C1.725 3.125 0.075 3.125 -1.625 3.125 C-1.625 4.115 -1.625 5.105 -1.625 6.125 C-0.820625 6.434375 -0.01625 6.74375 0.8125 7.0625 C3.375 8.125 3.375 8.125 4.375 9.125 C4.5 11.625 4.5 11.625 4.375 14.125 C3.375 15.125 3.375 15.125 1.52734375 15.22265625 C-0.5234375 15.19010417 -2.57421875 15.15755208 -4.625 15.125 C-4.295 14.135 -3.965 13.145 -3.625 12.125 C-1.975 12.455 -0.325 12.785 1.375 13.125 C0.68614204 9.91438622 0.68614204 9.91438622 -2.1875 8.75 C-3.3940625 7.945625 -3.3940625 7.945625 -4.625 7.125 C-5.0625 4.5625 -5.0625 4.5625 -4.625 2.125 C-2.625 0.125 -2.625 0.125 0 0 Z " fill="#22487A" transform="translate(206.625,85.875)"/>
<path d="M0 0 C1.32 0.33 2.64 0.66 4 1 C4.66 3.97 5.32 6.94 6 10 C6.66 10 7.32 10 8 10 C8.10957031 9.36191406 8.21914062 8.72382812 8.33203125 8.06640625 C8.56986328 6.82697266 8.56986328 6.82697266 8.8125 5.5625 C8.96332031 4.73878906 9.11414063 3.91507812 9.26953125 3.06640625 C9.51058594 2.38449219 9.75164062 1.70257813 10 1 C10.99 0.67 11.98 0.34 13 0 C12.46515599 5.34844008 10.53309233 9.35796103 8 14 C7.01 14 6.02 14 5 14 C3.35 9.38 1.7 4.76 0 0 Z " fill="#0E3B72" transform="translate(151,87)"/>
<path d="M0 0 C1.32 0.33 2.64 0.66 4 1 C4.33 2.32 4.66 3.64 5 5 C6.70840281 3.36587557 7.93453047 2.13093906 9 0 C9.99 0 10.98 0 12 0 C11.566875 0.9590625 11.566875 0.9590625 11.125 1.9375 C9.6752275 5.88410292 8.84221938 9.8874607 8 14 C7.01 14 6.02 14 5 14 C4.731875 12.80375 4.46375 11.6075 4.1875 10.375 C3.25912994 6.62144624 1.86951157 3.39911194 0 0 Z " fill="#1A4579" transform="translate(241,87)"/>
<path d="M0 0 C2.625 0.375 2.625 0.375 5 1 C5.625 3.375 5.625 3.375 6 6 C5.34 6.66 4.68 7.32 4 8 C1.375 7.625 1.375 7.625 -1 7 C-1.625 4.625 -1.625 4.625 -2 2 C-1.34 1.34 -0.68 0.68 0 0 Z " fill="#164779" transform="translate(223,40)"/>
<path d="M0 0 C1.65 0 3.3 0 5 0 C5.103125 0.680625 5.20625 1.36125 5.3125 2.0625 C6.14725019 5.62915989 7.49472754 8.66222194 9 12 C7.125 11.8125 7.125 11.8125 5 11 C3.75 8.4375 3.75 8.4375 3 6 C1.68 6.33 0.36 6.66 -1 7 C-0.67 4.69 -0.34 2.38 0 0 Z " fill="#184377" transform="translate(188,89)"/>
<path d="M0 0 C3.63 0 7.26 0 11 0 C11 0.66 11 1.32 11 2 C9.68 2 8.36 2 7 2 C7 5.96 7 9.92 7 14 C6.34 14 5.68 14 5 14 C5 10.04 5 6.08 5 2 C3.35 2 1.7 2 0 2 C0 1.34 0 0.68 0 0 Z " fill="#05316C" transform="translate(225,87)"/>
<path d="M0 0 C0.99 0 1.98 0 3 0 C3 4.95 3 9.9 3 15 C2.01 15 1.02 15 0 15 C0 10.05 0 5.1 0 0 Z " fill="#264C7D" transform="translate(143,86)"/>
<path d="M0 0 C0.99 0 1.98 0 3 0 C3 4.95 3 9.9 3 15 C2.01 15 1.02 15 0 15 C0 10.05 0 5.1 0 0 Z " fill="#285080" transform="translate(217,86)"/>
<path d="M0 0 C1.134375 0.020625 2.26875 0.04125 3.4375 0.0625 C3.4375 1.7125 3.4375 3.3625 3.4375 5.0625 C1.1275 5.0625 -1.1825 5.0625 -3.5625 5.0625 C-4.125 3.125 -4.125 3.125 -4.5625 1.0625 C-3.5625 0.0625 -3.5625 0.0625 0 0 Z " fill="#DFE4EA" transform="translate(190.5625,63.9375)"/>
<path d="M0 0 C0.66 0 1.32 0 2 0 C2.05389087 1.95803507 2.09274217 3.91648909 2.125 5.875 C2.14820312 6.96554688 2.17140625 8.05609375 2.1953125 9.1796875 C2 12 2 12 0 14 C-3.125 14.125 -3.125 14.125 -6 14 C-5.67 13.34 -5.34 12.68 -5 12 C-3.68 11.67 -2.36 11.34 -1 11 C-0.67 7.37 -0.34 3.74 0 0 Z " fill="#012F6A" transform="translate(115,87)"/>
<path d="M0 0 C0.99 0.33 1.98 0.66 3 1 C3.042721 2.66611905 3.04063832 4.33382885 3 6 C2 7 2 7 0.15234375 7.09765625 C-1.8984375 7.06510417 -3.94921875 7.03255208 -6 7 C-5.67 6.01 -5.34 5.02 -5 4 C-3.35 4.33 -1.7 4.66 0 5 C0 3.35 0 1.7 0 0 Z " fill="#143D74" transform="translate(208,94)"/>
<path d="M0 0 C1.98 0 3.96 0 6 0 C6.33 1.32 6.66 2.64 7 4 C4.36 4 1.72 4 -1 4 C-0.67 2.68 -0.34 1.36 0 0 Z " fill="#FFF4F1" transform="translate(285,56)"/>
<path d="M0 0 C1.98 0.99 1.98 0.99 4 2 C3.01 3.485 3.01 3.485 2 5 C1.60612212 7.32387947 1.26513915 9.65793749 1 12 C0.67 12 0.34 12 0 12 C0 8.04 0 4.08 0 0 Z " fill="#114478" transform="translate(126,88)"/>
<path d="M0 0 C1.65 0 3.3 0 5 0 C5 1.32 5 2.64 5 4 C3.35 4 1.7 4 0 4 C0 2.68 0 1.36 0 0 Z " fill="#E6EAEF" transform="translate(188,89)"/>
<path d="M0 0 C0.33 0.99 0.66 1.98 1 3 C3.00016466 4.20882096 3.00016466 4.20882096 5 5 C4.34 5.66 3.68 6.32 3 7 C1.35 6.01 -0.3 5.02 -2 4 C-1.34 2.68 -0.68 1.36 0 0 Z " fill="#285080" transform="translate(204,89)"/>
<path d="M0 0 C1.32 0.33 2.64 0.66 4 1 C4.33 2.65 4.66 4.3 5 6 C4.01 6.33 3.02 6.66 2 7 C1.34 4.69 0.68 2.38 0 0 Z " fill="#1B4679" transform="translate(151,87)"/>
</svg>
