<?xml version="1.0" encoding="UTF-8"?>
<svg version="1.1" xmlns="http://www.w3.org/2000/svg" width="225" height="225">
<path d="M0 0 C74.25 0 148.5 0 225 0 C225 74.25 225 148.5 225 225 C150.75 225 76.5 225 0 225 C0 150.75 0 76.5 0 0 Z " fill="#FEFEFE" transform="translate(0,0)"/>
<path d="M0 0 C6.05361571 0.50446798 10.77255651 2.70094211 14.75 7.375 C17.72167789 12.03330588 17.47472887 16.98976908 16.75 22.3125 C14.98835398 27.59743805 12.17208724 30.15386626 7.75 33.3125 C2.95162627 34.85344116 -2.43829557 35.27353179 -7.25 33.62890625 C-12.58049848 30.86026372 -15.38379057 26.91112828 -17.25 21.3125 C-17.78570806 16.70189788 -17.72334402 13.25918804 -15.625 9.0625 C-10.90076147 3.59232907 -7.26047229 0.69812234 0 0 Z " fill="#FAFAFA" transform="translate(65.25,94.6875)"/>
<path d="M0 0 C5.28 0 10.56 0 16 0 C16.03738281 1.87945312 16.07476562 3.75890625 16.11328125 5.6953125 C16.1789482 8.17189471 16.24539529 10.64845633 16.3125 13.125 C16.33505859 14.3625 16.35761719 15.6 16.38085938 16.875 C16.4340332 18.67324219 16.4340332 18.67324219 16.48828125 20.5078125 C16.51446533 21.60754395 16.54064941 22.70727539 16.56762695 23.84033203 C17.22609619 28.65225122 19.13367833 32.93916201 23 36 C28.09816276 37.69938759 32.38656926 37.63928388 37.3125 35.6875 C40.22485576 33.99796904 40.22485576 33.99796904 43 31 C43 34.96 43 38.92 43 43 C28.81 43 14.62 43 0 43 C0 28.81 0 14.62 0 0 Z " fill="#E21433" transform="translate(168,91)"/>
<path d="M0 0 C2.89809389 -0.16250994 5.78704851 -0.28107636 8.6875 -0.375 C9.50412109 -0.42527344 10.32074219 -0.47554688 11.16210938 -0.52734375 C17.07583422 -0.67099699 17.07583422 -0.67099699 19.69775391 1.23266602 C22.30333502 4.16957411 23 5.7293318 23 9.6875 C21.60940325 14.29385172 21.60940325 14.29385172 19 16 C18.01 16 17.02 16 16 16 C17.40237825 18.32231441 18.82051884 20.6319575 20.25 22.9375 C20.64574219 23.59685547 21.04148437 24.25621094 21.44921875 24.93554688 C23.59275996 28.63730789 23.59275996 28.63730789 27.14746094 30.69750977 C27.75879883 30.79733154 28.37013672 30.89715332 29 31 C29 31.66 29 32.32 29 33 C25.22610987 33.43882443 23.55429445 33.4295782 20.5 31.0625 C17.85707579 27.82491785 15.66918962 24.474212 13.52734375 20.890625 C11.96115083 18.56369899 11.96115083 18.56369899 8 18 C8 22.29 8 26.58 8 31 C9.32 31.33 10.64 31.66 12 32 C8.04 32 4.08 32 0 32 C0.99 31.34 1.98 30.68 3 30 C3.46753419 27.12473445 3.46753419 27.12473445 3.3984375 23.75 C3.40230469 22.5021875 3.40617187 21.254375 3.41015625 19.96875 C3.39855469 18.6590625 3.38695313 17.349375 3.375 16 C3.38660156 14.6903125 3.39820312 13.380625 3.41015625 12.03125 C3.40628906 10.7834375 3.40242188 9.535625 3.3984375 8.25 C3.39505371 7.10015625 3.39166992 5.9503125 3.38818359 4.765625 C3.26008301 3.85296875 3.13198242 2.9403125 3 2 C2.01 1.34 1.02 0.68 0 0 Z " fill="#1C1C1C" transform="translate(90,96)"/>
<path d="M0 0 C6.05361571 0.50446798 10.77255651 2.70094211 14.75 7.375 C17.72167789 12.03330588 17.47472887 16.98976908 16.75 22.3125 C14.98835398 27.59743805 12.17208724 30.15386626 7.75 33.3125 C2.95162627 34.85344116 -2.43829557 35.27353179 -7.25 33.62890625 C-12.58049848 30.86026372 -15.38379057 26.91112828 -17.25 21.3125 C-17.78570806 16.70189788 -17.72334402 13.25918804 -15.625 9.0625 C-10.90076147 3.59232907 -7.26047229 0.69812234 0 0 Z M-11.25 7.3125 C-13.57300146 11.95850293 -12.669914 18.25627521 -12.25 23.3125 C-11.26721251 26.1182819 -10.38087625 27.12243274 -8.25 29.3125 C-7.693125 29.93125 -7.13625 30.55 -6.5625 31.1875 C-2.85710127 32.99012641 0.71316122 32.82522908 4.75 32.3125 C8.59558729 30.8913047 9.52570372 29.70695207 11.5625 26.125 C13.35076131 20.38374001 13.3792552 16.3750587 11.625 10.625 C9.3953804 6.68600537 7.62342709 4.67959433 3.75 2.3125 C-2.91817148 0.84263424 -6.65886179 2.49180488 -11.25 7.3125 Z " fill="#111111" transform="translate(65.25,94.6875)"/>
<path d="M0 0 C3.63 0 7.26 0 11 0 C10.01 0.33 9.02 0.66 8 1 C8.33 5.29 8.66 9.58 9 14 C10.44375 12.5975 11.8875 11.195 13.375 9.75 C14.18710938 8.96109375 14.99921875 8.1721875 15.8359375 7.359375 C17.75583143 5.26620545 18.91633685 3.59602821 20 1 C19.34 0.67 18.68 0.34 18 0 C21.3 0 24.6 0 28 0 C27.360625 0.474375 26.72125 0.94875 26.0625 1.4375 C21.77343214 5.02631188 17.91339128 9.00987556 14 13 C16.7216066 17.26869156 19.63100116 21.00278256 23.0625 24.75 C23.91972656 25.69359375 24.77695313 26.6371875 25.66015625 27.609375 C27.95644526 30.12019678 27.95644526 30.12019678 31 32 C27.8719402 32.50048957 25.11219974 32.66325568 22 32 C19.42042827 29.69558259 17.81196601 26.92218796 16 24 C15.06349375 22.81574077 14.10711674 21.64671731 13.125 20.5 C12.42375 19.675 11.7225 18.85 11 18 C10.01 18.33 9.02 18.66 8 19 C8 22.96 8 26.92 8 31 C8.99 31.33 9.98 31.66 11 32 C7.37 32 3.74 32 0 32 C0.99 31.67 1.98 31.34 3 31 C3 21.1 3 11.2 3 1 C2.01 0.67 1.02 0.34 0 0 Z " fill="#0B0B0B" transform="translate(127,96)"/>
<path d="M0 0 C3.3 0 6.6 0 10 0 C10.05794812 4.27077656 10.09357874 8.54145236 10.125 12.8125 C10.14175781 14.02744141 10.15851563 15.24238281 10.17578125 16.49414062 C10.18222656 17.65751953 10.18867188 18.82089844 10.1953125 20.01953125 C10.20578613 21.09307861 10.21625977 22.16662598 10.22705078 23.27270508 C10 26 10 26 8 29 C5.5625 29.4375 5.5625 29.4375 3 29 C0.78286562 26.75682047 0.04983301 25.40223634 -0.34057617 22.25097656 C-0.32486572 21.22456055 -0.30915527 20.19814453 -0.29296875 19.140625 C-0.28330078 18.02558594 -0.27363281 16.91054687 -0.26367188 15.76171875 C-0.23853516 14.60285156 -0.21339844 13.44398437 -0.1875 12.25 C-0.17396484 11.07566406 -0.16042969 9.90132812 -0.14648438 8.69140625 C-0.1111478 5.79380702 -0.06180979 2.89713573 0 0 Z " fill="#E31A39" transform="translate(193,91)"/>
<path d="M0 0 C3.63 0 7.26 0 11 0 C10.01 0.495 10.01 0.495 9 1 C11.13259754 6.1182341 13.48550061 11.0577081 16 16 C18.48627517 12.9377256 20.09989404 9.8542946 21.6875 6.25 C22.12449219 5.26515625 22.56148437 4.2803125 23.01171875 3.265625 C23.33785156 2.51796875 23.66398437 1.7703125 24 1 C23.34 0.67 22.68 0.34 22 0 C24.97 0 27.94 0 31 0 C30.25234375 0.70125 29.5046875 1.4025 28.734375 2.125 C20.81623849 10.45035496 17.87026922 19.67635642 18 31 C18.99 31.33 19.98 31.66 21 32 C17.37 32 13.74 32 10 32 C10.99 31.34 11.98 30.68 13 30 C14.24339079 26.55618429 13.82575941 23.5168129 13 20 C10.45001116 14.61335201 7.18417914 9.60359592 3.91796875 4.62890625 C3 3 3 3 3 1 C2.01 0.67 1.02 0.34 0 0 Z " fill="#0C0C0C" transform="translate(14,96)"/>
<path d="M0 0 C4.62 0 9.24 0 14 0 C13.67 0.66 13.34 1.32 13 2 C11.35 1.67 9.7 1.34 8 1 C8 5.95 8 10.9 8 16 C9.32 16.33 10.64 16.66 12 17 C10.35 17 8.7 17 7 17 C7.33 21.62 7.66 26.24 8 31 C9.32 31.33 10.64 31.66 12 32 C8.04 32 4.08 32 0 32 C0.99 31.34 1.98 30.68 3 30 C3.46753419 27.12473445 3.46753419 27.12473445 3.3984375 23.75 C3.40230469 22.5021875 3.40617187 21.254375 3.41015625 19.96875 C3.39855469 18.6590625 3.38695313 17.349375 3.375 16 C3.38660156 14.6903125 3.39820312 13.380625 3.41015625 12.03125 C3.40628906 10.7834375 3.40242188 9.535625 3.3984375 8.25 C3.39505371 7.10015625 3.39166992 5.9503125 3.38818359 4.765625 C3.26008301 3.85296875 3.13198242 2.9403125 3 2 C2.01 1.34 1.02 0.68 0 0 Z " fill="#0A0A0A" transform="translate(90,96)"/>
<path d="M0 0 C7 1 7 1 8.9375 2.0625 C10.68947642 5.25728053 10.65695049 8.45689626 10 12 C8.375 14 8.375 14 6 15 C4.02 15 2.04 15 0 15 C0 10.05 0 5.1 0 0 Z " fill="#F4F4F4" transform="translate(98,97)"/>
<path d="M0 0 C3.63 0 7.26 0 11 0 C10.01 0.33 9.02 0.66 8 1 C8 2.04800781 8 3.09601563 8 4.17578125 C8 13.1171875 8 22.05859375 8 31 C8.99 31.33 9.98 31.66 11 32 C7.37 32 3.74 32 0 32 C0.99 31.67 1.98 31.34 3 31 C3 21.1 3 11.2 3 1 C2.01 0.67 1.02 0.34 0 0 Z " fill="#000000" transform="translate(127,96)"/>
<path d="M0 0 C3.3 0 6.6 0 10 0 C9.360625 0.474375 8.72125 0.94875 8.0625 1.4375 C3.21781705 5.49121431 -1.32599072 9.99002546 -5.5234375 14.71484375 C-7 16 -7 16 -11 17 C-11 12.38 -11 7.76 -11 3 C-10.67 3 -10.34 3 -10 3 C-9.67 6.63 -9.34 10.26 -9 14 C-7.53548421 12.58972554 -6.0786107 11.17151204 -4.625 9.75 C-3.40683594 8.56664063 -3.40683594 8.56664063 -2.1640625 7.359375 C-0.24416857 5.26620545 0.91633685 3.59602821 2 1 C1.34 0.67 0.68 0.34 0 0 Z " fill="#333333" transform="translate(145,96)"/>
<path d="M0 0 C2.97 0 5.94 0 9 0 C7.948125 0.8971875 7.948125 0.8971875 6.875 1.8125 C2.84033159 5.78936514 0.54512594 11.00595563 -2 16 C-2.66 15.34 -3.32 14.68 -4 14 C-2.02 9.71 -0.04 5.42 2 1 C1.34 0.67 0.68 0.34 0 0 Z " fill="#202020" transform="translate(36,96)"/>
<path d="M0 0 C2.97 0 5.94 0 9 0 C4.25 4 4.25 4 2 4 C2 3.01 2 2.02 2 1 C1.34 0.67 0.68 0.34 0 0 Z " fill="#141414" transform="translate(36,96)"/>
</svg>
