<?xml version="1.0" encoding="UTF-8"?>
<svg version="1.1" xmlns="http://www.w3.org/2000/svg" width="225" height="225">
<path d="M0 0 C74.25 0 148.5 0 225 0 C225 74.25 225 148.5 225 225 C150.75 225 76.5 225 0 225 C0 150.75 0 76.5 0 0 Z " fill="#FEFDFD" transform="translate(0,0)"/>
<path d="M0 0 C1.19328049 2.38656097 0.97850908 3.6118017 0.8125 6.25 C0.7747002 10.95985559 1.81804034 13.39936144 5 17 C9.5839703 21.24855784 13.34740634 21.39914791 19.31640625 21.23828125 C21.94124455 21.00521701 24.42062373 20.52589225 27 20 C31.28963589 19.6565096 35.36561041 19.38323949 39 22 C40.43304064 24.86608129 40.30644155 26.81300783 40 30 C37.0152428 35.52732814 32.89806122 39.67652134 27 42 C18.3673219 44.05539955 11.00141615 43.84846092 3.1953125 39.48046875 C-2.38548823 35.71690384 -5.5339138 30.52972237 -7 24 C-7.9418998 16.33844915 -6.77424467 9.76587005 -3 3 C-1.36328125 1.21875 -1.36328125 1.21875 0 0 Z " fill="#9FAC09" transform="translate(95,70)"/>
<path d="M0 0 C5.95243015 1.66317901 8.73004835 5.94122481 11.93359375 10.9765625 C13 13 13 13 13 15 C11.81857422 14.98259766 11.81857422 14.98259766 10.61328125 14.96484375 C3.56322594 14.90644092 -3.23035544 15.23841581 -10.22265625 16.171875 C-13 16 -13 16 -15.3359375 14.23046875 C-17 12 -17 12 -17.5625 8.5625 C-17 5 -17 5 -15.25 2.0625 C-10.28522209 -1.08822444 -5.7185145 -0.79085839 0 0 Z " fill="#863812" transform="translate(123,69)"/>
<path d="M0 0 C4.10703441 0.85563217 5.55401113 2.24378009 8 5.625 C8.50951861 9.77393725 8.54666957 13.18699608 6 16.625 C3.04141053 18.66540653 0.54978464 19.1574677 -3 18.625 C-6.4841416 15.72154867 -7.86266321 13.83814163 -8.375 9.3125 C-8 5.625 -8 5.625 -5.875 2.6875 C-3 0.625 -3 0.625 0 0 Z " fill="#F8F8F7" transform="translate(44,119.375)"/>
<path d="M0 0 C0.66 0 1.32 0 2 0 C2 0.99 2 1.98 2 3 C2.84304687 2.97679688 3.68609375 2.95359375 4.5546875 2.9296875 C6.19824219 2.90261719 6.19824219 2.90261719 7.875 2.875 C9.51082031 2.84019531 9.51082031 2.84019531 11.1796875 2.8046875 C14 3 14 3 16 5 C16.1953125 7.6015625 16.1953125 7.6015625 16.125 10.625 C16.10695313 11.62789062 16.08890625 12.63078125 16.0703125 13.6640625 C16.04710938 14.43492187 16.02390625 15.20578125 16 16 C4.625 16 4.625 16 0 15 C0 11.7 0 8.4 0 5 C-0.66 5 -1.32 5 -2 5 C-2 4.34 -2 3.68 -2 3 C-1.34 3 -0.68 3 0 3 C0 2.01 0 1.02 0 0 Z " fill="#F5F4F3" transform="translate(69,122)"/>
<path d="M0 0 C1.875 1.125 1.875 1.125 3 3 C3.54624158 6.66762206 3.47898298 8.3258758 1.3125 11.375 C-1 13 -1 13 -3.5625 13.4375 C-6 13 -6 13 -7.8125 11.9375 C-9.67036623 8.90624457 -9.37133265 6.46577141 -9 3 C-6.84332735 -0.71426957 -4.0099826 -0.50124783 0 0 Z " fill="#7E7162" transform="translate(155,125)"/>
<path d="M0 0 C1.875 1.125 1.875 1.125 3 3 C3.54400387 6.65259739 3.43774093 8.3433886 1.375 11.4375 C-1 13 -1 13 -4.125 12.9375 C-7 12 -7 12 -9 9 C-9.32502803 5.87973093 -9.51151479 3.85252465 -7.875 1.125 C-5.11909116 -0.52854531 -3.14924548 -0.39365568 0 0 Z " fill="#877B6D" transform="translate(110,125)"/>
<path d="M0 0 C4.10703441 0.85563217 5.55401113 2.24378009 8 5.625 C8.50951861 9.77393725 8.54666957 13.18699608 6 16.625 C3.04141053 18.66540653 0.54978464 19.1574677 -3 18.625 C-6.4841416 15.72154867 -7.86266321 13.83814163 -8.375 9.3125 C-8 5.625 -8 5.625 -5.875 2.6875 C-3 0.625 -3 0.625 0 0 Z M-5 4.625 C-5.35639561 6.72917968 -5.35639561 6.72917968 -5.3125 9.0625 C-5.32925781 9.84496094 -5.34601562 10.62742188 -5.36328125 11.43359375 C-4.91506936 14.13732352 -4.20248898 15.02973929 -2 16.625 C1.08995097 16.70723366 1.08995097 16.70723366 4 15.625 C5.62368888 14.04718117 5.62368888 14.04718117 6 11.625 C5.77454348 6.57963616 5.77454348 6.57963616 3 2.625 C-1.50480277 2.1145042 -1.50480277 2.1145042 -5 4.625 Z " fill="#897E70" transform="translate(44,119.375)"/>
<path d="M0 0 C2.875 -0.125 2.875 -0.125 6 0 C8 2 8 2 8.1953125 4.6015625 C8.17210938 5.59929687 8.14890625 6.59703125 8.125 7.625 C8.10695313 8.62789062 8.08890625 9.63078125 8.0703125 10.6640625 C8.03550781 11.82035156 8.03550781 11.82035156 8 13 C1.9453125 13.1953125 1.9453125 13.1953125 0 13 C-0.66 12.34 -1.32 11.68 -2 11 C-1.625 8.375 -1.625 8.375 -1 6 C2.465 5.505 2.465 5.505 6 5 C5.34 4.01 4.68 3.02 4 2 C1.41619823 1.74969023 1.41619823 1.74969023 -1 2 C-0.67 1.34 -0.34 0.68 0 0 Z " fill="#92877A" transform="translate(77,125)"/>
<path d="M0 0 C1.45880109 0.14107747 2.91703551 0.28802415 4.375 0.4375 C5.59316406 0.55931641 5.59316406 0.55931641 6.8359375 0.68359375 C9 1 9 1 11 2 C11 2.66 11 3.32 11 4 C11.99 4 12.98 4 14 4 C14.33 3.34 14.66 2.68 15 2 C15.33 2.99 15.66 3.98 16 5 C14.35 5 12.7 5 11 5 C11 5.66 11 6.32 11 7 C12.32 7.33 13.64 7.66 15 8 C13.35 8 11.7 8 10 8 C9.34 6.68 8.68 5.36 8 4 C7.67 5.65 7.34 7.3 7 9 C5.02 9 3.04 9 1 9 C-1.125 2.25 -1.125 2.25 0 0 Z " fill="#F3F2F0" transform="translate(33,148)"/>
<path d="M0 0 C3 0.25 3 0.25 5 2.25 C5.125 4.875 5.125 4.875 5 7.25 C2.36 7.25 -0.28 7.25 -3 7.25 C-2.67 8.24 -2.34 9.23 -2 10.25 C0.97 10.745 0.97 10.745 4 11.25 C3.67 11.91 3.34 12.57 3 13.25 C0.3335118 13.46620175 -1.44004321 13.55894168 -3.8125 12.25 C-5.78587049 8.92642865 -5.30312838 6.06941755 -5 2.25 C-3 0.25 -3 0.25 0 0 Z " fill="#897D6F" transform="translate(173,124.75)"/>
<path d="M0 0 C0.9075 0.165 1.815 0.33 2.75 0.5 C5.91372977 0.98672766 7.94173339 0.80954116 11 0 C11.33 1.32 11.66 2.64 12 4 C10.35 4 8.7 4 7 4 C7 4.66 7 5.32 7 6 C8.32 6.33 9.64 6.66 11 7 C9.18757948 7.02687279 7.37504767 7.04633715 5.5625 7.0625 C4.55316406 7.07410156 3.54382813 7.08570313 2.50390625 7.09765625 C0 7 0 7 -1 6 C-1.125 3.5 -1.125 3.5 -1 1 C-0.67 0.67 -0.34 0.34 0 0 Z " fill="#CEC9C4" transform="translate(199,149)"/>
<path d="M0 0 C1.32 0 2.64 0 4 0 C5.299375 -0.061875 5.299375 -0.061875 6.625 -0.125 C9 0 9 0 11 2 C11.1953125 4.3828125 11.1953125 4.3828125 11.125 7.125 C11.10695313 8.03507813 11.08890625 8.94515625 11.0703125 9.8828125 C11.04710938 10.58148438 11.02390625 11.28015625 11 12 C10.34 12 9.68 12 9 12 C8.67 9.03 8.34 6.06 8 3 C6.68 3 5.36 3 4 3 C3.67 6.3 3.34 9.6 3 13 C2.01 13 1.02 13 0 13 C0 8.71 0 4.42 0 0 Z " fill="#8D8275" transform="translate(54,125)"/>
<path d="M0 0 C0.66 0 1.32 0 2 0 C2 2.31 2 4.62 2 7 C2.94875 6.79375 3.8975 6.5875 4.875 6.375 C6.421875 6.189375 6.421875 6.189375 8 6 C10 8 10 8 10.1953125 10.3828125 C10.16050781 11.74019531 10.16050781 11.74019531 10.125 13.125 C10.10695312 14.03507813 10.08890625 14.94515625 10.0703125 15.8828125 C10.03550781 16.93082031 10.03550781 16.93082031 10 18 C9.34 18 8.68 18 8 18 C7.67 15.03 7.34 12.06 7 9 C5.68 9 4.36 9 3 9 C2.67 12.3 2.34 15.6 2 19 C1.34 19 0.68 19 0 19 C0 12.73 0 6.46 0 0 Z " fill="#796B5B" transform="translate(133,119)"/>
<path d="M0 0 C0 0.66 0 1.32 0 2 C-1.98 2.33 -3.96 2.66 -6 3 C-6 3.99 -6 4.98 -6 6 C-5.030625 6.474375 -4.06125 6.94875 -3.0625 7.4375 C0 9 0 9 1 10 C1.3125 12.375 1.3125 12.375 1 15 C-1.23738248 17.40311451 -2.46340904 17.96341425 -5.75 18.1875 C-6.86375 18.0946875 -6.86375 18.0946875 -8 18 C-8 17.01 -8 16.02 -8 15 C-6.02 15 -4.04 15 -2 15 C-2 13.68 -2 12.36 -2 11 C-5.465 9.02 -5.465 9.02 -9 7 C-9.1875 4.625 -9.1875 4.625 -9 2 C-5.5647952 -0.29013653 -4.014669 -0.17842973 0 0 Z " fill="#817566" transform="translate(129,120)"/>
<path d="M0 0 C1.9375 1.375 1.9375 1.375 2.8125 3.8125 C2.9375 6.375 2.9375 6.375 0.9375 9.375 C-3.9375 8.5 -3.9375 8.5 -5.0625 7.375 C-4.75 3.875 -4.75 3.875 -4.0625 0.375 C-2.0625 -0.625 -2.0625 -0.625 0 0 Z " fill="#F4F3F2" transform="translate(153.0625,126.625)"/>
<path d="M0 0 C2.375 -0.125 2.375 -0.125 5 0 C7 2 7 2 7.25 4.5 C7 7 7 7 5 9 C0.44444444 8.44444444 0.44444444 8.44444444 -1 7 C-0.71269945 4.66055264 -0.38063221 2.3260857 0 0 Z " fill="#F4F3F2" transform="translate(104,127)"/>
<path d="M0 0 C1.67004829 0.31595508 3.33637583 0.65179959 5 1 C6.32 1 7.64 1 9 1 C8.67 2.98 8.34 4.96 8 7 C1.84765625 7.09765625 1.84765625 7.09765625 0 7 C-1 6 -1 6 -1.125 3.5 C-1 1 -1 1 0 0 Z " fill="#A39A90" transform="translate(18,149)"/>
<path d="M0 0 C1.52519276 0.08937803 3.04681929 0.24537146 4.5625 0.4375 C5.80193359 0.59025391 5.80193359 0.59025391 7.06640625 0.74609375 C7.70449219 0.82988281 8.34257813 0.91367188 9 1 C9 2.32 9 3.64 9 5 C8.01 5 7.02 5 6 5 C6 5.66 6 6.32 6 7 C6.99 6.67 7.98 6.34 9 6 C9 6.66 9 7.32 9 8 C6.03 8 3.06 8 0 8 C-0.38063221 5.6739143 -0.71269945 3.33944736 -1 1 C-0.67 0.67 -0.34 0.34 0 0 Z " fill="#B6AFA7" transform="translate(102,148)"/>
<path d="M0 0 C1.2065625 0.0309375 1.2065625 0.0309375 2.4375 0.0625 C2.1075 0.7225 1.7775 1.3825 1.4375 2.0625 C0.4475 1.7325 -0.5425 1.4025 -1.5625 1.0625 C-1.5625 2.3825 -1.5625 3.7025 -1.5625 5.0625 C0.9125 6.0525 0.9125 6.0525 3.4375 7.0625 C2.5625 11.9375 2.5625 11.9375 1.4375 13.0625 C-0.22867115 13.10313832 -1.89638095 13.105221 -3.5625 13.0625 C-3.8925 12.4025 -4.2225 11.7425 -4.5625 11.0625 C-2.9125 10.7325 -1.2625 10.4025 0.4375 10.0625 C0.4375 9.4025 0.4375 8.7425 0.4375 8.0625 C-2.02576712 6.4178326 -2.02576712 6.4178326 -4.5625 5.0625 C-3.43829114 0.08386076 -3.43829114 0.08386076 0 0 Z " fill="#877B6D" transform="translate(184.5625,124.9375)"/>
<path d="M0 0 C1.67004829 0.31595508 3.33637583 0.65179959 5 1 C6.32 1 7.64 1 9 1 C8.67 2.98 8.34 4.96 8 7 C7.34 7 6.68 7 6 7 C6 6.01 6 5.02 6 4 C4.35 4.33 2.7 4.66 1 5 C2.32 5.66 3.64 6.32 5 7 C3.33388095 7.042721 1.66617115 7.04063832 0 7 C-1 6 -1 6 -1.125 3.5 C-1 1 -1 1 0 0 Z " fill="#A49B91" transform="translate(183,149)"/>
<path d="M0 0 C0.66 0 1.32 0 2 0 C2 0.99 2 1.98 2 3 C2.99 3 3.98 3 5 3 C5 3.66 5 4.32 5 5 C4.01 5 3.02 5 2 5 C2 7.97 2 10.94 2 14 C2.99 14 3.98 14 5 14 C5 14.66 5 15.32 5 16 C3.35 15.67 1.7 15.34 0 15 C0 11.7 0 8.4 0 5 C-0.66 5 -1.32 5 -2 5 C-2 4.34 -2 3.68 -2 3 C-1.34 3 -0.68 3 0 3 C0 2.01 0 1.02 0 0 Z " fill="#7E7162" transform="translate(69,122)"/>
<path d="M0 0 C2.375 1 2.375 1 4 3 C4.33686831 5.75471344 4.18319242 8.2063156 4 11 C3.67 11 3.34 11 3 11 C2.690625 9.865625 2.38125 8.73125 2.0625 7.5625 C1.37075469 4.21224901 1.37075469 4.21224901 0 3 C-1.99958364 2.95919217 -4.00045254 2.95745644 -6 3 C-6.99 5.31 -7.98 7.62 -9 10 C-9.33 10 -9.66 10 -10 10 C-10.48468708 3.57789614 -10.48468708 3.57789614 -8.375 1.0625 C-5.32437685 -0.30225246 -3.31256176 -0.41407022 0 0 Z " fill="#7C6F5F" transform="translate(47,120)"/>
<path d="M0 0 C2.625 0.375 2.625 0.375 5 1 C5.042721 2.66611905 5.04063832 4.33382885 5 6 C4 7 4 7 1.4375 7.0625 C0.2309375 7.0315625 0.2309375 7.0315625 -1 7 C-1.625 4.625 -1.625 4.625 -2 2 C-1.34 1.34 -0.68 0.68 0 0 Z " fill="#8E8275" transform="translate(59,149)"/>
<path d="M0 0 C2 0 4 0 6 0 C6 0.66 6 1.32 6 2 C5.01 2.495 5.01 2.495 4 3 C3.53248212 5.35599235 3.53248212 5.35599235 3.375 8.0625 C3.30023438 8.98160156 3.22546875 9.90070313 3.1484375 10.84765625 C3.09945312 11.55792969 3.05046875 12.26820313 3 13 C2.01 13 1.02 13 0 13 C0 8.71 0 4.42 0 0 Z " fill="#92867A" transform="translate(88,125)"/>
<path d="M0 0 C2 0 4 0 6 0 C6 0.66 6 1.32 6 2 C5.01 2.495 5.01 2.495 4 3 C3.53248212 5.35599235 3.53248212 5.35599235 3.375 8.0625 C3.30023438 8.98160156 3.22546875 9.90070313 3.1484375 10.84765625 C3.09945312 11.55792969 3.05046875 12.26820313 3 13 C2.01 13 1.02 13 0 13 C0 8.71 0 4.42 0 0 Z " fill="#94897D" transform="translate(160,125)"/>
<path d="M0 0 C0.66 0 1.32 0 2 0 C2 1.32 2 2.64 2 4 C3.65 4 5.3 4 7 4 C7.33 2.68 7.66 1.36 8 0 C8 3.3 8 6.6 8 10 C7.67 8.68 7.34 7.36 7 6 C5.35 6 3.7 6 2 6 C2 7.32 2 8.64 2 10 C1.34 10 0.68 10 0 10 C0 6.7 0 3.4 0 0 Z " fill="#9C9287" transform="translate(120,146)"/>
<path d="M0 0 C0.99 0 1.98 0 3 0 C3 4.29 3 8.58 3 13 C2.01 13 1.02 13 0 13 C0 8.71 0 4.42 0 0 Z " fill="#9D9388" transform="translate(96,125)"/>
<path d="M0 0 C2.875 -0.125 2.875 -0.125 6 0 C8 2 8 2 8.1953125 4.3828125 C8.17210938 5.28773438 8.14890625 6.19265625 8.125 7.125 C8.10695313 8.03507813 8.08890625 8.94515625 8.0703125 9.8828125 C8.04710938 10.58148438 8.02390625 11.28015625 8 12 C7.01 11.34 6.02 10.68 5 10 C5.33 8.68 5.66 7.36 6 6 C4.68 5.67 3.36 5.34 2 5 C3.32 5 4.64 5 6 5 C5.34 4.01 4.68 3.02 4 2 C1.41619823 1.74969023 1.41619823 1.74969023 -1 2 C-0.67 1.34 -0.34 0.68 0 0 Z " fill="#7C6E5E" transform="translate(77,125)"/>
<path d="M0 0 C0.66 0 1.32 0 2 0 C2 0.99 2 1.98 2 3 C3.32 3 4.64 3 6 3 C6.33 5.31 6.66 7.62 7 10 C6.34 10 5.68 10 5 10 C5 8.02 5 6.04 5 4 C4.01 4 3.02 4 2 4 C2 5.98 2 7.96 2 10 C1.34 10 0.68 10 0 10 C0 6.7 0 3.4 0 0 Z " fill="#9D9489" transform="translate(153,146)"/>
<path d="M0 0 C0.66 0 1.32 0 2 0 C2 1.32 2 2.64 2 4 C2.99 3.67 3.98 3.34 5 3 C5.66 3.66 6.32 4.32 7 5 C6.34 5 5.68 5 5 5 C5.33 6.98 5.66 8.96 6 11 C5.34 11 4.68 11 4 11 C4 9.02 4 7.04 4 5 C3.34 5 2.68 5 2 5 C2 6.98 2 8.96 2 11 C1.34 11 0.68 11 0 11 C0 7.37 0 3.74 0 0 Z " fill="#A0968A" transform="translate(145,145)"/>
<path d="M0 0 C1 1 1 1 1.09765625 3.28515625 C1.08605469 4.20167969 1.07445312 5.11820313 1.0625 6.0625 C1.05347656 6.98160156 1.04445312 7.90070313 1.03515625 8.84765625 C1.02355469 9.55792969 1.01195312 10.26820313 1 11 C0.34 11 -0.32 11 -1 11 C-1.33 8.03 -1.66 5.06 -2 2 C-3.65 2 -5.3 2 -7 2 C-7 1.34 -7 0.68 -7 0 C-4.31633121 -1.3418344 -2.84719317 -0.73004953 0 0 Z " fill="#837768" transform="translate(142,126)"/>
<path d="M0 0 C1.32 0 2.64 0 4 0 C4.33 1.32 4.66 2.64 5 4 C3.35 4 1.7 4 0 4 C0 4.66 0 5.32 0 6 C1.32 6.33 2.64 6.66 4 7 C2.35 7 0.7 7 -1 7 C-1.625 4.625 -1.625 4.625 -2 2 C-1.34 1.34 -0.68 0.68 0 0 Z " fill="#A79E94" transform="translate(206,149)"/>
<path d="M0 0 C1.99954746 -0.04254356 4.00041636 -0.04080783 6 0 C7 1 7 1 7.0625 4.0625 C7.041875 5.031875 7.02125 6.00125 7 7 C6.34 7 5.68 7 5 7 C5 5.02 5 3.04 5 1 C4.01 1.495 4.01 1.495 3 2 C2.34444881 4.52733235 2.34444881 4.52733235 2 7 C1.34 7 0.68 7 0 7 C0 4.69 0 2.38 0 0 Z " fill="#A1978D" transform="translate(93,149)"/>
<path d="M0 0 C1.32 0 2.64 0 4 0 C4.33 1.32 4.66 2.64 5 4 C3.35 4 1.7 4 0 4 C0 4.66 0 5.32 0 6 C1.32 6.33 2.64 6.66 4 7 C2.35 7 0.7 7 -1 7 C-1.625 4.625 -1.625 4.625 -2 2 C-1.34 1.34 -0.68 0.68 0 0 Z " fill="#A79F95" transform="translate(87,149)"/>
<path d="M0 0 C1.65 0.33 3.3 0.66 5 1 C5 2.98 5 4.96 5 7 C3.02 7 1.04 7 -1 7 C-0.67 5.68 -0.34 4.36 0 3 C0.99 3 1.98 3 3 3 C3 2.34 3 1.68 3 1 C2.01 0.67 1.02 0.34 0 0 Z " fill="#A79E94" transform="translate(138,149)"/>
<path d="M0 0 C0.99 0.33 1.98 0.66 3 1 C2.67 2.98 2.34 4.96 2 7 C-0.3431213 6.74438677 -2.67843403 6.40729228 -5 6 C-5.33 5.34 -5.66 4.68 -6 4 C-4.35 3.67 -2.7 3.34 -1 3 C-0.67 2.01 -0.34 1.02 0 0 Z " fill="#CFCAC5" transform="translate(24,149)"/>
<path d="M0 0 C0 0.66 0 1.32 0 2 C-1.98 2.33 -3.96 2.66 -6 3 C-6.33 4.65 -6.66 6.3 -7 8 C-7.66 7.67 -8.32 7.34 -9 7 C-9.1875 4.625 -9.1875 4.625 -9 2 C-5.5647952 -0.29013653 -4.014669 -0.17842973 0 0 Z " fill="#887B6E" transform="translate(129,120)"/>
<path d="M0 0 C1.67542976 0.28604898 3.34385343 0.61781233 5 1 C5 1.99 5 2.98 5 4 C3.35 4 1.7 4 0 4 C-0.33 4.66 -0.66 5.32 -1 6 C-1.042721 4.33388095 -1.04063832 2.66617115 -1 1 C-0.67 0.67 -0.34 0.34 0 0 Z " fill="#A59C92" transform="translate(131,149)"/>
<path d="M0 0 C0.66 0 1.32 0 2 0 C2 0.66 2 1.32 2 2 C1.34 2 0.68 2 0 2 C0 2.66 0 3.32 0 4 C0.66 4.33 1.32 4.66 2 5 C1.34 5 0.68 5 0 5 C0 6.98 0 8.96 0 11 C-0.66 11 -1.32 11 -2 11 C-2.28571429 3.57142857 -2.28571429 3.57142857 0 0 Z " fill="#A0978D" transform="translate(55,145)"/>
<path d="M0 0 C0.33 0 0.66 0 1 0 C1.32523926 3.57763189 1.42956587 5.39542581 -0.6875 8.375 C-3.38790237 10.27258004 -4.77060081 10.35882213 -8 10 C-6 8 -6 8 -3 7 C-2.67 6.34 -2.34 5.68 -2 5 C-1.34 5 -0.68 5 0 5 C0 3.35 0 1.7 0 0 Z " fill="#92877A" transform="translate(157,128)"/>
<path d="M0 0 C1.32 0 2.64 0 4 0 C3.67 1.65 3.34 3.3 3 5 C1.68 5 0.36 5 -1 5 C-0.67 3.35 -0.34 1.7 0 0 Z " fill="#EFEDEC" transform="translate(79,131)"/>
<path d="M0 0 C0.33 0.66 0.66 1.32 1 2 C1.99 2 2.98 2 4 2 C4.33 1.34 4.66 0.68 5 0 C5.33 0.99 5.66 1.98 6 3 C4.35 3 2.7 3 1 3 C1 3.66 1 4.32 1 5 C2.32 5.33 3.64 5.66 5 6 C3.35 6 1.7 6 0 6 C-0.38218767 4.34385343 -0.71395102 2.67542976 -1 1 C-0.67 0.67 -0.34 0.34 0 0 Z " fill="#978D82" transform="translate(43,150)"/>
<path d="M0 0 C1.485 0.99 1.485 0.99 3 2 C3.375 4.9375 3.375 4.9375 3 8 C1.5 9.875 1.5 9.875 0 11 C0 7.33333333 0 3.66666667 0 0 Z " fill="#7F7263" transform="translate(110,126)"/>
<path d="M0 0 C1.32 0.66 2.64 1.32 4 2 C3.21625 2.20625 2.4325 2.4125 1.625 2.625 C-1.30916286 3.80676612 -1.30916286 3.80676612 -2.3125 7.125 C-2.539375 8.07375 -2.76625 9.0225 -3 10 C-3.33 10 -3.66 10 -4 10 C-4.25 6.6875 -4.25 6.6875 -4 3 C-2 1.0625 -2 1.0625 0 0 Z " fill="#847869" transform="translate(41,120)"/>
<path d="M0 0 C2.475 0.495 2.475 0.495 5 1 C4.34 1.66 3.68 2.32 3 3 C2.35232207 5.57061311 2.35232207 5.57061311 2 8 C1.34 8 0.68 8 0 8 C0 5.36 0 2.72 0 0 Z " fill="#B7B0A8" transform="translate(38,149)"/>
<path d="M0 0 C-0.33 0.99 -0.66 1.98 -1 3 C-2.98 3 -4.96 3 -7 3 C-7 2.01 -7 1.02 -7 0 C-2.25 -1.125 -2.25 -1.125 0 0 Z " fill="#E2DFDC" transform="translate(138,153)"/>
<path d="M0 0 C1.98 0.495 1.98 0.495 4 1 C3.67 2.32 3.34 3.64 3 5 C1.68 4.67 0.36 4.34 -1 4 C-0.67 2.68 -0.34 1.36 0 0 Z " fill="#F0EFEE" transform="translate(59,150)"/>
<path d="M0 0 C0.99 0.33 1.98 0.66 3 1 C3.33 3.64 3.66 6.28 4 9 C3.01 9 2.02 9 1 9 C-0.4783226 6.04335481 -0.06032783 3.25770263 0 0 Z " fill="#978C80" transform="translate(36,125)"/>
<path d="M0 0 C0.99 0.33 1.98 0.66 3 1 C3 3.31 3 5.62 3 8 C2.01 8 1.02 8 0 8 C-0.38063221 5.6739143 -0.71269945 3.33944736 -1 1 C-0.67 0.67 -0.34 0.34 0 0 Z " fill="#9A9085" transform="translate(33,148)"/>
<path d="M0 0 C0.99 0 1.98 0 3 0 C3 1.98 3 3.96 3 6 C2.01 6 1.02 6 0 6 C0 4.02 0 2.04 0 0 Z " fill="#F3F2F1" transform="translate(150,150)"/>
<path d="M0 0 C0.33 0 0.66 0 1 0 C1 2.97 1 5.94 1 9 C1.99 9 2.98 9 4 9 C4 9.66 4 10.32 4 11 C2.35 10.67 0.7 10.34 -1 10 C-0.67 6.7 -0.34 3.4 0 0 Z " fill="#877A6C" transform="translate(70,127)"/>
<path d="M0 0 C1.32 0.66 2.64 1.32 4 2 C4 2.66 4 3.32 4 4 C2.02 4 0.04 4 -2 4 C-1.34 2.68 -0.68 1.36 0 0 Z " fill="#F9F8F8" transform="translate(172,126)"/>
<path d="M0 0 C0.99 0.33 1.98 0.66 3 1 C2.67 2.98 2.34 4.96 2 7 C1.34 7 0.68 7 0 7 C-1.125 2.25 -1.125 2.25 0 0 Z " fill="#B6AEA5" transform="translate(189,149)"/>
</svg>
