<?xml version="1.0" encoding="UTF-8"?>
<svg version="1.1" xmlns="http://www.w3.org/2000/svg" width="225" height="225">
<path d="M0 0 C74.25 0 148.5 0 225 0 C225 74.25 225 148.5 225 225 C150.75 225 76.5 225 0 225 C0 150.75 0 76.5 0 0 Z " fill="#FEFEFE" transform="translate(0,0)"/>
<path d="M0 0 C4.62 0 9.24 0 14 0 C15.98215198 3.60255375 17.96083501 7.20693741 19.9375 10.8125 C20.50146484 11.83666016 21.06542969 12.86082031 21.64648438 13.91601562 C22.18466797 14.89892578 22.72285156 15.88183594 23.27734375 16.89453125 C23.77484131 17.80050049 24.27233887 18.70646973 24.78491211 19.63989258 C26 22 26 22 27 25 C27.33 16.75 27.66 8.5 28 0 C32.29 0 36.58 0 41 0 C41 18.15 41 36.3 41 55 C36.05 55 31.1 55 26 55 C24.74738197 52.52212696 23.49787439 50.04276098 22.25 47.5625 C21.90195313 46.87478516 21.55390625 46.18707031 21.1953125 45.47851562 C18.62961791 40.37088287 16.32754596 35.23697841 14 30 C13.67 37.92 13.34 45.84 13 54 C8.71 54 4.42 54 0 54 C0 36.18 0 18.36 0 0 Z " fill="#0D6BB3" transform="translate(162,87)"/>
<path d="M0 0 C5.61418758 -0.88645067 9.07954323 1.43438284 13.73046875 4.19921875 C17.46219375 7.1601916 18.94309346 10.47040055 20 15 C20.66 15.99 21.32 16.98 22 18 C22 18.99 22 19.98 22 21 C21.34 21 20.68 21 20 21 C20.2784375 21.7425 20.2784375 21.7425 20.5625 22.5 C21.20139296 26.15081689 20.54905291 29.33964724 20 33 C19.41992188 33.18175781 18.83984375 33.36351562 18.2421875 33.55078125 C13.60852707 35.0418106 9.30237645 36.68333576 5 39 C6.25229728 41.7211176 6.25229728 41.7211176 9 44 C12.70001295 44.45251957 16.29013428 44.28783441 20 44 C17.48584169 49.53349797 13.47716763 52.59244416 7.9375 54.8125 C4.86502545 55.84447618 2.26058489 56.46579784 -1 56 C-1.99 55.34 -2.98 54.68 -4 54 C-5.19625 53.835 -6.3925 53.67 -7.625 53.5 C-8.73875 53.335 -9.8525 53.17 -11 53 C-11.33 52.34 -11.66 51.68 -12 51 C-14.01669827 49.86649466 -14.01669827 49.86649466 -16 49 C-16 48.34 -16 47.68 -16 47 C-16.99 47 -17.98 47 -19 47 C-18.7834375 45.93072266 -18.7834375 45.93072266 -18.5625 44.83984375 C-17.5202768 39.46226157 -16.7566048 34.47639208 -17 29 C-22.3290279 30.26003632 -22.3290279 30.26003632 -26.19921875 33.7578125 C-27.12040525 35.88680095 -27.12040525 35.88680095 -28 39 C-32.13163686 34.59365324 -31.5408517 30.03767975 -31.421875 24.28515625 C-31 21 -31 21 -28.75 18 C-27.8425 17.34 -26.935 16.68 -26 16 C-25.443125 14.989375 -24.88625 13.97875 -24.3125 12.9375 C-21.06867798 8.81696933 -17.08461188 7.13600728 -12 6 C-8.41140889 6.34325654 -7.42070224 6.49787152 -5.0625 9.3125 C-4.0415625 10.6428125 -4.0415625 10.6428125 -3 12 C-1.04148656 13.39355764 0.95127113 14.74282547 3 16 C4.38274398 9.18451899 4.38274398 9.18451899 2.0625 2.9375 C1.0415625 1.9784375 1.0415625 1.9784375 0 1 C0 0.67 0 0.34 0 0 Z " fill="#FDFDF9" transform="translate(42,87)"/>
<path d="M0 0 C4.95 0 9.9 0 15 0 C15 18.48 15 36.96 15 56 C10.05 56 5.1 56 0 56 C0 48.08 0 40.16 0 32 C-3.63 32 -7.26 32 -11 32 C-11 39.92 -11 47.84 -11 56 C-15.62 56 -20.24 56 -25 56 C-25 37.85 -25 19.7 -25 1 C-20.38 1 -15.76 1 -11 1 C-11 7.6 -11 14.2 -11 21 C-7.37 21 -3.74 21 0 21 C0 14.07 0 7.14 0 0 Z " fill="#146FB5" transform="translate(142,86)"/>
<path d="M0 0 C4.95 0 9.9 0 15 0 C15.01981934 1.26183105 15.03963867 2.52366211 15.06005859 3.82373047 C15.13598765 8.49418492 15.22472412 13.1643226 15.31738281 17.83447266 C15.35572521 19.85784666 15.39056871 21.88129006 15.421875 23.90478516 C15.46741169 26.80917203 15.52542409 29.71307894 15.5859375 32.6171875 C15.59748871 33.52556366 15.60903992 34.43393982 15.62094116 35.36984253 C15.64081085 36.21056305 15.66068054 37.05128357 15.68115234 37.91748047 C15.69447601 38.65916473 15.70779968 39.400849 15.7215271 40.16500854 C15.85199729 42.2473364 15.85199729 42.2473364 18 44 C22.14509433 44.28602162 22.14509433 44.28602162 26 43 C27.30920503 39.0723849 27.23462868 35.27429369 27.31640625 31.17578125 C27.33718735 30.31438034 27.35796844 29.45297943 27.37937927 28.56547546 C27.44474909 25.81456456 27.50370132 23.06355844 27.5625 20.3125 C27.60569717 18.44725579 27.64931185 16.5820212 27.69335938 14.71679688 C27.80041763 10.14462876 27.90172054 5.5723649 28 1 C32.62 1 37.24 1 42 1 C42.09919164 7.13805474 42.17162165 13.27563853 42.21972656 19.41430664 C42.23978913 21.50065239 42.2670459 23.58694227 42.30175781 25.6730957 C42.35051159 28.67933978 42.37302267 31.68483769 42.390625 34.69140625 C42.41127014 35.61772354 42.43191528 36.54404083 42.45318604 37.49842834 C42.45526082 43.54432397 41.50172438 47.03669345 38 52 C33.0343505 56.48256595 26.15392407 56.39821457 19.8125 56.5 C18.65403564 56.52791626 18.65403564 56.52791626 17.47216797 56.55639648 C12.18523874 56.49770348 9.23686056 55.40242542 5 52 C4.4225 51.54625 3.845 51.0925 3.25 50.625 C-0.72270558 45.46048274 -0.26532811 39.17745127 -0.1953125 33.0078125 C-0.1924826 32.06187225 -0.18965271 31.11593201 -0.18673706 30.1413269 C-0.17558932 27.13575306 -0.15049465 24.13048298 -0.125 21.125 C-0.11496321 19.08073349 -0.10583859 17.03646228 -0.09765625 14.9921875 C-0.07566767 9.99467556 -0.04117509 4.9973892 0 0 Z " fill="#136EB5" transform="translate(70,86)"/>
<path d="M0 0 C0.33 0 0.66 0 1 0 C1.00257812 0.556875 1.00515625 1.11375 1.0078125 1.6875 C1.33907249 8.22436384 3.22526962 12.47065191 8 17 C11.09142184 19.03609416 14.22654975 21 18 21 C16.80375 20.484375 15.6075 19.96875 14.375 19.4375 C9.7794364 17.17242684 7.01707592 14.06848117 4 10 C8.14695129 7.92652435 13.56381476 9.23075275 18 10 C20.78594795 11.23414891 22.83461574 12.83461574 25 15 C26.85287502 15.07226502 28.70833878 15.0838122 30.5625 15.0625 C31.57441406 15.05347656 32.58632813 15.04445312 33.62890625 15.03515625 C34.41136719 15.02355469 35.19382813 15.01195312 36 15 C33.48584169 20.53349797 29.47716763 23.59244416 23.9375 25.8125 C20.86502545 26.84447618 18.26058489 27.46579784 15 27 C14.01 26.34 13.02 25.68 12 25 C10.80375 24.835 9.6075 24.67 8.375 24.5 C7.26125 24.335 6.1475 24.17 5 24 C4.67 23.34 4.34 22.68 4 22 C1.98330173 20.86649466 1.98330173 20.86649466 0 20 C0 19.34 0 18.68 0 18 C-0.99 18 -1.98 18 -3 18 C-2.86722656 17.28714844 -2.73445313 16.57429688 -2.59765625 15.83984375 C-1.62594212 10.56989045 -0.7082546 5.3119095 0 0 Z " fill="#CAB87E" transform="translate(26,116)"/>
<path d="M0 0 C5.61418758 -0.88645067 9.07954323 1.43438284 13.73046875 4.19921875 C17.46219375 7.1601916 18.94309346 10.47040055 20 15 C20.99 16.485 20.99 16.485 22 18 C22 18.99 22 19.98 22 21 C21.34 21 20.68 21 20 21 C20.185625 21.495 20.37125 21.99 20.5625 22.5 C21.20139296 26.15081689 20.54905291 29.33964724 20 33 C18.58398286 33.48108275 17.16715563 33.95978141 15.75 34.4375 C14.96109375 34.70433594 14.1721875 34.97117188 13.359375 35.24609375 C11.25178012 35.91954708 9.15246027 36.49150595 7 37 C8.375 35 8.375 35 10 33 C10.66 33 11.32 33 12 33 C14.28396966 27.12693517 15.53542811 22.31805175 15 16 C14.03839963 13.8204052 14.03839963 13.8204052 13 12 C13.02320313 12.96421875 13.04640625 13.9284375 13.0703125 14.921875 C13.09738281 16.81679687 13.09738281 16.81679687 13.125 18.75 C13.14820313 20.00296875 13.17140625 21.2559375 13.1953125 22.546875 C13.01537302 25.72820492 12.68998582 27.36521896 11 30 C5.20042226 23.04050671 3.76174485 17.70931505 4.125 8.71875 C4.2122815 5.75772674 4.2122815 5.75772674 2 2.8125 C1.34 2.214375 0.68 1.61625 0 1 C0 0.67 0 0.34 0 0 Z " fill="#CAB87D" transform="translate(42,87)"/>
<path d="M0 0 C2.125 2.375 2.125 2.375 4 5 C4.98230498 6.0173873 5.97469597 7.02596117 7 8 C6.44957031 7.84144531 5.89914063 7.68289062 5.33203125 7.51953125 C-0.33669436 6.25664933 -6.70931917 5.88103064 -11.9375 8.6875 C-14.86990974 10.90176858 -16.91112635 12.99202194 -19 16 C-18.67 15.67 -18.34 15.34 -18 15 C-12.01610361 10.29836712 -7.63914579 8.24251256 0 8 C-8.20326409 20.93916914 -8.20326409 20.93916914 -14.625 23.375 C-18.14819204 25.07135172 -18.52246638 25.34104608 -19.9375 28.6875 C-20.288125 29.780625 -20.63875 30.87375 -21 32 C-25.13163686 27.59365324 -24.5408517 23.03767975 -24.421875 17.28515625 C-24 14 -24 14 -21.75 11 C-20.8425 10.34 -19.935 9.68 -19 9 C-18.443125 7.989375 -17.88625 6.97875 -17.3125 5.9375 C-13.16707549 0.67169049 -6.55507866 -2.11133225 0 0 Z " fill="#CAB980" transform="translate(35,94)"/>
<path d="M0 0 C3.91736121 3.38317559 4.86611008 6.66110079 5.375 11.75 C5.28097212 16.67706088 3.23355228 20.69243488 1 25 C-0.32 24.67 -1.64 24.34 -3 24 C-2.34 22.68 -1.68 21.36 -1 20 C-0.67 20.33 -0.34 20.66 0 21 C1.16152902 17.51541293 1.13270324 14.73309492 1.125 11.0625 C1.12886719 9.22365234 1.12886719 9.22365234 1.1328125 7.34765625 C1.02667535 4.67237569 0.79917654 2.53072572 0 0 Z " fill="#F2EED8" transform="translate(53,95)"/>
<path d="M0 0 C3.91204657 1.48387973 4.91062149 3.4898441 7 7 C11.91740799 11.52919157 16.45330327 13.08650743 23 14 C23 14.33 23 14.66 23 15 C16.64489988 15.45393572 12.2647282 14.72330262 7 11 C3.47071854 7.70038979 0.92028605 4.82356824 0 0 Z " fill="#F6F3E0" transform="translate(27,123)"/>
<path d="M0 0 C0.93423645 3.01031744 1.04449911 3.86650268 0 7 C0.66 7 1.32 7 2 7 C2 6.01 2 5.02 2 4 C2.66 4 3.32 4 4 4 C4.33 3.34 4.66 2.68 5 2 C5 3.65 5 5.3 5 7 C3.58398286 7.48108275 2.16715563 7.95978141 0.75 8.4375 C-0.03890625 8.70433594 -0.8278125 8.97117187 -1.640625 9.24609375 C-3.74821988 9.91954708 -5.84753973 10.49150595 -8 11 C-6.625 9 -6.625 9 -5 7 C-4.34 7 -3.68 7 -3 7 C-2.690625 6.030625 -2.38125 5.06125 -2.0625 4.0625 C-1 1 -1 1 0 0 Z " fill="#CCBE88" transform="translate(57,113)"/>
<path d="M0 0 C0.33 0 0.66 0 1 0 C1.07347656 0.90492187 1.07347656 0.90492187 1.1484375 1.828125 C1.22320313 2.62734375 1.29796875 3.4265625 1.375 4.25 C1.44460937 5.03890625 1.51421875 5.8278125 1.5859375 6.640625 C2.01507113 9.085877 2.78600638 10.84836903 4 13 C2.02 13.99 2.02 13.99 0 15 C0 15.66 0 16.32 0 17 C0.66 17.33 1.32 17.66 2 18 C1.34 18.66 0.68 19.32 0 20 C0 19.34 0 18.68 0 18 C-0.99 18 -1.98 18 -3 18 C-2.86722656 17.28714844 -2.73445313 16.57429688 -2.59765625 15.83984375 C-1.62594212 10.56989045 -0.7082546 5.3119095 0 0 Z " fill="#CBBE8C" transform="translate(26,116)"/>
<path d="M0 0 C4.99275057 1.27721526 7.57611908 3.17330957 11 7 C10.01 7 9.02 7 8 7 C7.67 7.99 7.34 8.98 7 10 C3.60582235 6.87378374 1.3937282 4.43458973 0 0 Z " fill="#D0C28D" transform="translate(48,88)"/>
<path d="M0 0 C0.70125 0.268125 1.4025 0.53625 2.125 0.8125 C0.51126664 1.88832224 -1.11774666 2.94757677 -2.8125 3.890625 C-7.4926472 6.54979955 -9.9259178 8.5743416 -11.875 13.8125 C-12.205 12.8225 -12.535 11.8325 -12.875 10.8125 C-10.20581997 5.90120875 -6.14528622 -0.40077954 0 0 Z " fill="#F4EFD8" transform="translate(26.875,101.1875)"/>
<path d="M0 0 C1.65 0.33 3.3 0.66 5 1 C4.01 1.33 3.02 1.66 2 2 C2 2.66 2 3.32 2 4 C3.65 3.67 5.3 3.34 7 3 C7 3.99 7 4.98 7 6 C7.66 6.33 8.32 6.66 9 7 C4.55129785 7.39253254 1.85756507 6.15305957 -2 4 C-1.34 3.67 -0.68 3.34 0 3 C0 2.01 0 1.02 0 0 Z " fill="#CEBC87" transform="translate(37,136)"/>
<path d="M0 0 C0.66 0.33 1.32 0.66 2 1 C1.67 3.64 1.34 6.28 1 9 C0.34 9 -0.32 9 -1 9 C-2.35439668 6.29120665 -2.06501451 3.99066732 -2 1 C-1.34 0.67 -0.68 0.34 0 0 Z " fill="#CEBF84" transform="translate(48,98)"/>
<path d="M0 0 C-0.66 1.32 -1.32 2.64 -2 4 C-2.99 4 -3.98 4 -5 4 C-5 3.34 -5 2.68 -5 2 C-6.32 1.67 -7.64 1.34 -9 1 C-5.846632 0.29925156 -3.27275026 0 0 0 Z " fill="#D0C597" transform="translate(62,131)"/>
<path d="M0 0 C0.33 0 0.66 0 1 0 C1.3125 2.1875 1.3125 2.1875 1 5 C-1.5 7.8125 -1.5 7.8125 -4 10 C-4.33 9.01 -4.66 8.02 -5 7 C-4.54625 6.5875 -4.0925 6.175 -3.625 5.75 C-1.94049626 3.93591905 -1.00734029 2.24714373 0 0 Z " fill="#DDEEF4" transform="translate(111,131)"/>
<path d="M0 0 C-0.66 0.66 -1.32 1.32 -2 2 C-5.41099168 2 -8.63088314 1.50854594 -12 1 C-12 0.67 -12 0.34 -12 0 C-3.42857143 -1.28571429 -3.42857143 -1.28571429 0 0 Z " fill="#E9E4CF" transform="translate(49,125)"/>
<path d="M0 0 C0.33 0 0.66 0 1 0 C1 1.65 1 3.3 1 5 C-0.8125 6.0625 -0.8125 6.0625 -3 7 C-3.99 6.67 -4.98 6.34 -6 6 C-4.68 5.67 -3.36 5.34 -2 5 C-2 4.01 -2 3.02 -2 2 C-1.34 2 -0.68 2 0 2 C0 1.34 0 0.68 0 0 Z " fill="#D2C494" transform="translate(61,115)"/>
</svg>
