<?xml version="1.0" encoding="UTF-8"?>
<svg version="1.1" xmlns="http://www.w3.org/2000/svg" width="200" height="200">
<path d="M0 0 C66 0 132 0 200 0 C200 66 200 132 200 200 C134 200 68 200 0 200 C0 134 0 68 0 0 Z " fill="#FDFDFD" transform="translate(0,0)"/>
<path d="M0 0 C15.51 0 31.02 0 47 0 C47 2.97 47 5.94 47 9 C42.38 9 37.76 9 33 9 C33.59006836 10.30614258 34.18013672 11.61228516 34.78808594 12.95800781 C36.79681379 17.48012797 38.62846114 22.04907678 40.390625 26.671875 C40.69662125 27.46890839 41.00261749 28.26594177 41.31788635 29.08712769 C42.29753688 31.64055161 43.27382457 34.19524579 44.25 36.75 C44.92387864 38.508375 45.59795165 40.26667552 46.2722168 42.02490234 C50.1093449 52.03557499 53.93876492 62.04933875 57.74121094 72.07324219 C59.37167515 76.38452544 59.37167515 76.38452544 61.26171875 80.5859375 C63.20739574 86.94799244 59.90390098 93.49050142 57.5625 99.375 C57.24990234 100.19355469 56.93730469 101.01210937 56.61523438 101.85546875 C54.25539905 107.87230048 54.25539905 107.87230048 52 109 C46.37965962 95.94004515 41.18211503 82.77131326 36.25 69.4375 C34.96532274 65.97720097 33.67849181 62.51770685 32.390625 59.05859375 C32.08736801 58.24360413 31.78411102 57.4286145 31.47166443 56.58892822 C29.39616458 51.02485135 27.24762139 45.49699395 25 40 C24.32055743 38.31032055 23.64220392 36.62020282 22.96484375 34.9296875 C22.63033203 34.09566406 22.29582031 33.26164062 21.95117188 32.40234375 C21.61666016 31.56832031 21.28214844 30.73429687 20.9375 29.875 C20.59912109 29.03324219 20.26074219 28.19148438 19.91210938 27.32421875 C18.93469604 24.88541177 17.96523645 22.44364937 17 20 C16.69852051 19.24364258 16.39704102 18.48728516 16.08642578 17.70800781 C14.90198517 14.66666998 14 12.29388033 14 9 C9.38 9 4.76 9 0 9 C0 6.03 0 3.06 0 0 Z " fill="#070707" transform="translate(48,28)"/>
<path d="M0 0 C3.00924871 1.9095889 4.00284026 5.09069528 5.34765625 8.2578125 C5.63833984 8.91007812 5.92902344 9.56234375 6.22851562 10.234375 C6.80958845 11.54471372 7.38190868 12.85896958 7.9453125 14.17700195 C8.50649466 15.48387122 9.08215191 16.78461658 9.671875 18.07885742 C11.58528084 22.32422663 12.13409199 24.60424251 10.78515625 29.1328125 C9.84573139 31.16197019 8.8591724 33.17156562 7.78515625 35.1328125 C5.16848997 32.51614622 4.06881618 29.48933233 2.66015625 26.1328125 C2.24443359 25.16988281 2.24443359 25.16988281 1.8203125 24.1875 C-0.21484375 19.39535868 -0.21484375 19.39535868 -0.21484375 17.1328125 C-0.87484375 17.1328125 -1.53484375 17.1328125 -2.21484375 17.1328125 C-2.46137695 18.0307251 -2.46137695 18.0307251 -2.71289062 18.94677734 C-4.57406305 25.45961988 -6.97377866 31.5700616 -9.71484375 37.7578125 C-12.38249121 43.83265325 -14.94700508 49.89625616 -17.21484375 56.1328125 C-17.87484375 56.1328125 -18.53484375 56.1328125 -19.21484375 56.1328125 C-21.72980217 50.89331579 -23.43885427 46.91016382 -21.53955078 41.04882812 C-20.59139783 38.65295223 -19.57563737 36.29906804 -18.52734375 33.9453125 C-17.98303711 32.68980591 -17.98303711 32.68980591 -17.42773438 31.40893555 C-16.3694392 28.97772326 -15.2958122 26.55401656 -14.21484375 24.1328125 C-13.92786621 23.48828125 -13.64088867 22.84375 -13.34521484 22.1796875 C-11.99274316 19.15260532 -10.61875719 16.13637732 -9.21484375 13.1328125 C-10.41882813 13.638125 -11.6228125 14.1434375 -12.86328125 14.6640625 C-14.43872505 15.32049742 -16.01425011 15.97673733 -17.58984375 16.6328125 C-18.38390625 16.96667969 -19.17796875 17.30054687 -19.99609375 17.64453125 C-20.75664063 17.96035156 -21.5171875 18.27617188 -22.30078125 18.6015625 C-23.35338135 19.04145508 -23.35338135 19.04145508 -24.42724609 19.49023438 C-26.21484375 20.1328125 -26.21484375 20.1328125 -28.21484375 20.1328125 C-27.59720353 16.5299112 -27.01896679 13.32547468 -25.21484375 10.1328125 C-22.61995049 8.69283775 -20.2664455 7.57480254 -17.52734375 6.5078125 C-16.83189453 6.22164062 -16.13644531 5.93546875 -15.41992188 5.640625 C-14.03218519 5.07049975 -12.64038857 4.51015258 -11.24462891 3.95996094 C-9.90665217 3.41472817 -8.58214388 2.83501518 -7.27490234 2.21972656 C-4.83643047 1.07305257 -2.70802298 0.16238586 0 0 Z " fill="#E40889" transform="translate(142.21484375,20.8671875)"/>
<path d="M0 0 C5.61 0 11.22 0 17 0 C17 3.63 17 7.26 17 11 C19.97 11.495 19.97 11.495 23 12 C23 8.04 23 4.08 23 0 C23.99 0 24.98 0 26 0 C26 4.95 26 9.9 26 15 C23.89625 14.95875 21.7925 14.9175 19.625 14.875 C16.12814514 14.75639927 16.12814514 14.75639927 13 15 C12.34 15.66 11.68 16.32 11 17 C11 16.34 11 15.68 11 15 C9.02 15 7.04 15 5 15 C5 10.71 5 6.42 5 2 C3.35 2 1.7 2 0 2 C0 1.34 0 0.68 0 0 Z " fill="#F0F0F0" transform="translate(148,165)"/>
<path d="M0 0 C3.27855927 1.68410369 4.18535369 4.90908683 5.5625 8.15234375 C5.99852539 9.13074219 5.99852539 9.13074219 6.44335938 10.12890625 C7.0244322 11.43924497 7.59675243 12.75350083 8.16015625 14.0715332 C8.72133841 15.37840247 9.29699566 16.67914783 9.88671875 17.97338867 C11.80012459 22.21875788 12.34893574 24.49877376 11 29.02734375 C10.06057514 31.05650144 9.07401615 33.06609687 8 35.02734375 C5.38333372 32.41067747 4.28365993 29.38386358 2.875 26.02734375 C2.59785156 25.38539062 2.32070312 24.7434375 2.03515625 24.08203125 C0 19.28988993 0 19.28988993 0 17.02734375 C-0.66 17.02734375 -1.32 17.02734375 -2 17.02734375 C-2.33 16.03734375 -2.66 15.04734375 -3 14.02734375 C-2.38125 13.96546875 -1.7625 13.90359375 -1.125 13.83984375 C1.27761141 13.19842475 1.27761141 13.19842475 2.25 10.46484375 C2.62125 9.25828125 2.62125 9.25828125 3 8.02734375 C1.35 8.02734375 -0.3 8.02734375 -2 8.02734375 C-2.33 7.03734375 -2.66 6.04734375 -3 5.02734375 C-5.97 5.02734375 -8.94 5.02734375 -12 5.02734375 C-8.36816617 2.6061212 -4.48628767 0.06133596 0 0 Z " fill="#D41688" transform="translate(142,20.97265625)"/>
<path d="M0 0 C2.4375 1 2.4375 1 4 3 C4.45364856 6.1755399 4.68938436 7.98847886 4 11 C1.9375 13.5625 1.9375 13.5625 -1 15 C-4.8137751 15 -7.02424548 14.84985071 -9.9375 12.3125 C-11.33817538 9.26397123 -11.4842732 7.32073048 -11 4 C-8.04627097 -0.48966812 -5.14336369 -0.64292046 0 0 Z " fill="#171918" transform="translate(67,165)"/>
<path d="M0 0 C2.97 0 5.94 0 9 0 C6.36591401 2.31799567 4.99094182 3.00143024 1.4375 3.5625 C-2.13293138 4.60643766 -2.13293138 4.60643766 -3.1171875 7.34765625 C-3.86739925 9.88765889 -4.49641704 12.40055271 -5 15 C-3.87980469 14.4946875 -2.75960937 13.989375 -1.60546875 13.46875 C-0.13294202 12.81220942 1.33972139 12.15597534 2.8125 11.5 C3.55048828 11.16613281 4.28847656 10.83226562 5.04882812 10.48828125 C6.11713867 10.01455078 6.11713867 10.01455078 7.20703125 9.53125 C7.8616333 9.23798828 8.51623535 8.94472656 9.19067383 8.64257812 C11 8 11 8 14 8 C12.24064452 13.57437895 10.06164238 18.95861728 7.875 24.375 C7.50246094 25.30183594 7.12992188 26.22867188 6.74609375 27.18359375 C5.83229861 29.45636629 4.91689293 31.72847583 4 34 C3.08763165 30.76787319 2.99024762 29.24576628 4.3125 26.125 C5.7092082 22.75927389 6.83494819 19.49515542 8 16 C3.38 16 -1.24 16 -6 16 C-6.33 12.04 -6.66 8.08 -7 4 C-6.01 4.33 -5.02 4.66 -4 5 C-3.67 4.01 -3.34 3.02 -3 2 C-2.01 2 -1.02 2 0 2 C0 1.34 0 0.68 0 0 Z " fill="#FAD6F4" transform="translate(119,26)"/>
<path d="M0 0 C2.97 0 5.94 0 9 0 C9 4.95 9 9.9 9 15 C6.03 15 3.06 15 0 15 C0 10.05 0 5.1 0 0 Z " fill="#0C0E0D" transform="translate(191,165)"/>
<path d="M0 0 C0.33 0 0.66 0 1 0 C0.125 6.875 0.125 6.875 -1 8 C-1.23075082 9.34747084 -1.41153063 10.70377565 -1.5625 12.0625 C-1.706875 13.361875 -1.85125 14.66125 -2 16 C-0.68 15.67 0.64 15.34 2 15 C2.12375 14.195625 2.2475 13.39125 2.375 12.5625 C2.58125 11.716875 2.7875 10.87125 3 10 C3.66 9.67 4.32 9.34 5 9 C4.29937517 13.56736441 2.68729793 17.5699505 0.9375 21.8125 C0.65583984 22.50537109 0.37417969 23.19824219 0.08398438 23.91210938 C-0.60674973 25.60967624 -1.30283728 27.30506312 -2 29 C-2.66 29 -3.32 29 -4 29 C-6.47562572 23.84244642 -8.26792444 19.79161769 -6.33789062 14.02001953 C-5.44613501 11.85926561 -4.49141571 9.74180651 -3.5 7.625 C-3.16613281 6.88894531 -2.83226563 6.15289062 -2.48828125 5.39453125 C-1.66884796 3.59177802 -0.83578451 1.79523101 0 0 Z " fill="#CF1983" transform="translate(127,48)"/>
<path d="M0 0 C4.22999675 1.05749919 4.54930356 1.20032488 6.75 4.5625 C7.17796875 5.20316406 7.6059375 5.84382812 8.046875 6.50390625 C8.36140625 6.99761719 8.6759375 7.49132812 9 8 C9.33 5.36 9.66 2.72 10 0 C10.99 0 11.98 0 13 0 C13 4.95 13 9.9 13 15 C12.01 15 11.02 15 10 15 C8.39453125 13.03125 8.39453125 13.03125 6.8125 10.5 C6.28269531 9.6646875 5.75289063 8.829375 5.20703125 7.96875 C4.80871094 7.3190625 4.41039063 6.669375 4 6 C3.67 8.97 3.34 11.94 3 15 C2.01 15 1.02 15 0 15 C0 10.05 0 5.1 0 0 Z " fill="#2D2E2E" transform="translate(101,165)"/>
<path d="M0 0 C0.99 0 1.98 0 3 0 C3 3.63 3 7.26 3 11 C5.97 11.495 5.97 11.495 9 12 C9 8.04 9 4.08 9 0 C9.99 0 10.98 0 12 0 C12 4.95 12 9.9 12 15 C10.576875 15.061875 9.15375 15.12375 7.6875 15.1875 C6.48673828 15.23970703 6.48673828 15.23970703 5.26171875 15.29296875 C3 15 3 15 1.21875 13.875 C-0.54851611 11.15612907 -0.29091256 9.01828928 -0.1875 5.8125 C-0.16042969 4.72582031 -0.13335937 3.63914063 -0.10546875 2.51953125 C-0.07066406 1.68808594 -0.03585938 0.85664063 0 0 Z " fill="#303030" transform="translate(162,165)"/>
<path d="M0 0 C2.31 0 4.62 0 7 0 C9 2 9 2 9.125 4.375 C9.08375 5.24125 9.0425 6.1075 9 7 C9 10.11257569 9.17361624 12.10765685 10 15 C6.63408134 13.55746343 4.48952921 11.66735273 2 9 C2 10.65 2 12.3 2 14 C1.34 14 0.68 14 0 14 C0 9.38 0 4.76 0 0 Z " fill="#080A09" transform="translate(75,165)"/>
<path d="M0 0 C3.625 0.375 3.625 0.375 7 1 C7.625 3.8125 7.625 3.8125 8 7 C7.01 8.485 7.01 8.485 6 10 C3 10.3125 3 10.3125 0 10 C-2 8 -2 8 -2.25 5 C-2 2 -2 2 0 0 Z " fill="#F0F1F1" transform="translate(61,167)"/>
<path d="M0 0 C0 0.66 0 1.32 0 2 C-0.66 2 -1.32 2 -2 2 C-2.33 2.99 -2.66 3.98 -3 5 C-4.98320018 6.03291676 -6.98347806 7.0337499 -9 8 C-9.33 8.66 -9.66 9.32 -10 10 C-7.36 9.67 -4.72 9.34 -2 9 C-4.25597827 11.25597827 -6.04603867 11.96574192 -9 13.125 C-9.886875 13.47820313 -10.77375 13.83140625 -11.6875 14.1953125 C-14 15 -14 15 -16 15 C-15.38668632 11.42233688 -14.684651 8.22807378 -13 5 C-10.46875 3.41796875 -10.46875 3.41796875 -7.5 2.1875 C-6.5203125 1.76855469 -5.540625 1.34960938 -4.53125 0.91796875 C-2 0 -2 0 0 0 Z " fill="#D41586" transform="translate(130,26)"/>
<path d="M0 0 C0.33 0.99 0.66 1.98 1 3 C-0.11375 2.95875 -1.2275 2.9175 -2.375 2.875 C-6.04366025 2.58878141 -6.04366025 2.58878141 -8 5 C-7.67801034 8.09926819 -7.67801034 8.09926819 -7 11 C-4.36 11 -1.72 11 1 11 C0.67 12.32 0.34 13.64 0 15 C-6.22222222 15.47863248 -6.22222222 15.47863248 -9.4375 13.5 C-11.78057502 9.75107996 -11.48773804 7.38964238 -11 3 C-8.8254183 -1.34916341 -4.24620661 -0.20882983 0 0 Z " fill="#202020" transform="translate(40,165)"/>
<path d="M0 0 C0.99 0 1.98 0 3 0 C4.32 3.3 5.64 6.6 7 10 C8.32 6.7 9.64 3.4 11 0 C11.99 0 12.98 0 14 0 C13.37321829 3.66172475 12.35548154 6.8818995 10.9375 10.3125 C10.57527344 11.19550781 10.21304687 12.07851562 9.83984375 12.98828125 C9.56269531 13.65214844 9.28554687 14.31601563 9 15 C7.68 15 6.36 15 5 15 C3.35 10.05 1.7 5.1 0 0 Z " fill="#202020" transform="translate(0,165)"/>
<path d="M0 0 C1.134375 0.020625 2.26875 0.04125 3.4375 0.0625 C3.4375 1.0525 3.4375 2.0425 3.4375 3.0625 C0.4675 2.5675 0.4675 2.5675 -2.5625 2.0625 C-2.2325 3.0525 -1.9025 4.0425 -1.5625 5.0625 C-0.9025 5.330625 -0.2425 5.59875 0.4375 5.875 C2.4375 7.0625 2.4375 7.0625 3.3125 10.0625 C3.374375 11.5475 3.374375 11.5475 3.4375 13.0625 C1.4375 15.0625 1.4375 15.0625 -1.6875 15.1875 C-3.110625 15.125625 -3.110625 15.125625 -4.5625 15.0625 C-4.8925 14.0725 -5.2225 13.0825 -5.5625 12.0625 C-3.2525 12.0625 -0.9425 12.0625 1.4375 12.0625 C1.4375 11.0725 1.4375 10.0825 1.4375 9.0625 C0.65375 8.93875 -0.13 8.815 -0.9375 8.6875 C-3.5625 8.0625 -3.5625 8.0625 -5.5625 6.0625 C-4.83351201 0.08479846 -4.83351201 0.08479846 0 0 Z " fill="#212121" transform="translate(122.5625,164.9375)"/>
<path d="M0 0 C1.65 0 3.3 0 5 0 C4.27239851 2.22646056 3.53634777 4.44933332 2.78515625 6.66796875 C2.18917143 8.43813261 1.61961812 10.21722201 1.0625 12 C0 14 0 14 -2.125 14.8125 C-2.74375 14.874375 -3.3625 14.93625 -4 15 C-4.45356243 8.53673535 -3.59378942 5.39068413 0 0 Z " fill="#E9058A" transform="translate(129,49)"/>
<path d="M0 0 C2.97 0 5.94 0 9 0 C9 0.66 9 1.32 9 2 C6.69 2 4.38 2 2 2 C2 3.32 2 4.64 2 6 C3.98 6 5.96 6 8 6 C8 6.66 8 7.32 8 8 C6.02 8 4.04 8 2 8 C2 9.65 2 11.3 2 13 C4.31 13 6.62 13 9 13 C9 13.66 9 14.32 9 15 C6.03 15 3.06 15 0 15 C0 10.05 0 5.1 0 0 Z " fill="#0E0F0E" transform="translate(17,165)"/>
<path d="M0 0 C3.3472558 3.00098796 5.42369047 5.76885336 7 10 C6.6875 13.875 6.6875 13.875 6 17 C5.01 16.67 4.02 16.34 3 16 C2.67 13.69 2.34 11.38 2 9 C1.01 9 0.02 9 -1 9 C-1.125 2.25 -1.125 2.25 0 0 Z " fill="#E80589" transform="translate(145,34)"/>
<path d="M0 0 C3.96 0 7.92 0 12 0 C12 0.66 12 1.32 12 2 C10.35 2 8.7 2 7 2 C7 6.29 7 10.58 7 15 C6.01 15 5.02 15 4 15 C4 10.71 4 6.42 4 2 C2.68 2 1.36 2 0 2 C0 1.34 0 0.68 0 0 Z " fill="#232323" transform="translate(177,165)"/>
<path d="M0 0 C3.96 0 7.92 0 12 0 C12 0.66 12 1.32 12 2 C10.68 2 9.36 2 8 2 C8 6.29 8 10.58 8 15 C7.01 15 6.02 15 5 15 C5 10.71 5 6.42 5 2 C3.35 2 1.7 2 0 2 C0 1.34 0 0.68 0 0 Z " fill="#252525" transform="translate(42,165)"/>
<path d="M0 0 C3.11880351 4.67820526 6.0499676 9.45165239 5.9375 15.1875 C4.89759551 18.30721347 3.57851894 21.11748716 2 24 C-0.12161334 21.87838666 -0.92986249 20.2266841 -2.125 17.5 C-2.47820312 16.7059375 -2.83140625 15.911875 -3.1953125 15.09375 C-4 13 -4 13 -4 11 C-3.01 11 -2.02 11 -1 11 C-0.67 13.31 -0.34 15.62 0 18 C0.66 18 1.32 18 2 18 C3.33485867 13.14596848 2.67639493 10.36253217 0.69140625 5.9296875 C0 4 0 4 0 0 Z " fill="#C32A85" transform="translate(148,32)"/>
<path d="M0 0 C1.32 0 2.64 0 4 0 C4 4.95 4 9.9 4 15 C2.68 15 1.36 15 0 15 C0 10.05 0 5.1 0 0 Z " fill="#636463" transform="translate(142,165)"/>
<path d="M0 0 C2 2 2 2 2.125 5.125 C2.08375 6.07375 2.0425 7.0225 2 8 C1.34 7.01 0.68 6.02 0 5 C-0.66 6.32 -1.32 7.64 -2 9 C-3.65 8.67 -5.3 8.34 -7 8 C-7 8.99 -7 9.98 -7 11 C-5.02 11 -3.04 11 -1 11 C-1 11.33 -1 11.66 -1 12 C-3.31 12 -5.62 12 -8 12 C-8 10.35 -8 8.7 -8 7 C-6.02 7 -4.04 7 -2 7 C-2 6.34 -2 5.68 -2 5 C-3.98 5 -5.96 5 -8 5 C-8 3.68 -8 2.36 -8 1 C-6.865625 1.020625 -5.73125 1.04125 -4.5625 1.0625 C-1.18424326 1.41577477 -1.18424326 1.41577477 0 0 Z " fill="#C6C8C7" transform="translate(27,166)"/>
<path d="M0 0 C0.99 0.33 1.98 0.66 3 1 C4.17648276 3.66903552 5.18463756 6.24979427 6.125 9 C7.47832616 13.86592318 7.47832616 13.86592318 10 18 C10.30172745 21.39443386 10.35204436 23.39192338 8.625 26.375 C8.08875 26.91125 7.5525 27.4475 7 28 C6.34 28 5.68 28 5 28 C5.350625 27.13375 5.70125 26.2675 6.0625 25.375 C7.77201416 19.22074903 5.49743699 14.35691536 2.9375 8.75 C0 2.24313501 0 2.24313501 0 0 Z " fill="#FED5F6" transform="translate(146,26)"/>
<path d="M0 0 C0.33 0 0.66 0 1 0 C0.91245449 1.75091019 0.80426627 3.50079551 0.6875 5.25 C0.62949219 6.22453125 0.57148438 7.1990625 0.51171875 8.203125 C-0.05588371 11.30544071 -1.03048914 12.59840257 -3 15 C-4.49711705 19.41235618 -4.49711705 19.41235618 -5 24 C-6.32 24 -7.64 24 -9 24 C-6.41874331 15.82602049 -3.22988119 7.93359166 0 0 Z " fill="#F9C9EF" transform="translate(138,42)"/>
<path d="M0 0 C3.96 0 7.92 0 12 0 C12 0.66 12 1.32 12 2 C10.35 2 8.7 2 7 2 C7 6.29 7 10.58 7 15 C6.34 15 5.68 15 5 15 C5 10.71 5 6.42 5 2 C3.35 2 1.7 2 0 2 C0 1.34 0 0.68 0 0 Z " fill="#0C0D0C" transform="translate(148,165)"/>
<path d="M0 0 C2.475 0.495 2.475 0.495 5 1 C5 1.99 5 2.98 5 4 C5.66 4.33 6.32 4.66 7 5 C7 6.32 7 7.64 7 9 C7.2981424 10.34164079 7.62243192 11.67851173 8 13 C6.0625 12.1875 6.0625 12.1875 4 11 C3.67 10.01 3.34 9.02 3 8 C3.33 7.34 3.66 6.68 4 6 C2.68 6 1.36 6 0 6 C0 4.02 0 2.04 0 0 Z " fill="#292929" transform="translate(77,167)"/>
<path d="M0 0 C2.31 0 4.62 0 7 0 C7 3.3 7 6.6 7 10 C5.02 10 3.04 10 1 10 C1 9.01 1 8.02 1 7 C2.65 7 4.3 7 6 7 C6 6.01 6 5.02 6 4 C4.02 4 2.04 4 0 4 C0 2.68 0 1.36 0 0 Z " fill="#E2E4E3" transform="translate(193,167)"/>
<path d="M0 0 C3.96 0 7.92 0 12 0 C12 0.66 12 1.32 12 2 C10.35 2 8.7 2 7 2 C7 5.96 7 9.92 7 14 C6.34 14 5.68 14 5 14 C5 10.04 5 6.08 5 2 C3.35 2 1.7 2 0 2 C0 1.34 0 0.68 0 0 Z " fill="#090909" transform="translate(128,165)"/>
<path d="M0 0 C1.32 0.33 2.64 0.66 4 1 C3.83628906 1.55171875 3.67257813 2.1034375 3.50390625 2.671875 C2.94239586 5.26614007 2.90260992 7.59835411 2.9375 10.25 C2.95103516 11.58804688 2.95103516 11.58804688 2.96484375 12.953125 C2.97644531 13.62859375 2.98804687 14.3040625 3 15 C2.01 15 1.02 15 0 15 C0 10.05 0 5.1 0 0 Z " fill="#313231" transform="translate(101,165)"/>
<path d="M0 0 C0.99 0 1.98 0 3 0 C3 4.95 3 9.9 3 15 C2.01 15 1.02 15 0 15 C0 10.05 0 5.1 0 0 Z " fill="#303231" transform="translate(96,165)"/>
<path d="M0 0 C2.33944736 0.28730055 4.6739143 0.61936779 7 1 C7.33 2.32 7.66 3.64 8 5 C4.25 7 4.25 7 2 7 C2 6.01 2 5.02 2 4 C0.35 4 -1.3 4 -3 4 C-1 1 -1 1 0 0 Z " fill="#F6F8F7" transform="translate(24,161)"/>
<path d="M0 0 C1.98 0 3.96 0 6 0 C6 0.33 6 0.66 6 1 C4.35 1 2.7 1 1 1 C1 1.99 1 2.98 1 4 C2.98 4 4.96 4 7 4 C7 4.99 7 5.98 7 7 C4.03 7 1.06 7 -2 7 C-2 5.68 -2 4.36 -2 3 C-1.34 3 -0.68 3 0 3 C0 2.01 0 1.02 0 0 Z " fill="#4F5050" transform="translate(193,173)"/>
<path d="M0 0 C3 2 3 2 3.875 4.5625 C4.431875 5.7690625 4.431875 5.7690625 5 7 C7.54775306 7.89386164 7.54775306 7.89386164 10 8 C10 8.99 10 9.98 10 11 C3.59296098 10.51644989 3.59296098 10.51644989 1.0625 8.3125 C-0.27148038 5.40913094 -0.21536552 3.15869424 0 0 Z " fill="#323232" transform="translate(56,169)"/>
<path d="M0 0 C3.465 1.485 3.465 1.485 7 3 C7 3.99 7 4.98 7 6 C4.69 6 2.38 6 0 6 C-0.66 4.68 -1.32 3.36 -2 2 C-1.34 1.34 -0.68 0.68 0 0 Z M-3 3 C-2.01 4.485 -2.01 4.485 -1 6 C-1.66 6 -2.32 6 -3 6 C-3 5.01 -3 4.02 -3 3 Z " fill="#EBEBEB" transform="translate(117,171)"/>
<path d="M0 0 C1.98 0.66 3.96 1.32 6 2 C5.67 3.32 5.34 4.64 5 6 C2.69 6.33 0.38 6.66 -2 7 C-2 6.34 -2 5.68 -2 5 C-2.99 4.67 -3.98 4.34 -5 4 C-4.01 3.67 -3.02 3.34 -2 3 C-1.34 2.01 -0.68 1.02 0 0 Z " fill="#F3F3F3" transform="translate(5,160)"/>
<path d="M0 0 C2.125 0.375 2.125 0.375 4 1 C4 2.65 4 4.3 4 6 C2.35 6.33 0.7 6.66 -1 7 C-1.625 4.625 -1.625 4.625 -2 2 C-1.34 1.34 -0.68 0.68 0 0 Z " fill="#808080" transform="translate(106,132)"/>
<path d="M0 0 C1.32 0.66 2.64 1.32 4 2 C3.01 2 2.02 2 1 2 C1 4.97 1 7.94 1 11 C-1.52588702 8.63707344 -2.88820837 7.33537489 -4 4 C-2.68 2.68 -1.36 1.36 0 0 Z " fill="#F3F5F4" transform="translate(110,163)"/>
<path d="M0 0 C-0.41330414 5.99291003 -1.31903365 9.25036599 -5 14 C-5.33 13.34 -5.66 12.68 -6 12 C-5.00390625 9.3984375 -5.00390625 9.3984375 -3.5625 6.375 C-3.08941406 5.37210938 -2.61632812 4.36921875 -2.12890625 3.3359375 C-1.75636719 2.56507812 -1.38382813 1.79421875 -1 1 C-2.65 1.33 -4.3 1.66 -6 2 C-6 1.34 -6 0.68 -6 0 C-3.50907189 -1.24546405 -2.58919267 -0.7767578 0 0 Z " fill="#CB2389" transform="translate(134,33)"/>
<path d="M0 0 C0.763125 0.20625 1.52625 0.4125 2.3125 0.625 C2.3125 1.615 2.3125 2.605 2.3125 3.625 C-0.6875 5.625 -0.6875 5.625 -3.6875 5.625 C-3.6875 4.965 -3.6875 4.305 -3.6875 3.625 C-4.3475 3.625 -5.0075 3.625 -5.6875 3.625 C-5.6875 2.965 -5.6875 2.305 -5.6875 1.625 C-2.6875 -0.375 -2.6875 -0.375 0 0 Z " fill="#F4FCF3" transform="translate(124.6875,41.375)"/>
<path d="M0 0 C2.79872437 2.52788007 4.45773019 4.20411134 5 8 C5.66 8 6.32 8 7 8 C6.67 8.99 6.34 9.98 6 11 C3.33333333 8.33333333 0.66666667 5.66666667 -2 3 C-1 1 -1 1 0 0 Z " fill="#242524" transform="translate(105,167)"/>
<path d="M0 0 C0.33 0.66 0.66 1.32 1 2 C-1.31 2.66 -3.62 3.32 -6 4 C-6.2165625 5.175625 -6.2165625 5.175625 -6.4375 6.375 C-7 9 -7 9 -8 11 C-7.34 11.33 -6.68 11.66 -6 12 C-7.32 12.33 -8.64 12.66 -10 13 C-9.38707885 9.42462665 -8.82559627 6.15330265 -7 3 C-4.71367328 1.67160184 -2.51500629 0.88490962 0 0 Z " fill="#B73283" transform="translate(124,28)"/>
<path d="M0 0 C2.97 0 5.94 0 9 0 C9 0.66 9 1.32 9 2 C6.69 2 4.38 2 2 2 C1.67 3.98 1.34 5.96 1 8 C0.67 8 0.34 8 0 8 C0 5.36 0 2.72 0 0 Z " fill="#0C0E0D" transform="translate(17,165)"/>
<path d="M0 0 C1.23593891 3.70781672 0.5678132 4.67510253 -0.9375 8.1875 C-1.31777344 9.08855469 -1.69804688 9.98960938 -2.08984375 10.91796875 C-2.54037109 11.94857422 -2.54037109 11.94857422 -3 13 C-3.66 13 -4.32 13 -5 13 C-5.33 11.68 -5.66 10.36 -6 9 C-5.01 9 -4.02 9 -3 9 C-3.061875 8.2575 -3.12375 7.515 -3.1875 6.75 C-2.96905704 3.54616994 -2.09749995 2.35968744 0 0 Z " fill="#BD2681" transform="translate(128,64)"/>
<path d="M0 0 C1.32 0.33 2.64 0.66 4 1 C4 2.65 4 4.3 4 6 C2.02 6 0.04 6 -2 6 C-2 3 -2 3 0 0 Z " fill="#F9DEF0" transform="translate(140,16)"/>
<path d="M0 0 C0.99 0.33 1.98 0.66 3 1 C2.67 3.64 2.34 6.28 2 9 C1.01 9 0.02 9 -1 9 C-0.67 6.03 -0.34 3.06 0 0 Z " fill="#E60688" transform="translate(123,64)"/>
<path d="M0 0 C0.33 0 0.66 0 1 0 C0.50437849 4.95621512 -0.44215104 8.70281375 -3 13 C-3.99 13.495 -3.99 13.495 -5 14 C-4.54636829 12.41531323 -4.08688548 10.83230076 -3.625 9.25 C-3.36976562 8.36828125 -3.11453125 7.4865625 -2.8515625 6.578125 C-2.0790066 4.23919428 -1.16374324 2.16557438 0 0 Z " fill="#C82B85" transform="translate(127,48)"/>
<path d="M0 0 C0.99 0 1.98 0 3 0 C3 2.97 3 5.94 3 9 C2.34 9 1.68 9 1 9 C-1.125 2.25 -1.125 2.25 0 0 Z " fill="#F1FEF8" transform="translate(147,16)"/>
<path d="M0 0 C0.33 0 0.66 0 1 0 C0.91306859 1.79258558 0.80489496 3.58415144 0.6875 5.375 C0.62949219 6.37273438 0.57148438 7.37046875 0.51171875 8.3984375 C0.34285156 9.25695313 0.17398438 10.11546875 0 11 C-0.99 11.66 -1.98 12.32 -3 13 C-2.45144652 8.428721 -1.58255197 4.32564205 0 0 Z " fill="#FDD8F8" transform="translate(138,42)"/>
<path d="M0 0 C2.475 0.495 2.475 0.495 5 1 C4.67 2.32 4.34 3.64 4 5 C2.68 5 1.36 5 0 5 C0 3.35 0 1.7 0 0 Z " fill="#DADBDB" transform="translate(77,167)"/>
<path d="M0 0 C0 0.66 0 1.32 0 2 C-0.763125 2.2475 -1.52625 2.495 -2.3125 2.75 C-5.2364045 4.10995558 -6.30004356 5.31585826 -8 8 C-8.36075949 3.55063291 -8.36075949 3.55063291 -6.8125 1.1875 C-4.44017475 -0.36678206 -2.77958655 -0.22537188 0 0 Z " fill="#111111" transform="translate(65,165)"/>
<path d="M0 0 C2.97 0.495 2.97 0.495 6 1 C5.67 2.32 5.34 3.64 5 5 C2.525 4.01 2.525 4.01 0 3 C0 2.01 0 1.02 0 0 Z " fill="#ECECEC" transform="translate(120,167)"/>
<path d="M0 0 C1.15941038 3.47823115 0.70820884 5.45895578 0 9 C-0.66 7.68 -1.32 6.36 -2 5 C-2.66 5 -3.32 5 -4 5 C-4.33 4.01 -4.66 3.02 -5 2 C-3.35 1.34 -1.7 0.68 0 0 Z " fill="#DB1587" transform="translate(144,33)"/>
<path d="M0 0 C2.31 0 4.62 0 7 0 C7 0.99 7 1.98 7 3 C5.02 3 3.04 3 1 3 C0.67 2.01 0.34 1.02 0 0 Z " fill="#3F3F3F" transform="translate(117,177)"/>
<path d="M0 0 C0.33 0 0.66 0 1 0 C1 1.98 1 3.96 1 6 C-0.98 6 -2.96 6 -5 6 C-5 5.01 -5 4.02 -5 3 C-3.35 3 -1.7 3 0 3 C0 2.01 0 1.02 0 0 Z " fill="#F2F3F2" transform="translate(199,171)"/>
<path d="M0 0 C0.99 0.33 1.98 0.66 3 1 C2.39816251 3.02045442 1.72693904 5.02111039 1 7 C0.01 7.495 0.01 7.495 -1 8 C-1.04241723 5.66705225 -1.04092937 3.33297433 -1 1 C-0.67 0.67 -0.34 0.34 0 0 Z " fill="#F4F4F4" transform="translate(115,166)"/>
<path d="M0 0 C-0.33 0.99 -0.66 1.98 -1 3 C-3.31 3.33 -5.62 3.66 -8 4 C-8 3.34 -8 2.68 -8 2 C-5.09399739 0.74335022 -3.20395416 0 0 0 Z " fill="#FBC8F1" transform="translate(126,37)"/>
<path d="M0 0 C-0.33 1.32 -0.66 2.64 -1 4 C-3.31 4 -5.62 4 -8 4 C-7.67 3.01 -7.34 2.02 -7 1 C-2.25 0 -2.25 0 0 0 Z " fill="#595959" transform="translate(41,176)"/>
<path d="M0 0 C0.78375 0.04125 1.5675 0.0825 2.375 0.125 C2.0625 2.0625 2.0625 2.0625 1.375 4.125 C0.385 4.455 -0.605 4.785 -1.625 5.125 C-2.615 4.135 -3.605 3.145 -4.625 2.125 C-2.625 0.125 -2.625 0.125 0 0 Z " fill="#E3E3E3" transform="translate(63.625,166.875)"/>
<path d="M0 0 C0.99 0 1.98 0 3 0 C2.125 4.75 2.125 4.75 1 7 C0.01 6.67 -0.98 6.34 -2 6 C-1.34 4.02 -0.68 2.04 0 0 Z " fill="#262626" transform="translate(11,165)"/>
<path d="M0 0 C0.66 1.32 1.32 2.64 2 4 C0.625 7.25 0.625 7.25 -1 10 C-1.66 10 -2.32 10 -3 10 C-2.01 6.7 -1.02 3.4 0 0 Z " fill="#FACAF1" transform="translate(128,67)"/>
<path d="M0 0 C1.32 0.66 2.64 1.32 4 2 C3.34 3.32 2.68 4.64 2 6 C0.35 5.67 -1.3 5.34 -3 5 C-1.68 4.34 -0.36 3.68 1 3 C0.67 2.01 0.34 1.02 0 0 Z " fill="#EAEAEA" transform="translate(84,177)"/>
<path d="M0 0 C2.64 0.33 5.28 0.66 8 1 C8 1.66 8 2.32 8 3 C5.03 3 2.06 3 -1 3 C-0.67 2.01 -0.34 1.02 0 0 Z " fill="#2F2F2F" transform="translate(18,177)"/>
<path d="M0 0 C0.33 1.65 0.66 3.3 1 5 C0.34 5 -0.32 5 -1 5 C-1.33 4.01 -1.66 3.02 -2 2 C-4.00016466 0.79117904 -4.00016466 0.79117904 -6 0 C-3.50907189 -1.24546405 -2.58919267 -0.7767578 0 0 Z " fill="#111111" transform="translate(83,166)"/>
<path d="M0 0 C2 1 2 1 3 3 C-1.75 5.875 -1.75 5.875 -4 7 C-3.6875 4.625 -3.6875 4.625 -3 2 C-2.01 1.34 -1.02 0.68 0 0 Z " fill="#ECECEC" transform="translate(106,129)"/>
<path d="M0 0 C0.99 0 1.98 0 3 0 C3 1.65 3 3.3 3 5 C1.35 5.33 -0.3 5.66 -2 6 C-1.34 5.67 -0.68 5.34 0 5 C0 3.35 0 1.7 0 0 Z " fill="#A4A4A4" transform="translate(107,133)"/>
<path d="M0 0 C0.66 0 1.32 0 2 0 C2.33 1.98 2.66 3.96 3 6 C2.01 6.33 1.02 6.66 0 7 C0 4.69 0 2.38 0 0 Z " fill="#F80292" transform="translate(135,34)"/>
</svg>
